<svg width="51" height="46" viewBox="0 0 51 46" fill="none" xmlns="http://www.w3.org/2000/svg">
<path d="M51 16.9166C50.6019 20.9158 48.6909 25.175 45.7248 29.2742C41.0468 35.7329 33.7412 41.8117 25.5398 45.9909C21.877 44.1112 18.3934 41.8717 15.2283 39.3722C18.4333 39.3922 21.7775 38.8523 25.0222 37.5525C25.1616 37.4926 25.3009 37.4326 25.4602 37.3726C25.8782 37.1926 26.2763 36.9927 26.6546 36.7927C30.9344 34.4732 32.3876 30.7339 32.3876 30.7339C32.3876 30.7339 31.0738 28.6943 27.5902 31.6737C24.7834 34.0732 21.0609 34.0732 18.0351 32.7135C17.6967 32.5535 18.2143 32.1536 18.8911 31.6737C19.3689 31.3338 19.9262 30.9539 20.3443 30.5939C20.6827 30.294 20.9215 30.034 20.9415 29.7941C21.0012 29.1742 19.6475 28.3144 17.8361 29.0742C15.726 29.974 13.8548 31.2138 10.1124 31.3338C8.87822 31.2138 7.68384 31.0338 6.50937 30.7739C6.40984 30.6539 6.3103 30.5139 6.21077 30.394C4.43911 28.1144 2.98595 25.7949 1.93091 23.4753C1.79157 23.1554 1.65222 22.8555 1.53279 22.5355C0.557377 20.136 0 17.7165 0 15.3969C0 6.89863 6.86768 0 15.3279 0C16.4625 0 17.5773 0.119976 18.6323 0.359929C21.26 0.939813 23.6089 2.19956 25.5398 3.93922C25.6991 3.79925 25.8384 3.65927 25.9977 3.5393C26.4157 3.17937 26.8735 2.85943 27.3314 2.5395C29.76 0.939813 32.6464 0 35.7518 0C39.1159 0 42.2213 1.09978 44.7494 2.93942C47.5761 4.99901 49.6862 7.99841 50.582 11.4777C48.9696 9.93803 46.74 8.5583 44.1323 7.5585C44.0527 7.51851 43.9731 7.49851 43.8934 7.45852C38.4988 5.43892 31.5316 4.95902 24.9824 7.5785C24.863 7.63848 24.7436 7.67848 24.6241 7.73846C23.8279 8.0784 23.1112 8.47832 22.4941 8.89823C20.185 10.4379 18.8712 12.3176 18.2939 13.3573C18.0351 13.7973 17.9157 14.0972 17.9157 14.0972C17.9157 14.0972 18.5726 15.177 20.2646 14.6771C20.9215 14.4771 21.7377 14.0572 22.7131 13.2374C25.5597 10.8778 29.2822 10.9778 32.2881 12.3775C33.0445 12.7375 29.4415 14.2772 29.322 15.237C29.2424 15.8569 30.596 16.7567 32.4075 16.0168C34.637 15.117 36.6077 13.8373 40.6885 13.9172C41.1066 13.9172 41.5445 13.9372 42.0222 13.9772C42.6194 14.0172 43.2564 14.0972 43.9532 14.1972C46.6206 14.5971 48.9496 15.5769 50.9403 17.0966C50.9602 17.0366 50.9801 16.9766 51 16.9166Z" fill="#3CC18C"/>
<path opacity="0.5" d="M51 16.9166C50.6019 20.9158 48.6909 25.175 45.7248 29.2742C40.2307 34.2732 33.0047 37.3726 25.0422 37.5525C25.1815 37.4926 25.3208 37.4326 25.4801 37.3726C25.8981 37.1926 26.2963 36.9927 26.6745 36.7927C30.9543 34.4732 32.4075 30.7339 32.4075 30.7339C32.4075 30.7339 31.0937 28.6943 27.6101 31.6737C24.8033 34.0732 21.0808 34.0732 18.055 32.7135C17.7166 32.5535 18.2342 32.1536 18.911 31.6737C19.3888 31.3338 19.9461 30.9539 20.3642 30.5939C20.7026 30.294 20.9415 30.034 20.9614 29.7941C21.0211 29.1742 19.6674 28.3144 17.856 29.0742C15.7459 29.974 13.8747 31.2138 10.1323 31.3338C8.89813 31.2138 7.70375 31.0338 6.52927 30.7739C6.42974 30.6539 6.33021 30.5139 6.23068 30.394C4.45902 28.1144 3.00585 25.7949 1.95082 23.4753C1.81148 23.1554 1.67213 22.8555 1.55269 22.5355C0.557377 20.136 0 17.7165 0 15.3969C0 6.89863 6.86768 0 15.3279 0C16.4625 0 17.5773 0.119976 18.6323 0.359929C21.26 0.939813 23.6089 2.19956 25.5398 3.93922C25.6991 3.79925 25.8384 3.65927 25.9977 3.5393C26.4157 3.17937 26.8735 2.85943 27.3314 2.5395C29.76 0.939813 32.6464 0 35.7518 0C39.1159 0 42.2213 1.09978 44.7494 2.93942C47.5761 4.99901 49.6862 7.99841 50.582 11.4777C48.9696 9.93803 46.74 8.5583 44.1323 7.5585C44.0527 7.51851 43.9731 7.49851 43.8934 7.45852C38.4988 5.43892 31.5316 4.95902 24.9824 7.5785C24.863 7.63848 24.7436 7.67848 24.6241 7.73846C23.8279 8.0784 23.1112 8.47832 22.4941 8.89823C20.185 10.4379 18.8712 12.3176 18.2939 13.3573C18.0351 13.7973 17.9157 14.0972 17.9157 14.0972C17.9157 14.0972 18.5726 15.177 20.2646 14.6771C20.9215 14.4771 21.7377 14.0572 22.7131 13.2374C25.5597 10.8778 29.2822 10.9778 32.2881 12.3775C33.0445 12.7375 29.4415 14.2772 29.322 15.237C29.2424 15.8569 30.596 16.7567 32.4075 16.0168C34.637 15.117 36.6077 13.8373 40.6885 13.9172C41.1066 13.9172 41.5445 13.9372 42.0222 13.9772C42.6194 14.0172 43.2564 14.0972 43.9532 14.1972C46.6206 14.5971 48.9496 15.5769 50.9403 17.0966C50.9602 17.0366 50.9801 16.9766 51 16.9166Z" fill="#57CB9C"/>
<path d="M44.7693 2.93942C44.6698 4.5191 44.4707 6.0588 44.1522 7.5585C44.0726 7.51851 43.993 7.49851 43.9133 7.45852C38.5187 5.43892 31.5515 4.95902 25.0023 7.5785C24.8829 7.63848 24.7635 7.67848 24.644 7.73846C23.8478 8.0784 23.1311 8.47832 22.5141 8.89823C20.2049 10.4379 18.8911 12.3176 18.3138 13.3573C18.0351 13.7973 17.9157 14.0972 17.9157 14.0972C17.9157 14.0972 18.5726 15.177 20.2646 14.6771C20.9215 14.4771 21.7377 14.0572 22.7131 13.2374C25.5597 10.8778 29.2822 10.9778 32.2881 12.3775C33.0445 12.7375 29.4415 14.2772 29.322 15.237C29.2424 15.8569 30.596 16.7567 32.4075 16.0168C34.637 15.117 36.6077 13.8373 40.6885 13.9172C41.1066 13.9172 41.5445 13.9372 42.0222 13.9772C37.822 23.2154 29.2225 30.034 18.911 31.7137C19.3888 31.3738 19.9461 30.9938 20.3642 30.6339C20.7026 30.334 20.9415 30.074 20.9614 29.8341C21.0211 29.2142 19.6674 28.3544 17.856 29.1142C15.7459 30.014 13.8747 31.2538 10.1323 31.3738C8.89813 31.2538 7.70375 31.0738 6.52927 30.8139C6.42974 30.6939 6.33021 30.5539 6.23068 30.434C4.45902 28.1544 3.00585 25.8349 1.95082 23.5153C1.81148 23.1954 1.67213 22.8955 1.55269 22.5755C0.557377 20.136 0 17.7165 0 15.3969C0 6.89863 6.86768 0 15.3279 0C16.4625 0 17.5773 0.119976 18.6323 0.359929C21.26 0.939813 23.6089 2.19956 25.5398 3.93922C25.6991 3.79925 25.8384 3.65927 25.9977 3.5393C26.4157 3.17937 26.8735 2.85943 27.3314 2.5395C29.76 0.939813 32.6464 0 35.7518 0C39.1159 0 42.2412 1.09978 44.7693 2.93942Z" fill="#4290EC"/>
<path opacity="0.5" d="M26.0176 3.5393C25.6792 4.99901 25.2014 6.39873 24.6241 7.73846C23.8279 8.0784 23.1112 8.47832 22.4941 8.89823C20.185 10.4379 18.8712 12.3176 18.2939 13.3573C18.0351 13.7973 17.9157 14.0972 17.9157 14.0972C17.9157 14.0972 18.5726 15.177 20.2646 14.6771C15.7459 19.8361 9.23653 23.1954 1.95082 23.5353C1.81148 23.2154 1.67213 22.9155 1.55269 22.5955C0.557377 20.136 0 17.7165 0 15.3969C0 6.89863 6.86768 0 15.3279 0C16.4625 0 17.5773 0.119976 18.6323 0.359929C21.26 0.939813 23.6089 2.19956 25.5398 3.93922C25.6991 3.79925 25.8583 3.67927 26.0176 3.5393Z" fill="#55A2FC"/>
<path opacity="0.5" d="M9.35597 8.65822C8.22131 10.4379 6.50937 11.3577 5.53396 10.7178C4.55855 10.0779 4.69789 8.13833 5.85246 6.35868C6.98712 4.57903 8.69906 3.65921 9.67447 4.29909C10.63 4.91896 10.4906 6.87858 9.35597 8.65822Z" fill="#6CBDF3"/>
</svg>
