<svg xmlns="http://www.w3.org/2000/svg" width="18" height="19" viewBox="0 0 18 19" fill="none"><g clip-path="url(#clip0_28_6)"><path fill-rule="evenodd" clip-rule="evenodd" d="M14.3191 16.6681V16.6525L13.2914 5.52025C13.2784 5.39965 13.2206 5.28834 13.1294 5.20835C13.0383 5.12837 12.9203 5.08557 12.799 5.08843H10.6918C10.6293 4.19429 10.2299 3.35715 9.57432 2.74588C8.91878 2.1346 8.0558 1.79468 7.15947 1.79468C6.26315 1.79468 5.40027 2.1346 4.74473 2.74588C4.08919 3.35715 3.68979 4.19429 3.62723 5.08843H1.52001C1.39891 5.08616 1.28129 5.12918 1.19024 5.20905C1.09919 5.28892 1.04121 5.39989 1.02768 5.52025L0.0086448 16.6542V16.6594C0.00901438 16.6631 0.0083698 16.6668 0.00685258 16.6701C0.00533537 16.6734 0.00299139 16.6763 0 16.6784V16.7C0.0562168 17.3592 0.369351 17.9698 0.871859 18.4001C1.37437 18.8304 2.02593 19.0458 2.6859 18.9999H11.6332C12.2937 19.0469 12.9461 18.8317 13.4489 18.4008C13.9517 17.9699 14.2644 17.3582 14.3191 16.6983V16.6681ZM4.61179 5.08498C4.61974 4.76429 4.69189 4.44844 4.8239 4.15608C4.95592 3.86372 5.14513 3.60077 5.38044 3.38275C5.86429 2.93075 6.50167 2.67933 7.1638 2.67933C7.82592 2.67933 8.46341 2.93075 8.94726 3.38275C9.17985 3.60241 9.36673 3.86588 9.49715 4.15801C9.62758 4.45013 9.69899 4.76516 9.70726 5.08498H4.61179V5.08498ZM4.11956 7.96693C4.18344 7.96866 4.24694 7.95759 4.30648 7.93439C4.36602 7.91118 4.42033 7.87631 4.4662 7.83181C4.51206 7.78731 4.54863 7.73409 4.57362 7.67527C4.59862 7.61646 4.61158 7.55324 4.61179 7.48934V6.04534H9.70726V7.49279C9.70726 7.62335 9.75906 7.74856 9.85138 7.84088C9.9437 7.9332 10.0689 7.98506 10.1995 7.98506C10.33 7.98506 10.4553 7.9332 10.5476 7.84088C10.6399 7.74856 10.6918 7.62335 10.6918 7.49279V6.04534H12.3499L13.3345 16.7233C13.2733 17.1194 13.063 17.4771 12.7468 17.7232C12.4305 17.9693 12.0321 18.0853 11.6332 18.0473H2.6859C2.28756 18.087 1.8892 17.9715 1.57388 17.7249C1.25856 17.4783 1.05061 17.1195 0.993203 16.7233V16.7233L1.96912 6.04534H3.62723V7.49279C3.62778 7.55648 3.64098 7.61941 3.66613 7.67793C3.69128 7.73644 3.72794 7.78935 3.77377 7.83358C3.8196 7.8778 3.87369 7.91245 3.93307 7.93549C3.99244 7.95854 4.0559 7.96952 4.11956 7.96779V7.96693Z" fill="#4D4D4D"></path><ellipse cx="13.3864" cy="4.74989" rx="3.88636" ry="3.88636" fill="#55A2FA"></ellipse><path d="M11.6111 4.21631C11.6111 4.87885 11.7329 5.3983 11.9765 5.77466C12.2201 6.14709 12.626 6.33331 13.1944 6.33331C13.7628 6.33331 14.1688 6.14513 14.4124 5.76877C14.656 5.39242 14.7778 4.87493 14.7778 4.21631C14.7778 3.56162 14.656 3.04805 14.4124 2.67562C14.1688 2.29926 13.7628 2.11108 13.1944 2.11108C12.626 2.11108 12.2201 2.2973 11.9765 2.66973C11.7329 3.04217 11.6111 3.55769 11.6111 4.21631ZM14.0835 4.21631C14.0835 4.6946 14.0226 5.06115 13.9008 5.31597C13.779 5.5708 13.5436 5.69821 13.1944 5.69821C12.8412 5.69821 12.6037 5.5708 12.4819 5.31597C12.3601 5.06115 12.2992 4.6946 12.2992 4.21631C12.2992 3.74195 12.3601 3.37932 12.4819 3.12842C12.6037 2.87751 12.8412 2.75206 13.1944 2.75206C13.5436 2.75206 13.779 2.87947 13.9008 3.1343C14.0226 3.3852 14.0835 3.74587 14.0835 4.21631Z" fill="white"></path></g><defs><clipPath id="clip0_28_6"><rect width="17.2727" height="19" fill="white"></rect></clipPath></defs></svg>