<svg width="15" height="13" viewBox="0 0 15 13" fill="none" xmlns="http://www.w3.org/2000/svg">
<g clip-path="url(#clip0_281_24)">
<path fill-rule="evenodd" clip-rule="evenodd" d="M0.530029 13H14.47C14.5377 13.0025 14.6053 12.9916 14.6688 12.9678C14.7323 12.9439 14.7905 12.9074 14.8398 12.8608C14.8891 12.8143 14.9287 12.7588 14.9562 12.6968C14.9837 12.6348 14.9986 12.5678 15 12.5V1.41016C14.9976 1.34312 14.9819 1.27726 14.9539 1.21631C14.9259 1.15535 14.8861 1.10022 14.8369 1.05469C14.7876 1.00915 14.7298 0.973819 14.6669 0.950684C14.6039 0.927548 14.537 0.91711 14.47 0.919922H11.847V0.490234C11.8369 0.356687 11.7768 0.231699 11.6786 0.140625C11.5804 0.0495511 11.4514 -0.000976562 11.3175 -0.000976562C11.1836 -0.000976562 11.0546 0.0495511 10.9564 0.140625C10.8582 0.231699 10.7981 0.356687 10.788 0.490234V0.919922H4.29999V0.490234C4.28993 0.356687 4.22978 0.231699 4.13159 0.140625C4.0334 0.0495511 3.90443 -0.000976562 3.77051 -0.000976562C3.63658 -0.000976562 3.50762 0.0495511 3.40942 0.140625C3.31123 0.231699 3.25109 0.356687 3.24103 0.490234V0.919922H0.530029C0.462979 0.916975 0.395966 0.927598 0.332947 0.950684C0.269927 0.973769 0.212122 1.00913 0.162842 1.05469C0.113561 1.10025 0.0737873 1.1548 0.0458374 1.21582C0.0178875 1.27684 0.00231338 1.34308 0 1.41016V12.5098C0.00699476 12.6444 0.0663328 12.7713 0.165344 12.8628C0.264356 12.9543 0.395234 13.0036 0.530029 13ZM1.05902 1.91016H3.24298V2.18018C3.25304 2.31372 3.31318 2.43822 3.41138 2.5293C3.50957 2.62037 3.6386 2.6709 3.77252 2.6709C3.90645 2.6709 4.03541 2.62037 4.13361 2.5293C4.2318 2.43822 4.29194 2.31372 4.302 2.18018V1.91016H10.788V2.18018C10.7981 2.31372 10.8582 2.43822 10.9564 2.5293C11.0546 2.62037 11.1836 2.6709 11.3175 2.6709C11.4514 2.6709 11.5804 2.62037 11.6786 2.5293C11.7768 2.43822 11.8369 2.31372 11.847 2.18018V1.91016H13.953V3.2002H1.05902V1.91016ZM1.05902 4.18994H13.94V12.02H1.05902V4.18994ZM11.318 6.47021H3.70001C3.63271 6.46616 3.56527 6.47537 3.50177 6.49805C3.43827 6.52072 3.38002 6.55628 3.33051 6.60205C3.28099 6.64783 3.24126 6.70312 3.21368 6.76465C3.1861 6.82618 3.17121 6.89254 3.16998 6.95996C3.1714 7.02776 3.1863 7.09475 3.21381 7.15674C3.24132 7.21873 3.28087 7.27475 3.3302 7.32129C3.37953 7.36783 3.43768 7.40388 3.50116 7.42773C3.56464 7.45159 3.63224 7.4625 3.70001 7.45996H11.323C11.3907 7.4625 11.4583 7.4516 11.5217 7.42773C11.5852 7.40387 11.6431 7.36735 11.6924 7.3208C11.7416 7.27425 11.7811 7.21872 11.8085 7.15674C11.8359 7.09476 11.8507 7.02772 11.852 6.95996C11.8508 6.89218 11.8358 6.82548 11.808 6.76367C11.7802 6.70186 11.7401 6.64642 11.6901 6.60059C11.6402 6.55475 11.5814 6.51949 11.5175 6.49707C11.4535 6.47465 11.3856 6.46559 11.318 6.47021ZM7.50598 8.87012H3.70001C3.63271 8.86606 3.56527 8.87576 3.50177 8.89844C3.43827 8.92111 3.38002 8.95618 3.33051 9.00195C3.28099 9.04773 3.24126 9.10302 3.21368 9.16455C3.1861 9.22608 3.17121 9.29245 3.16998 9.35986C3.1714 9.42767 3.1863 9.49465 3.21381 9.55664C3.24132 9.61863 3.28087 9.67465 3.3302 9.72119C3.37953 9.76773 3.43768 9.80378 3.50116 9.82764C3.56464 9.85149 3.63224 9.8624 3.70001 9.85986H7.51099C7.57876 9.8624 7.64635 9.85149 7.70984 9.82764C7.77332 9.80378 7.83147 9.76773 7.8808 9.72119C7.93013 9.67465 7.96968 9.61863 7.99719 9.55664C8.0247 9.49465 8.0396 9.42767 8.04102 9.35986C8.03983 9.292 8.02484 9.22546 7.99695 9.16357C7.96906 9.10169 7.92884 9.04585 7.87878 9C7.82873 8.95415 7.76984 8.91884 7.70575 8.89648C7.64166 8.87413 7.57369 8.86536 7.50598 8.87012Z" fill="#777777"/>
</g>
<defs>
<clipPath id="clip0_281_24">
<rect width="15" height="13" fill="white"/>
</clipPath>
</defs>
</svg>
