<svg xmlns="http://www.w3.org/2000/svg" width="83" height="82" viewBox="0 0 83 82" fill="none"><g clip-path="url(#clip0_115_33)"><path d="M53.9122 29.554H27.9189C27.747 29.554 27.582 29.4865 27.4604 29.3663C27.3388 29.2462 27.2705 29.0832 27.2705 28.9133C27.2705 28.7434 27.3388 28.5805 27.4604 28.4603C27.582 28.3402 27.747 28.2727 27.9189 28.2727H53.9122C54.0842 28.2727 54.2491 28.3402 54.3707 28.4603C54.4923 28.5805 54.5606 28.7434 54.5606 28.9133C54.5606 29.0832 54.4923 29.2462 54.3707 29.3663C54.2491 29.4865 54.0842 29.554 53.9122 29.554Z" fill="#2F3A5A"></path><path d="M60.5742 37.2267H21.2568C21.0849 37.2267 20.9199 37.1592 20.7983 37.0391C20.6767 36.9189 20.6084 36.756 20.6084 36.5861C20.6084 36.4162 20.6767 36.2532 20.7983 36.1331C20.9199 36.0129 21.0849 35.9454 21.2568 35.9454H60.5742C60.7462 35.9454 60.9111 36.0129 61.0327 36.1331C61.1543 36.2532 61.2226 36.4162 61.2226 36.5861C61.2226 36.756 61.1543 36.9189 61.0327 37.0391C60.9111 37.1592 60.7462 37.2267 60.5742 37.2267Z" fill="#2F3A5A"></path><path d="M61.285 44.8995H20.5469C20.3749 44.8995 20.21 44.832 20.0884 44.7118C19.9668 44.5917 19.8984 44.4288 19.8984 44.2589C19.8984 44.0889 19.9668 43.926 20.0884 43.8059C20.21 43.6857 20.3749 43.6182 20.5469 43.6182H61.285C61.457 43.6182 61.6219 43.6857 61.7435 43.8059C61.8651 43.926 61.9334 44.0889 61.9334 44.2589C61.9334 44.4288 61.8651 44.5917 61.7435 44.7118C61.6219 44.832 61.457 44.8995 61.285 44.8995Z" fill="#2F3A5A"></path><path d="M53.9122 52.5722H27.9189C27.747 52.5722 27.582 52.5047 27.4604 52.3846C27.3388 52.2644 27.2705 52.1015 27.2705 51.9316C27.2705 51.7617 27.3388 51.5987 27.4604 51.4786C27.582 51.3584 27.747 51.291 27.9189 51.291H53.9122C54.0842 51.291 54.2491 51.3584 54.3707 51.4786C54.4923 51.5987 54.5606 51.7617 54.5606 51.9316C54.5606 52.1015 54.4923 52.2644 54.3707 52.3846C54.2491 52.5047 54.0842 52.5722 53.9122 52.5722Z" fill="#2F3A5A"></path><path d="M60.5744 5.00647H24.1802C24.0082 5.00647 23.8433 4.93898 23.7217 4.81883C23.6001 4.69869 23.5317 4.53575 23.5317 4.36584C23.5317 4.19594 23.6001 4.03299 23.7217 3.91285C23.8433 3.79271 24.0082 3.72522 24.1802 3.72522H60.5744C60.7463 3.72522 60.9113 3.79271 61.0329 3.91285C61.1545 4.03299 61.2228 4.19594 61.2228 4.36584C61.2228 4.53575 61.1545 4.69869 61.0329 4.81883C60.9113 4.93898 60.7463 5.00647 60.5744 5.00647Z" fill="#2F3A5A"></path><path d="M57.8534 11.6651H25.5762C25.4042 11.6651 25.2393 11.5976 25.1177 11.4775C24.9961 11.3573 24.9277 11.1944 24.9277 11.0245C24.9277 10.8546 24.9961 10.6916 25.1177 10.5715C25.2393 10.4513 25.4042 10.3839 25.5762 10.3839H57.8534C58.0254 10.3839 58.1904 10.4513 58.312 10.5715C58.4336 10.6916 58.5019 10.8546 58.5019 11.0245C58.5019 11.1944 58.4336 11.3573 58.312 11.4775C58.1904 11.5976 58.0254 11.6651 57.8534 11.6651Z" fill="#2F3A5A"></path><path d="M60.5744 78.2203H24.1802C24.0082 78.2203 23.8433 78.1528 23.7217 78.0326C23.6001 77.9125 23.5317 77.7496 23.5317 77.5797C23.5317 77.4097 23.6001 77.2468 23.7217 77.1267C23.8433 77.0065 24.0082 76.939 24.1802 76.939H60.5744C60.7463 76.939 60.9113 77.0065 61.0329 77.1267C61.1545 77.2468 61.2228 77.4097 61.2228 77.5797C61.2228 77.7496 61.1545 77.9125 61.0329 78.0326C60.9113 78.1528 60.7463 78.2203 60.5744 78.2203Z" fill="#2F3A5A"></path><path d="M59.1775 71.5578H26.9009C26.7289 71.5578 26.564 71.4903 26.4424 71.3702C26.3208 71.25 26.2524 71.0871 26.2524 70.9172C26.2524 70.7473 26.3208 70.5843 26.4424 70.4642C26.564 70.344 26.7289 70.2766 26.9009 70.2766H59.1775C59.3495 70.2766 59.5144 70.344 59.636 70.4642C59.7576 70.5843 59.8259 70.7473 59.8259 70.9172C59.8259 71.0871 59.7576 71.25 59.636 71.3702C59.5144 71.4903 59.3495 71.5578 59.1775 71.5578Z" fill="#2F3A5A"></path><path d="M39.9759 59.6832C21.5078 65.739 19.7771 76.4426 20.0488 81.3594H24.0912C23.7624 77.9 24.6748 68.9498 41.2611 63.5103C55.2531 58.9221 63.6958 50.5261 63.8449 40.9872C63.6958 31.5117 55.2531 23.1138 41.2618 18.5275C24.6132 13.0687 23.7566 4.06989 24.0951 0.640625H20.0508C19.768 5.54077 21.4631 16.2828 39.9759 22.354C52.0622 26.3175 59.645 33.481 59.7643 40.9872C59.645 48.5562 52.0622 55.7203 39.9759 59.6832Z" fill="#81DAFC"></path><path d="M24.0916 82H20.0493C19.8833 82.0003 19.7236 81.9376 19.6029 81.825C19.4823 81.7124 19.41 81.5584 19.4008 81.3946C19.1454 76.7757 20.6199 65.3553 39.7715 59.0753C51.5886 55.2008 59.0003 48.2653 59.1157 40.9776C59.0009 33.7481 51.5893 26.8371 39.7721 22.9619C20.5875 16.671 19.1369 5.23071 19.4041 0.604118C19.4135 0.440621 19.486 0.286906 19.6066 0.174554C19.7272 0.0622009 19.8868 -0.000258184 20.0525 8.05311e-06H24.0968C24.1877 -0.000442199 24.2777 0.0179926 24.3609 0.0541164C24.4441 0.0902402 24.5187 0.143246 24.5799 0.209694C24.641 0.276142 24.6873 0.354548 24.7158 0.439825C24.7443 0.525102 24.7543 0.615344 24.7453 0.704696C24.4074 4.12115 25.3619 12.6383 41.4704 17.9209C55.736 22.5974 64.344 31.2183 64.4977 40.9789C64.3447 50.799 55.736 59.4417 41.4704 64.1202C25.3982 69.3912 24.4165 77.8936 24.7407 81.3017C24.7491 81.3907 24.7386 81.4805 24.7098 81.5652C24.681 81.65 24.6346 81.7278 24.5735 81.7938C24.5124 81.8597 24.4381 81.9123 24.3552 81.9482C24.2723 81.984 24.1828 82.0023 24.0923 82.002L24.0916 82ZM20.6744 80.7188H23.401C23.2636 76.6444 25.087 68.1401 41.0573 62.9017C54.7763 58.4039 63.0523 50.2077 63.1969 40.977C63.0523 31.8058 54.7763 23.6333 41.058 19.1355C25.0494 13.8856 23.2506 5.3646 23.4023 1.28126H20.6789C20.6056 5.9386 22.6515 15.9971 40.1833 21.746C52.5386 25.798 60.2913 33.1671 60.4145 40.9776C60.2906 48.847 52.5379 56.2398 40.1833 60.2918L39.979 59.6838L40.1833 60.2918C23.1806 65.8659 20.5765 75.2369 20.6744 80.7188Z" fill="#2F3A5A"></path><path d="M41.7379 63.5103C58.3379 68.9556 59.238 77.9147 58.9098 81.3594H62.9503C63.222 76.4426 61.4913 65.739 43.0231 59.6832C30.9375 55.7203 23.3547 48.5594 23.2354 41.05C23.3547 33.481 30.9375 26.3156 43.0238 22.354C61.5367 16.2828 63.2317 5.54077 62.949 0.640625H58.9047C59.2431 4.06989 58.3859 13.0687 41.7379 18.5275C27.7466 23.1157 19.3039 31.5117 19.1548 41.05C19.3039 50.5261 27.7466 58.9221 41.7379 63.5103Z" fill="#EF5361"></path><path d="M62.9507 82H58.9103C58.8198 82.0004 58.7302 81.9821 58.6472 81.9462C58.5643 81.9103 58.4899 81.8577 58.4288 81.7916C58.3677 81.7256 58.3213 81.6477 58.2926 81.5629C58.2638 81.4781 58.2534 81.3882 58.2619 81.2992C58.5861 77.8898 57.6063 69.39 41.5322 64.1183C27.2666 59.4417 18.6586 50.8214 18.5049 41.0602C18.6579 31.2407 27.2666 22.5974 41.5322 17.9189C57.6426 12.637 58.5965 4.11987 58.2593 0.704696C58.2502 0.615344 58.2602 0.525102 58.2887 0.439825C58.3172 0.354548 58.3635 0.276142 58.4247 0.209694C58.4858 0.143246 58.5604 0.0902402 58.6436 0.0541164C58.7268 0.0179926 58.8168 -0.000442199 58.9077 8.05311e-06H62.952C63.1178 -0.000258184 63.2774 0.0622009 63.3979 0.174554C63.5185 0.286906 63.591 0.440621 63.6005 0.604118C63.8676 5.23071 62.4171 16.6716 43.2317 22.9619C31.4107 26.8371 23.9984 33.7718 23.8837 41.0602C23.9991 48.2897 31.4107 55.2001 43.2279 59.0753C62.3795 65.3534 63.854 76.7757 63.5985 81.3946C63.5894 81.5583 63.5172 81.7122 63.3967 81.8248C63.2762 81.9374 63.1166 82.0001 62.9507 82ZM59.6003 80.7188H62.3237C62.4216 75.237 59.8175 65.8659 42.8174 60.2912C30.4621 56.2399 22.7094 48.8707 22.5861 41.0602C22.71 33.1908 30.4621 25.798 42.8174 21.746C60.3511 15.9971 62.3963 5.9386 62.323 1.28126H59.5996C59.7513 5.3646 57.9526 13.8856 41.9439 19.1355C28.2237 23.634 19.9477 31.8301 19.8031 41.0602C19.9477 50.2314 28.2237 58.4039 41.942 62.9017C57.9169 68.1407 59.7384 76.6444 59.6009 80.7188H59.6003Z" fill="#2F3A5A"></path></g><defs><clipPath id="clip0_115_33"><rect width="83" height="82" fill="white"></rect></clipPath></defs></svg>