<svg xmlns="http://www.w3.org/2000/svg" width="21" height="19" viewBox="0 0 21 19" fill="none"><g clip-path="url(#clip0_28_11)"><path fill-rule="evenodd" clip-rule="evenodd" d="M15.1739 0C12.947 0 11.0929 1.99798 10.3057 3.00371C9.5082 1.99488 7.66459 0 5.43771 0C2.434 0 -3.86129e-05 2.75616 -3.86129e-05 6.14517C-0.0104977 7.02909 0.161601 7.90566 0.505578 8.71997C0.849554 9.53429 1.35805 10.2688 1.99904 10.8776C2.01867 10.9128 2.04301 10.9453 2.07148 10.9739L9.91214 18.8239C9.96307 18.8767 10.0242 18.9186 10.0919 18.9469C10.1596 18.9752 10.2324 18.9894 10.3057 18.9886C10.379 18.9885 10.4516 18.9737 10.5192 18.9453C10.5867 18.9168 10.648 18.8752 10.6993 18.8229L18.799 10.6994L18.8819 10.6197C18.9544 10.5492 19.0166 10.486 19.0891 10.4063C19.1202 10.3711 19.1512 10.3307 19.1823 10.2872C20.1178 9.10986 20.6222 7.64784 20.6116 6.14413C20.6116 2.75512 18.1672 0 15.1739 0ZM5.43771 1.12898C7.76817 1.12898 9.80861 4.23626 9.82932 4.27252C9.88244 4.34944 9.9537 4.41209 10.0368 4.45491C10.1199 4.49772 10.2123 4.51939 10.3057 4.51799C10.398 4.52051 10.4894 4.49925 10.571 4.45626C10.6526 4.41327 10.7218 4.34999 10.7719 4.27252C10.7926 4.24144 12.8434 1.12898 15.1739 1.12898C17.5561 1.12898 19.4827 3.37969 19.4827 6.14517C19.4957 7.41909 19.0592 8.65682 18.2501 9.64086L18.219 9.68955L18.1258 9.78483L18.105 9.80348L10.3057 17.6266L2.98296 10.2872C2.95091 10.2309 2.90878 10.1811 2.85867 10.1401C2.30364 9.63533 1.86232 9.01823 1.5641 8.32981C1.26587 7.64139 1.11751 6.8974 1.12891 6.14724C1.12891 3.37865 3.05546 1.12898 5.43771 1.12898Z" fill="#4D4D4D"></path></g><defs><clipPath id="clip0_28_11"><rect width="20.622" height="19" fill="white"></rect></clipPath></defs></svg>