<svg xmlns="http://www.w3.org/2000/svg" width="79" height="54" viewBox="0 0 79 54" fill="none"><path d="M54.0847 51.5779L77.5858 28.0768C78.3668 27.2958 78.3668 26.0294 77.5858 25.2484L54.0846 1.74724C53.3036 0.966196 52.0373 0.966196 51.2562 1.74724L27.7551 25.2484C26.9741 26.0294 26.9741 27.2957 27.7551 28.0768L51.2563 51.5779C52.0373 52.359 53.3036 52.359 54.0847 51.5779Z" fill="#7EAED8"></path><path d="M27.7437 51.6055L51.2449 28.1044C52.0259 27.3233 52.0259 26.057 51.2449 25.276L27.7437 1.77482C26.9627 0.993784 25.6963 0.993783 24.9153 1.77482L1.41415 25.276C0.633114 26.057 0.633116 27.3233 1.41416 28.1044L24.9153 51.6055C25.6964 52.3866 26.9627 52.3866 27.7437 51.6055Z" fill="#6096C5"></path><path d="M25.3648 27.1763C26.0996 26.9507 27.3098 26.2317 27.3098 24.3849C27.3098 23.4121 26.8776 22.6367 26.2148 22.1574C25.5665 21.6921 24.702 21.4665 23.5926 21.4665H20.0194V31.1943H22.3535V27.4723H23.0883L25.1775 31.1943H27.8862L25.3648 27.1763ZM24.9613 24.4694C24.9613 24.977 24.7596 25.2448 24.4571 25.4563C24.1689 25.6678 23.7943 25.7242 23.2612 25.7242H22.3391V23.2288H23.2612C23.7943 23.2288 24.1689 23.2711 24.4571 23.4826C24.7596 23.694 24.9613 23.976 24.9613 24.4694Z" fill="white"></path><path d="M35.2286 29.3474H30.9782V27.0917H34.8684V25.273H30.9782V23.2852H35.0989V21.4665H28.6586V31.1943H35.2286V29.3474Z" fill="white"></path><path d="M43.2346 29.3474H38.9842V27.0917H42.8744V25.273H38.9842V23.2852H43.1049V21.4665H36.6645V31.1943H43.2346V29.3474Z" fill="white"></path><path d="M51.2838 21.4665H43.8205V23.2711H46.3851V31.1943H48.7192V23.2711H51.2838V21.4665Z" fill="white"></path><path d="M53.2774 21.4665L52.1391 24.977H54.0266L55.4818 21.4665H53.2774Z" fill="white"></path><path d="M64.062 28.2336C64.062 27.3596 63.7018 26.7674 63.2839 26.3586C62.8373 25.9216 62.1745 25.6678 61.9008 25.5691C61.5838 25.4422 60.849 25.1884 60.4167 25.0193C59.9701 24.8501 59.4082 24.6245 59.4082 24.0324C59.4082 23.4403 59.9557 23.1583 60.7049 23.1583C61.4541 23.1583 62.3474 23.5813 62.9237 24.1452L63.9179 22.5521C63.2407 21.8895 61.9152 21.3538 60.7625 21.3538C59.6099 21.3538 58.7022 21.6639 58.1403 22.1292C57.564 22.5944 57.1029 23.3275 57.1029 24.258C57.1029 25.1744 57.4487 25.7383 57.8809 26.133C58.3132 26.5419 58.8175 26.7251 59.0624 26.8379C59.3938 26.9789 60.143 27.2327 60.5752 27.3878C61.0075 27.5428 61.7423 27.7966 61.7423 28.4592C61.7423 29.1077 61.166 29.4602 60.4167 29.4602C59.6531 29.4602 58.5437 28.9667 57.8233 28.2336L56.6707 29.8972C57.4775 30.6303 58.7598 31.3634 60.2006 31.3634C61.2668 31.3634 62.1889 31.1097 62.8949 30.5598C63.6153 30.01 64.062 29.1641 64.062 28.2336Z" fill="white"></path></svg>