<svg xmlns="http://www.w3.org/2000/svg" width="130" height="33" viewBox="0 0 130 33" fill="none"><path fill-rule="evenodd" clip-rule="evenodd" d="M32.7749 16.4968L16.3875 0.112793L17.8056 15.2365L32.7749 16.4968Z" fill="#EC1C24"></path><path fill-rule="evenodd" clip-rule="evenodd" d="M14.9693 15.0789L16.3875 0.112793L0 16.4968L14.9693 15.0789Z" fill="#FFCA05"></path><path fill-rule="evenodd" clip-rule="evenodd" d="M14.9693 17.9144L0 16.4966L16.3875 32.8806L14.9693 17.9144Z" fill="#00A551"></path><path fill-rule="evenodd" clip-rule="evenodd" d="M17.8056 17.9144L16.3875 32.8806L32.7749 16.4966L17.8056 17.9144Z" fill="#00ADEE"></path><path d="M44.0009 8.71918C44.2546 9.18437 44.5436 9.76234 44.8678 10.4531C45.2061 11.1297 45.5515 11.8698 45.9039 12.6733C46.2704 13.4627 46.6299 14.2733 46.9823 15.105C47.3347 15.9367 47.666 16.7191 47.9761 17.4521C48.2863 16.7191 48.6175 15.9367 48.97 15.105C49.3224 14.2733 49.6748 13.4627 50.0272 12.6733C50.3937 11.8698 50.7391 11.1297 51.0633 10.4531C51.4017 9.76234 51.6977 9.18437 51.9514 8.71918H54.954C55.095 9.69186 55.2219 10.7844 55.3347 11.9967C55.4615 13.1949 55.5672 14.4495 55.6518 15.7605C55.7505 17.0574 55.8351 18.3614 55.9056 19.6724C55.9902 20.9834 56.0606 22.2168 56.117 23.3728H52.903C52.8607 21.949 52.8043 20.3983 52.7338 18.7208C52.6633 17.0433 52.5576 15.3517 52.4166 13.646C52.1629 14.2381 51.8809 14.8936 51.5708 15.6125C51.2607 16.3314 50.9506 17.0504 50.6404 17.7693C50.3444 18.4882 50.0554 19.179 49.7735 19.8415C49.4915 20.49 49.2519 21.0468 49.0545 21.512H46.7497C46.5524 21.0468 46.3127 20.49 46.0308 19.8415C45.7489 19.179 45.4528 18.4882 45.1427 17.7693C44.8467 17.0504 44.5436 16.3314 44.2335 15.6125C43.9233 14.8936 43.6414 14.2381 43.3877 13.646C43.2467 15.3517 43.141 17.0433 43.0705 18.7208C43 20.3983 42.9436 21.949 42.9013 23.3728H39.6873C39.7436 22.2168 39.8071 20.9834 39.8776 19.6724C39.9621 18.3614 40.0467 17.0574 40.1313 15.7605C40.23 14.4495 40.3357 13.1949 40.4485 11.9967C40.5754 10.7844 40.7093 9.69186 40.8502 8.71918H44.0009Z" fill="#404040"></path><path d="M64.994 14.7455C65.5861 13.7447 66.1499 12.7438 66.6856 11.7429C67.2213 10.7421 67.7147 9.73415 68.1658 8.71918H71.8027C70.9992 10.298 70.1675 11.8275 69.3076 13.3077C68.4477 14.7878 67.5385 16.275 66.5799 17.7693V23.3728H63.2813V17.8116C62.3227 16.3173 61.4064 14.8231 60.5324 13.3288C59.6725 11.8346 58.8408 10.298 58.0373 8.71918H61.8645C62.3156 9.73415 62.802 10.7421 63.3235 11.7429C63.8451 12.7438 64.4019 13.7447 64.994 14.7455Z" fill="#404040"></path><path d="M78.2386 20.8565C78.7038 20.8565 79.0844 20.8212 79.3805 20.7508C79.6906 20.6662 79.9373 20.5605 80.1205 20.4336C80.3038 20.2926 80.4307 20.1305 80.5012 19.9472C80.5716 19.764 80.6069 19.5596 80.6069 19.334C80.6069 18.8547 80.3813 18.46 79.9302 18.1499C79.4791 17.8257 78.7038 17.4803 77.6043 17.1138C77.125 16.9446 76.6457 16.7543 76.1664 16.5429C75.6871 16.3173 75.2572 16.0424 74.8765 15.7182C74.4959 15.3799 74.1858 14.9781 73.9462 14.5129C73.7065 14.0337 73.5867 13.4557 73.5867 12.779C73.5867 12.1024 73.7136 11.4962 73.9673 10.9606C74.2211 10.4108 74.5805 9.9456 75.0457 9.56499C75.5109 9.18437 76.0748 8.89539 76.7373 8.69804C77.3999 8.48659 78.147 8.38086 78.9787 8.38086C79.9655 8.38086 80.8183 8.48659 81.5373 8.69804C82.2562 8.90949 82.8483 9.14208 83.3135 9.39583L82.3619 11.9967C81.9531 11.7852 81.495 11.602 80.9875 11.4469C80.4941 11.2777 79.895 11.1932 79.1902 11.1932C78.4007 11.1932 77.8298 11.3059 77.4774 11.5315C77.1391 11.7429 76.9699 12.0742 76.9699 12.5253C76.9699 12.7931 77.0334 13.0187 77.1602 13.2019C77.2871 13.3852 77.4633 13.5544 77.6889 13.7094C77.9285 13.8504 78.1963 13.9843 78.4924 14.1112C78.8025 14.224 79.1408 14.3438 79.5073 14.4707C80.2686 14.7526 80.9311 15.0345 81.495 15.3165C82.0588 15.5843 82.524 15.9015 82.8906 16.268C83.2712 16.6345 83.5531 17.0645 83.7364 17.5578C83.9196 18.0512 84.0112 18.6503 84.0112 19.3552C84.0112 20.7226 83.532 21.7869 82.5734 22.5481C81.6148 23.2952 80.1699 23.6688 78.2386 23.6688C77.5902 23.6688 77.0052 23.6265 76.4836 23.5419C75.962 23.4714 75.4968 23.3798 75.088 23.267C74.6933 23.1543 74.3479 23.0344 74.0519 22.9076C73.77 22.7807 73.5303 22.6609 73.333 22.5481L74.2633 19.9261C74.7003 20.1657 75.236 20.3842 75.8704 20.5816C76.5188 20.7649 77.3082 20.8565 78.2386 20.8565Z" fill="#404040"></path><path d="M90.1651 16.0354C90.1651 16.7543 90.2497 17.4028 90.4189 17.9807C90.6021 18.5587 90.8559 19.0592 91.1801 19.4821C91.5184 19.8909 91.9272 20.208 92.4065 20.4336C92.8858 20.6591 93.4356 20.7719 94.0558 20.7719C94.662 20.7719 95.2047 20.6591 95.684 20.4336C96.1774 20.208 96.5862 19.8909 96.9104 19.4821C97.2488 19.0592 97.5025 18.5587 97.6717 17.9807C97.8549 17.4028 97.9465 16.7543 97.9465 16.0354C97.9465 15.3165 97.8549 14.668 97.6717 14.09C97.5025 13.498 97.2488 12.9975 96.9104 12.5887C96.5862 12.1658 96.1774 11.8416 95.684 11.6161C95.2047 11.3905 94.662 11.2777 94.0558 11.2777C93.4356 11.2777 92.8858 11.3976 92.4065 11.6372C91.9272 11.8628 91.5184 12.187 91.1801 12.6099C90.8559 13.0187 90.6021 13.5191 90.4189 14.1112C90.2497 14.6892 90.1651 15.3306 90.1651 16.0354ZM101.351 16.0354C101.351 17.29 101.161 18.3966 100.78 19.3552C100.413 20.2997 99.906 21.0961 99.2575 21.7446C98.6091 22.3789 97.8338 22.8582 96.9316 23.1825C96.0435 23.5067 95.0849 23.6688 94.0558 23.6688C93.055 23.6688 92.1105 23.5067 91.2224 23.1825C90.3343 22.8582 89.559 22.3789 88.8964 21.7446C88.2339 21.0961 87.7123 20.2997 87.3317 19.3552C86.9511 18.3966 86.7608 17.29 86.7608 16.0354C86.7608 14.7808 86.9581 13.6812 87.3528 12.7368C87.7475 11.7782 88.2762 10.9747 88.9387 10.3262C89.6154 9.67776 90.3907 9.19142 91.2647 8.8672C92.1528 8.54297 93.0832 8.38086 94.0558 8.38086C95.0567 8.38086 96.0012 8.54297 96.8893 8.8672C97.7774 9.19142 98.5527 9.67776 99.2153 10.3262C99.8778 10.9747 100.399 11.7782 100.78 12.7368C101.161 13.6812 101.351 14.7808 101.351 16.0354Z" fill="#404040"></path><path d="M104.946 23.3728V8.71918H114.758V11.4892H108.245V14.5552H114.039V17.3252H108.245V23.3728H104.946Z" fill="#404040"></path><path d="M129.257 8.71918V11.5315H124.838V23.3728H121.539V11.5315H117.12V8.71918H129.257Z" fill="#404040"></path></svg>