<svg xmlns="http://www.w3.org/2000/svg" width="81" height="55" viewBox="0 0 81 55" fill="none"><path d="M0 44.3948H3.88135C4.56022 44.3948 5.18006 44.5044 5.74086 44.7234C6.30166 44.9425 6.77884 45.2711 7.17239 45.7092C7.56593 46.1374 7.87093 46.6801 8.08738 47.3374C8.30383 47.9846 8.41206 48.7414 8.41206 49.6077C8.41206 50.4741 8.30383 51.2358 8.08738 51.8931C7.87093 52.5403 7.56593 53.083 7.17239 53.5212C6.77884 53.9493 6.30166 54.273 5.74086 54.492C5.18006 54.7111 4.56022 54.8206 3.88135 54.8206H0V44.3948ZM3.88135 52.8042C4.55038 52.8042 5.07675 52.615 5.46046 52.2366C5.84417 51.8582 6.03602 51.2508 6.03602 50.4143V48.8011C6.03602 47.9647 5.84417 47.3573 5.46046 46.9789C5.07675 46.6005 4.55038 46.4113 3.88135 46.4113H2.24322V52.8042H3.88135Z" fill="#4E4E4E"></path><path d="M16.828 53.1627H16.7542C16.6755 53.6904 16.4099 54.1286 15.9573 54.4771C15.5047 54.8256 14.8898 54.9999 14.1126 54.9999C13.5222 54.9999 12.9713 54.8854 12.4597 54.6563C11.9481 54.4273 11.5004 54.0887 11.1167 53.6406C10.733 53.1925 10.4329 52.6349 10.2165 51.9677C10 51.3006 9.89178 50.5288 9.89178 49.6525C9.89178 48.7763 10.0049 47.9995 10.2312 47.3224C10.4575 46.6453 10.7723 46.0777 11.1757 45.6196C11.5889 45.1616 12.0809 44.813 12.6515 44.5741C13.2222 44.3351 13.8568 44.2156 14.5553 44.2156C15.4801 44.2156 16.2771 44.4197 16.9461 44.828C17.6151 45.2263 18.1415 45.8287 18.5252 46.6353L16.6952 47.6958C16.5378 47.2876 16.2918 46.944 15.9573 46.6652C15.6228 46.3764 15.1555 46.232 14.5553 46.232C13.8568 46.232 13.3009 46.4362 12.8877 46.8444C12.4744 47.2527 12.2678 47.895 12.2678 48.7713V50.4442C12.2678 51.3105 12.4744 51.9528 12.8877 52.371C13.3009 52.7793 13.8568 52.9834 14.5553 52.9834C14.8308 52.9834 15.0915 52.9536 15.3375 52.8938C15.5834 52.8241 15.7999 52.7245 15.9868 52.5951C16.1738 52.4557 16.3164 52.2914 16.4148 52.1022C16.523 51.913 16.5772 51.6889 16.5772 51.43V50.9072H14.6586V49.0103H18.7171V54.8206H16.828V53.1627Z" fill="#4E4E4E"></path><path d="M27.2435 54.8206L26.5056 52.3412H23.067L22.3291 54.8206H20.0563L23.4507 44.3948H26.2252L29.5753 54.8206H27.2435ZM24.8084 46.4561H24.7346L23.5983 50.4143H25.9595L24.8084 46.4561Z" fill="#4E4E4E"></path><path d="M42.1918 47.9796H42.1476L41.3949 49.5032L39.3878 53.1925L37.425 49.5181L36.6428 47.8751H36.5986V54.8206H34.4882V44.3948H36.8642L39.3878 49.2791H39.4173L41.9114 44.3948H44.3022V54.8206H42.1918V47.9796Z" fill="#4E4E4E"></path><path d="M46.5799 54.8206V44.3948H53.59V46.4113H48.8231V48.5472H52.9111V50.5487H48.8231V52.8042H53.59V54.8206H46.5799Z" fill="#4E4E4E"></path><path d="M55.5443 44.3948H59.4256C60.1045 44.3948 60.7243 44.5044 61.2851 44.7234C61.8459 44.9425 62.3231 45.2711 62.7166 45.7092C63.1102 46.1374 63.4152 46.6801 63.6316 47.3374C63.8481 47.9846 63.9563 48.7414 63.9563 49.6077C63.9563 50.4741 63.8481 51.2358 63.6316 51.8931C63.4152 52.5403 63.1102 53.083 62.7166 53.5212C62.3231 53.9493 61.8459 54.273 61.2851 54.492C60.7243 54.7111 60.1045 54.8206 59.4256 54.8206H55.5443V44.3948ZM59.4256 52.8042C60.0946 52.8042 60.621 52.615 61.0047 52.2366C61.3884 51.8582 61.5803 51.2508 61.5803 50.4143V48.8011C61.5803 47.9647 61.3884 47.3573 61.0047 46.9789C60.621 46.6005 60.0946 46.4113 59.4256 46.4113H57.7875V52.8042H59.4256Z" fill="#4E4E4E"></path><path d="M65.436 54.8206V53.0133H66.7643V46.2022H65.436V44.3948H70.3357V46.2022H69.0075V53.0133H70.3357V54.8206H65.436Z" fill="#4E4E4E"></path><path d="M78.5506 54.8206L77.8127 52.3412H74.3741L73.6362 54.8206H71.3634L74.7578 44.3948H77.5323L80.8824 54.8206H78.5506ZM76.1155 46.4561H76.0417L74.9054 50.4143H77.2666L76.1155 46.4561Z" fill="#4E4E4E"></path><path d="M39.902 0C32.338 0 26.2043 6.03674 26.2043 13.4811C26.2043 20.9255 32.338 26.9623 39.902 26.9623V34.542C39.902 34.542 53.5997 29.7505 53.5997 13.4811C53.5997 6.03674 47.466 0 39.902 0ZM35.3912 13.4811C35.3912 11.0448 37.399 9.04156 39.902 9.04156C42.405 9.04156 44.4129 11.0177 44.4129 13.4811C44.4129 15.9175 42.405 17.9207 39.902 17.9207C37.399 17.9207 35.3912 15.9175 35.3912 13.4811Z" fill="#00A551"></path></svg>