<svg xmlns="http://www.w3.org/2000/svg" width="75" height="46" viewBox="0 0 75 46" fill="none"><path d="M9.45331 44.0687C8.49331 44.0687 7.62398 43.93 6.84531 43.6527C6.07731 43.3647 5.42131 42.9594 4.87731 42.4367C4.34398 41.9034 3.92798 41.2634 3.62931 40.5167C3.34131 39.7594 3.19731 38.9114 3.19731 37.9727C3.19731 37.002 3.35198 36.1167 3.66131 35.3167C3.98131 34.506 4.42398 33.8127 4.98931 33.2367C5.55465 32.6607 6.23198 32.218 7.02131 31.9087C7.81065 31.5887 8.68531 31.4287 9.64531 31.4287C10.3066 31.4287 10.936 31.5194 11.5333 31.7007C12.1306 31.882 12.776 32.1754 13.4693 32.5807L13.7733 31.5887H14.3493V35.6367H13.5493C13.336 34.634 12.904 33.8554 12.2533 33.3007C11.6133 32.746 10.808 32.4687 9.83731 32.4687C8.61065 32.4687 7.65598 32.9434 6.97331 33.8927C6.30131 34.8314 5.96531 36.1487 5.96531 37.8447C5.96531 39.5087 6.29598 40.7834 6.95731 41.6687C7.61865 42.554 8.57865 42.9967 9.83731 42.9967C10.744 42.9967 11.448 42.7674 11.9493 42.3087C12.4613 41.8394 12.7173 41.194 12.7173 40.3727C12.7173 39.882 12.5893 39.5247 12.3333 39.3007C12.0773 39.066 11.6453 38.922 11.0373 38.8687V38.2287H16.2213V38.8687C15.6986 38.8687 15.336 38.986 15.1333 39.2207C14.9306 39.4447 14.8293 39.8554 14.8293 40.4527V42.5807C14.5946 42.5807 14.3973 42.5914 14.2373 42.6127C14.0773 42.6234 13.9173 42.6554 13.7573 42.7087C13.608 42.7514 13.4373 42.826 13.2453 42.9327C13.0533 43.0394 12.8133 43.178 12.5253 43.3487C11.704 43.8287 10.68 44.0687 9.45331 44.0687ZM24.0129 31.4287C24.9729 31.4287 25.8689 31.594 26.7009 31.9247C27.5329 32.2554 28.2529 32.7087 28.8609 33.2847C29.4796 33.8607 29.9649 34.538 30.3169 35.3167C30.6689 36.0954 30.8449 36.938 30.8449 37.8447C30.8449 38.7087 30.6636 39.5194 30.3009 40.2767C29.9489 41.034 29.4636 41.6954 28.8449 42.2607C28.2369 42.8154 27.5169 43.258 26.6849 43.5887C25.8529 43.9087 24.9623 44.0687 24.0129 44.0687C23.0636 44.0687 22.1729 43.9087 21.3409 43.5887C20.5089 43.258 19.7836 42.8154 19.1649 42.2607C18.5463 41.6954 18.0609 41.034 17.7089 40.2767C17.3569 39.5194 17.1809 38.7087 17.1809 37.8447C17.1809 36.938 17.3569 36.0954 17.7089 35.3167C18.0609 34.538 18.5409 33.8607 19.1489 33.2847C19.7676 32.7087 20.4929 32.2554 21.3249 31.9247C22.1569 31.594 23.0529 31.4287 24.0129 31.4287ZM24.0129 43.0287C24.6316 43.0287 25.1916 42.9114 25.6929 42.6767C26.1943 42.4314 26.6209 42.09 26.9729 41.6527C27.3249 41.2047 27.5916 40.666 27.7729 40.0367C27.9649 39.3967 28.0609 38.682 28.0609 37.8927C28.0609 37.0607 27.9649 36.314 27.7729 35.6527C27.5916 34.9807 27.3249 34.41 26.9729 33.9407C26.6209 33.4607 26.1943 33.098 25.6929 32.8527C25.1916 32.5967 24.6316 32.4687 24.0129 32.4687C23.3836 32.4687 22.8183 32.5967 22.3169 32.8527C21.8263 33.098 21.4049 33.4607 21.0529 33.9407C20.7009 34.41 20.4289 34.9807 20.2369 35.6527C20.0556 36.314 19.9649 37.0607 19.9649 37.8927C19.9649 38.682 20.0556 39.3967 20.2369 40.0367C20.4289 40.666 20.7009 41.2047 21.0529 41.6527C21.4049 42.09 21.8263 42.4314 22.3169 42.6767C22.8183 42.9114 23.3836 43.0287 24.0129 43.0287ZM42.9512 43.9087H31.9272V43.2687C32.2792 43.258 32.5672 43.226 32.7912 43.1727C33.0152 43.1194 33.1859 43.0287 33.3032 42.9007C33.4205 42.7727 33.5005 42.5914 33.5432 42.3567C33.5859 42.122 33.6072 41.818 33.6072 41.4447V34.0527C33.6072 33.6794 33.5859 33.3807 33.5432 33.1567C33.5112 32.922 33.4419 32.7407 33.3352 32.6127C33.2285 32.474 33.0739 32.3834 32.8712 32.3407C32.6792 32.2874 32.4232 32.25 32.1032 32.2287V31.5887H37.6232V32.2287C37.2605 32.2394 36.9672 32.2714 36.7432 32.3247C36.5299 32.378 36.3645 32.474 36.2472 32.6127C36.1299 32.7514 36.0499 32.9434 36.0072 33.1887C35.9752 33.434 35.9592 33.7594 35.9592 34.1647V40.8687C35.9592 41.3167 36.0019 41.6847 36.0872 41.9727C36.1832 42.25 36.3432 42.4687 36.5672 42.6287C36.7912 42.778 37.0899 42.8847 37.4632 42.9487C37.8365 43.002 38.3005 43.0287 38.8552 43.0287C39.4739 43.0287 39.9912 42.9914 40.4072 42.9167C40.8232 42.842 41.1699 42.7034 41.4472 42.5007C41.7352 42.2874 41.9645 42.0047 42.1352 41.6527C42.3059 41.3007 42.4499 40.842 42.5672 40.2767H43.2072L42.9512 43.9087ZM50.4533 44.0687C49.4933 44.0687 48.624 43.93 47.8453 43.6527C47.0773 43.3647 46.4213 42.9594 45.8773 42.4367C45.344 41.9034 44.928 41.2634 44.6293 40.5167C44.3413 39.7594 44.1973 38.9114 44.1973 37.9727C44.1973 37.002 44.352 36.1167 44.6613 35.3167C44.9813 34.506 45.424 33.8127 45.9893 33.2367C46.5546 32.6607 47.232 32.218 48.0213 31.9087C48.8106 31.5887 49.6853 31.4287 50.6453 31.4287C51.3066 31.4287 51.936 31.5194 52.5333 31.7007C53.1306 31.882 53.776 32.1754 54.4693 32.5807L54.7733 31.5887H55.3493V35.6367H54.5493C54.336 34.634 53.904 33.8554 53.2533 33.3007C52.6133 32.746 51.808 32.4687 50.8373 32.4687C49.6106 32.4687 48.656 32.9434 47.9733 33.8927C47.3013 34.8314 46.9653 36.1487 46.9653 37.8447C46.9653 39.5087 47.296 40.7834 47.9573 41.6687C48.6186 42.554 49.5786 42.9967 50.8373 42.9967C51.744 42.9967 52.448 42.7674 52.9493 42.3087C53.4613 41.8394 53.7173 41.194 53.7173 40.3727C53.7173 39.882 53.5893 39.5247 53.3333 39.3007C53.0773 39.066 52.6453 38.922 52.0373 38.8687V38.2287H57.2213V38.8687C56.6986 38.8687 56.336 38.986 56.1333 39.2207C55.9306 39.4447 55.8293 39.8554 55.8293 40.4527V42.5807C55.5946 42.5807 55.3973 42.5914 55.2373 42.6127C55.0773 42.6234 54.9173 42.6554 54.7573 42.7087C54.608 42.7514 54.4373 42.826 54.2453 42.9327C54.0533 43.0394 53.8133 43.178 53.5253 43.3487C52.704 43.8287 51.68 44.0687 50.4533 44.0687ZM65.0129 31.4287C65.9729 31.4287 66.8689 31.594 67.7009 31.9247C68.5329 32.2554 69.2529 32.7087 69.8609 33.2847C70.4796 33.8607 70.9649 34.538 71.3169 35.3167C71.6689 36.0954 71.8449 36.938 71.8449 37.8447C71.8449 38.7087 71.6636 39.5194 71.3009 40.2767C70.9489 41.034 70.4636 41.6954 69.8449 42.2607C69.2369 42.8154 68.5169 43.258 67.6849 43.5887C66.8529 43.9087 65.9623 44.0687 65.0129 44.0687C64.0636 44.0687 63.1729 43.9087 62.3409 43.5887C61.5089 43.258 60.7836 42.8154 60.1649 42.2607C59.5463 41.6954 59.0609 41.034 58.7089 40.2767C58.3569 39.5194 58.1809 38.7087 58.1809 37.8447C58.1809 36.938 58.3569 36.0954 58.7089 35.3167C59.0609 34.538 59.5409 33.8607 60.1489 33.2847C60.7676 32.7087 61.4929 32.2554 62.3249 31.9247C63.1569 31.594 64.0529 31.4287 65.0129 31.4287ZM65.0129 43.0287C65.6316 43.0287 66.1916 42.9114 66.6929 42.6767C67.1943 42.4314 67.6209 42.09 67.9729 41.6527C68.3249 41.2047 68.5916 40.666 68.7729 40.0367C68.9649 39.3967 69.0609 38.682 69.0609 37.8927C69.0609 37.0607 68.9649 36.314 68.7729 35.6527C68.5916 34.9807 68.3249 34.41 67.9729 33.9407C67.6209 33.4607 67.1943 33.098 66.6929 32.8527C66.1916 32.5967 65.6316 32.4687 65.0129 32.4687C64.3836 32.4687 63.8183 32.5967 63.3169 32.8527C62.8263 33.098 62.4049 33.4607 62.0529 33.9407C61.7009 34.41 61.4289 34.9807 61.2369 35.6527C61.0556 36.314 60.9649 37.0607 60.9649 37.8927C60.9649 38.682 61.0556 39.3967 61.2369 40.0367C61.4289 40.666 61.7009 41.2047 62.0529 41.6527C62.4049 42.09 62.8263 42.4314 63.3169 42.6767C63.8183 42.9114 64.3836 43.0287 65.0129 43.0287Z" fill="#176FC1"></path><path d="M37.9434 23.4581V16.7974C37.9434 12.1563 41.7106 8.36963 46.3712 8.36963V15.0303C46.3518 19.6909 42.5845 23.4581 37.9434 23.4581Z" fill="#176FC1"></path><path d="M35.7878 19.0306V9.37935C35.7878 4.19449 31.5933 0 26.4084 0V9.65122C26.4279 14.8361 30.6224 19.0306 35.7878 19.0306Z" fill="#176FC1"></path><path d="M44.2328 4.73729C44.6398 3.02609 43.5826 1.30896 41.8714 0.90196C40.1602 0.494958 38.443 1.55221 38.036 3.26341C37.629 4.97461 38.6863 6.69176 40.3975 7.09876C42.1087 7.50576 43.8258 6.44849 44.2328 4.73729Z" fill="#176FC1"></path></svg>