<svg xmlns="http://www.w3.org/2000/svg" width="78" height="54" viewBox="0 0 78 54" fill="none"><path d="M46.3919 21.8975C46.3919 22.8512 46.2819 23.8049 46.0618 24.7218C46.0251 24.8319 46.0251 24.9052 45.9884 25.0153C45.4749 27.0327 44.4112 28.94 42.834 30.5172C41.5869 31.7643 40.1197 32.6813 38.5425 33.3049C37.1487 33.8184 35.6815 34.1118 34.2143 34.1118C31.2066 34.1118 28.1989 33.0114 25.8514 30.774C25.778 30.7006 25.668 30.6273 25.5946 30.5172C25.5212 30.4439 25.4112 30.3338 25.3378 30.2605C23.1371 27.913 22 24.9052 22 21.8975C22 21.5674 22 21.2373 22.0367 20.9438C22.5135 21.6041 23.027 22.2276 23.6139 22.8145C25.5212 24.7585 27.8687 26.0423 30.3263 26.7025C31.0965 26.9226 31.9035 27.0693 32.7104 27.1427C32.8938 27.1427 33.0405 27.1794 33.2239 27.1794C33.5174 27.1794 33.8475 27.2161 34.1409 27.2161C34.9846 27.2161 35.8282 27.1427 36.6718 26.996C37.5155 26.8493 38.3224 26.6292 39.1294 26.3358C39.2394 26.2991 39.3494 26.2624 39.4228 26.2257C41.3301 25.4921 43.1274 24.3551 44.668 22.8145C45.2549 22.2276 45.7684 21.6041 46.2452 20.9438C46.2452 21.0906 46.2819 21.2006 46.2819 21.3473C46.3919 21.5307 46.3919 21.7141 46.3919 21.8975Z" fill="#FFC005"></path><path d="M56.0387 12.251C56.0387 12.5811 56.0387 12.9112 56.002 13.2047C55.5252 12.5444 55.0116 11.9209 54.4247 11.334C52.4807 9.38997 50.1699 8.1062 47.7124 7.44596C46.7587 7.18921 45.8051 7.04248 44.8514 6.96912C44.5213 6.93244 44.2278 6.93244 43.8977 6.93244C43.6776 6.93244 43.4575 6.93244 43.2375 6.93244C42.944 6.93244 42.6506 6.96912 42.3572 7.0058C42.1738 7.04248 41.9537 7.04249 41.7703 7.07917C41.6602 7.07917 41.5869 7.11584 41.4769 7.11584C41.4402 7.11584 41.4035 7.11584 41.3301 7.15252H41.2935C41.2568 7.15252 41.2201 7.15252 41.1468 7.1892C41.0367 7.1892 40.9633 7.22588 40.8533 7.22588C40.7433 7.26256 40.6699 7.26256 40.5599 7.29924C40.5232 7.29924 40.4498 7.33592 40.4132 7.33592C40.3765 7.33592 40.3765 7.33592 40.3398 7.33592C40.3031 7.33592 40.3031 7.33592 40.2664 7.3726C40.1564 7.40928 40.083 7.40928 39.973 7.44596C39.863 7.48264 39.7162 7.51932 39.6062 7.556H39.5695H39.5328C39.4962 7.556 39.4962 7.556 39.4595 7.59268C39.4595 7.59268 39.4595 7.59268 39.4228 7.59268C39.3861 7.59268 39.3861 7.59268 39.3861 7.59268C39.3128 7.59268 39.2761 7.62936 39.2027 7.62936C39.166 7.62936 39.0927 7.66603 39.056 7.66603C39.056 7.66603 39.056 7.66603 39.0193 7.66603C38.9826 7.66603 38.9827 7.66603 38.946 7.70271C38.9093 7.70271 38.9093 7.70272 38.8726 7.7394C38.8359 7.7394 38.8359 7.7394 38.7992 7.77608C38.6892 7.81276 38.6159 7.84943 38.5058 7.88611C36.5985 8.6197 34.8012 9.75678 33.2606 11.2973C32.6738 11.8842 32.1236 12.5077 31.6834 13.168C31.6834 13.0213 31.6467 12.9112 31.6467 12.7645C31.6467 12.5811 31.6467 12.3977 31.6467 12.2143C31.6467 12.0676 31.6467 11.9576 31.6467 11.8108C31.6834 10.9672 31.7935 10.1602 31.9769 9.31661C31.9769 9.24325 32.0135 9.1699 32.0135 9.09655C32.527 7.07917 33.5907 5.17183 35.168 3.59461C36.4151 2.3475 37.8823 1.43051 39.4595 0.806955C40.8533 0.256762 42.3572 0 43.8244 0C46.8321 0 49.8031 1.10039 52.1506 3.33784C52.224 3.4112 52.334 3.48457 52.4074 3.59461C52.4807 3.66797 52.5908 3.778 52.6641 3.85136C54.9383 6.27221 56.0387 9.24325 56.0387 12.251Z" fill="#FFC005"></path><path d="M33.2973 22.8149C33.8842 23.4018 34.5077 23.952 35.168 24.3921C34.8378 24.4288 34.5444 24.4288 34.2143 24.4288C33.1506 24.4288 32.1236 24.2821 31.0965 24.0253C29.0792 23.5118 27.1718 22.4481 25.5946 20.8709C24.3475 19.6238 23.3938 18.1566 22.807 16.5794C22.2934 15.1855 22 13.7183 22 12.2512C22 9.24344 23.1004 6.23572 25.3378 3.88822C25.4112 3.81486 25.4846 3.70482 25.5946 3.63146C25.668 3.5581 25.778 3.44807 25.8514 3.37471C28.1989 1.17393 31.2066 0.0368652 34.2143 0.0368652C34.5444 0.0368652 34.8745 0.0368675 35.168 0.0735471L35.1313 0.110223C34.4711 0.587058 33.8842 1.10057 33.2973 1.68745C31.3533 3.63147 30.0695 5.94228 29.4093 8.39981C29.0792 9.64691 28.9324 10.9307 28.9324 12.2145C28.9324 14.0118 29.2626 15.8091 29.8861 17.4964C30.6197 19.4771 31.7568 21.2744 33.2973 22.8149Z" fill="#FF0C5D"></path><path d="M56.0386 21.9341C56.0386 24.9418 54.9382 27.9496 52.7008 30.297C52.6274 30.3704 52.554 30.4804 52.444 30.5538C52.3706 30.6272 52.2606 30.7372 52.1872 30.8106C49.8397 33.0113 46.832 34.1484 43.8243 34.1484C43.4942 34.1484 43.164 34.1484 42.8706 34.1117C43.5308 33.6349 44.1544 33.1214 44.7413 32.5345C46.6486 30.5905 47.9691 28.2797 48.6293 25.8221C48.7393 25.3453 48.8494 24.8685 48.9227 24.3916C48.9594 24.0615 49.0328 23.7681 49.0328 23.438C49.0695 22.9611 49.1061 22.4843 49.1061 22.0075C49.1061 20.2102 48.776 18.4129 48.1525 16.6889C47.7857 15.7352 47.3088 14.8183 46.7587 13.9379C46.2085 13.0576 45.5115 12.214 44.7413 11.4437C44.1544 10.8569 43.5308 10.3067 42.8706 9.8665C43.0173 9.8665 43.1274 9.82983 43.2741 9.82983C43.4575 9.82983 43.6409 9.82983 43.8243 9.82983C44.081 9.82983 44.3378 9.82983 44.5946 9.8665C45.3648 9.90318 46.1718 10.0499 46.9054 10.2333C48.9227 10.7468 50.8301 11.8105 52.4073 13.3877C53.6544 14.6349 54.5714 16.102 55.195 17.6793C55.7818 18.9631 56.0386 20.4302 56.0386 21.9341Z" fill="#221ECA"></path><path d="M5.27994 45.496V45.352V42.072C5.27994 41.96 5.26394 41.864 5.24794 41.752C5.19994 41.496 5.08794 41.4 4.83194 41.4C3.91994 41.4 3.03994 41.4 2.14394 41.464L1.91994 41.496C1.83994 41.512 1.77594 41.528 1.67994 41.512C1.50394 41.464 1.35994 41.576 1.34394 41.768V41.928V42.728L1.24794 45.064L1.19994 47.72C1.18394 48.136 1.18394 48.552 1.19994 48.984L1.31194 51.576L1.40794 52.68C1.43994 52.92 1.50394 53 1.75994 53C1.95194 53.016 2.15994 53 2.35194 53H3.10394C3.35994 53 3.61594 53.032 3.87194 53.016C4.20794 52.984 4.54394 52.952 4.87994 52.968C5.27994 52.984 5.34394 52.792 5.34394 52.488C5.32794 51.816 5.32794 51.144 5.32794 50.456L5.27994 48.776V48.584L5.37594 48.712L5.95194 49.576C6.06394 49.736 6.17594 49.912 6.27194 50.088C6.65594 50.728 7.02394 51.368 7.39194 52.024L7.91994 52.904C7.99994 53.032 8.11194 53.08 8.27194 53.048C8.35194 53.032 8.43194 53.016 8.51194 53.016L9.18394 52.984C9.35994 52.968 9.53594 52.952 9.72794 52.952L10.5439 53C10.5759 53 10.6079 53.016 10.6239 53.016C10.8639 53.128 11.1199 53.128 11.3759 53.128C11.4879 53.128 11.5839 53.08 11.6959 53.048C11.8079 53.016 11.8719 52.92 11.8879 52.776C11.8879 52.648 11.8559 52.536 11.7759 52.424C11.5199 51.96 11.2319 51.512 11.0239 51.016L10.6079 50.168L10.3039 49.512C9.91994 48.744 9.48794 48.024 8.84794 47.432L8.51194 47.048C8.52794 47.016 8.54394 46.984 8.54394 46.968L9.40794 45.512C9.69594 45 10.0799 44.536 10.3199 43.976L10.3839 43.864L10.6559 43.384L10.9919 42.808L11.3759 42.152C11.4079 42.12 11.4079 42.072 11.4239 42.04L11.4719 41.768C11.5199 41.608 11.4239 41.448 11.2639 41.448C11.0079 41.432 10.7359 41.416 10.4799 41.448C10.0959 41.512 9.69594 41.512 9.29594 41.48C8.86394 41.432 8.44794 41.448 8.01594 41.544C7.90394 41.56 7.83994 41.624 7.77594 41.72L6.94394 43.112C6.54394 43.768 6.09594 44.376 5.64794 45L5.31194 45.496H5.27994ZM13.9207 41.592C13.9207 42.152 13.9047 42.696 13.9047 43.24L13.8887 44.936L13.8247 46.232C13.7927 46.952 13.7767 47.672 13.7607 48.408C13.7607 48.696 13.7927 48.984 13.7927 49.272L13.8247 51.352C13.8407 51.864 13.8727 52.376 13.9047 52.888V53.016C13.9367 53.224 14.0327 53.288 14.2407 53.288C14.7687 53.272 15.8247 53.24 16.3687 53.256C16.7527 53.256 17.1367 53.192 17.5207 53.128L17.6967 53.064C17.7447 53.048 17.7767 53.016 17.7767 52.952C17.7927 52.84 17.8087 52.728 17.8087 52.6V51.48C17.8087 50.952 17.8087 50.408 17.7927 49.864L17.7287 47.592V45.416C17.7287 44.888 17.7767 44.36 17.8087 43.848C17.8407 43.064 17.8407 42.296 17.8407 41.528C17.8407 41.32 17.7447 41.224 17.5367 41.224C17.2167 41.224 16.8967 41.208 16.5927 41.208C16.0167 41.208 14.9127 41.208 14.3367 41.192C14.3047 41.192 14.2887 41.192 14.2727 41.208C14.0487 41.256 13.9207 41.368 13.9207 41.592ZM19.9189 45.736C19.9189 45.896 19.9349 46.056 19.9189 46.216C19.8709 47.016 19.8709 47.832 19.8549 48.648C19.8389 49.336 19.8709 50.024 19.9189 50.712L19.9669 51.416L20.0789 52.552L20.1269 52.904C20.1589 53.032 20.2229 53.112 20.3509 53.128C20.4309 53.144 20.5269 53.16 20.6069 53.16C20.9109 53.144 21.2149 53.112 21.5189 53.112C21.9189 53.096 22.3189 53.112 22.7189 53.112C22.8789 53.112 23.0549 53.128 23.2309 53.128C23.4069 53.112 23.6149 53.112 23.7589 52.968C23.7909 52.952 23.8229 52.936 23.8549 52.936L24.4149 52.872C24.6229 52.856 24.8149 52.808 24.9909 52.712C25.2469 52.6 25.5029 52.52 25.7589 52.456C25.8709 52.424 25.9669 52.392 26.0629 52.344C26.3669 52.184 26.6709 52.008 26.9749 51.832C27.0549 51.784 27.1189 51.72 27.1829 51.672L27.8069 51.192L28.0149 51C28.4309 50.552 28.7989 50.056 29.0549 49.496C29.2309 49.144 29.3909 48.792 29.5349 48.424C29.7109 47.992 29.8229 47.528 29.8549 47.064C29.9189 46.472 29.8709 45.88 29.8389 45.288C29.8229 45.128 29.7909 44.968 29.7429 44.808C29.6309 44.44 29.4869 44.088 29.3429 43.736C29.2469 43.512 29.1349 43.288 29.0069 43.08C28.8149 42.744 28.1269 42.088 27.7589 41.88C27.3109 41.608 26.8309 41.4 26.3349 41.256C26.0469 41.176 25.7589 41.16 25.4709 41.112C24.7829 41 24.1109 40.952 23.4229 40.968C23.2629 40.968 23.1029 40.968 22.9429 41.016C22.7829 41.048 22.6069 41.064 22.4309 41.064C22.1109 41.048 21.7749 41.064 21.4549 41.048C21.1029 41.048 20.7509 41.016 20.3989 41.032C20.0789 41.048 19.9669 41.128 19.9669 41.48C19.9829 42.072 19.9829 42.68 19.9669 43.288C19.9669 44.104 19.9349 44.92 19.9189 45.736ZM23.6949 48.344C23.6949 47.544 23.6629 46.728 23.5989 45.928L23.5829 44.952C23.5829 44.824 23.6629 44.744 23.8229 44.696C24.0629 44.664 24.3029 44.664 24.5269 44.696C24.6549 44.712 24.7669 44.744 24.8949 44.776C25.1029 44.824 25.2469 44.952 25.3429 45.112C25.4229 45.224 25.4869 45.352 25.5349 45.48C25.7749 45.992 25.9189 46.536 25.8869 47.112C25.8869 47.256 25.8549 47.4 25.8229 47.544C25.8069 47.64 25.7109 47.752 25.6149 47.816C25.2949 48.088 24.9109 48.248 24.5269 48.408C24.2709 48.504 23.9829 48.536 23.6949 48.568V48.344ZM36.3027 45.048L36.2547 45.128L34.7827 46.76C34.3667 47.192 33.9347 47.592 33.5187 48.008C33.0547 48.504 32.4947 48.92 31.9987 49.384C31.9347 49.432 31.8707 49.496 31.8707 49.592C31.8707 49.864 31.8387 50.152 31.8707 50.424C31.9187 50.696 31.9027 50.952 31.8707 51.224L31.7587 52.68C31.7587 52.744 31.7747 52.808 31.8067 52.856C31.9027 52.952 32.0147 53.032 32.1267 53.112C32.2227 53.16 32.3347 53.112 32.4307 53.112C32.7347 53.128 32.9587 53.08 33.2467 53.08L33.9667 53.048L35.3267 53C35.8387 52.984 36.3347 53 36.8307 52.968C37.2467 52.936 37.6467 52.936 38.0627 52.92C38.5267 52.888 39.0067 52.856 39.4707 52.792C39.7107 52.76 39.9507 52.744 40.1907 52.744C40.3667 52.744 40.5427 52.712 40.7027 52.68C40.8947 52.664 41.0707 52.632 41.2627 52.664C41.2947 52.68 41.3427 52.68 41.3907 52.68C41.6307 52.68 41.7267 52.584 41.7427 52.328C41.7587 52.008 41.7747 51.688 41.7747 51.352C41.7907 50.584 41.8067 49.816 41.6787 49.064C41.6627 49.016 41.6467 48.984 41.6467 48.936H41.0867C40.6547 48.952 40.2227 49 39.7747 49C39.3747 49 38.9907 49.048 38.5907 49.112C38.2867 49.176 37.9667 49.24 37.6627 49.288C37.5987 49.304 37.5187 49.304 37.4387 49.304C37.3747 49.304 37.3107 49.272 37.2787 49.192L37.4227 49C37.7587 48.6 38.0947 48.184 38.4147 47.768C38.5907 47.512 38.7667 47.272 38.9907 47.08C39.0547 47.032 39.0867 46.968 39.1347 46.92L39.6307 46.376C39.7587 46.232 39.8707 46.088 39.9827 45.944C40.0787 45.848 40.1587 45.736 40.2387 45.64C40.5587 45.272 40.8627 44.904 41.1827 44.552C41.2947 44.408 41.3907 44.28 41.3587 44.104V44.04C41.3747 43.96 41.3747 43.88 41.3107 43.8C41.2947 43.768 41.2787 43.704 41.2787 43.672L41.2307 42.936L41.1347 41.592C41.1187 41.384 41.0387 41.304 40.8307 41.304H40.1427L39.1027 41.272C38.7507 41.272 38.3987 41.24 38.0467 41.24C37.5667 41.24 37.1027 41.272 36.6387 41.304C36.1907 41.336 35.7587 41.368 35.3107 41.32C35.1667 41.304 35.0227 41.288 34.8787 41.288C34.5427 41.304 33.9347 41.368 33.5987 41.368C33.1987 41.384 32.7827 41.368 32.3827 41.368C32.2867 41.368 32.1907 41.384 32.0787 41.368C31.9027 41.368 31.8067 41.448 31.7907 41.624L31.7587 41.928C31.7587 42.392 31.7427 42.84 31.8067 43.304C31.8547 43.704 31.8867 44.104 31.8707 44.504C31.8547 44.648 31.8547 44.808 31.8547 44.968C31.8547 45.16 31.9667 45.288 32.1587 45.304C32.3187 45.304 32.4947 45.304 32.6547 45.272C32.9907 45.224 33.3107 45.192 33.6467 45.224C33.8067 45.24 34.2387 45.192 34.4147 45.176L35.1187 45.112L35.7907 45.064C35.8867 45.064 35.9667 45.096 36.0467 45.096C36.1267 45.096 36.2067 45.064 36.3027 45.048ZM55.1181 46.248C55.1181 46.088 55.1181 45.832 55.1021 45.576C55.1021 45.464 55.0701 45.336 55.0541 45.224C54.8941 44.488 54.7181 43.768 54.4141 43.08C54.1581 42.488 53.7581 42.024 53.2301 41.64C52.9101 41.4 52.5421 41.192 52.1581 41.048C51.6141 40.84 51.0541 40.664 50.4621 40.68C50.2061 40.696 49.9501 40.664 49.6781 40.664C49.4541 40.664 49.2141 40.664 48.9741 40.68C48.9101 40.68 48.8461 40.68 48.7981 40.664C48.5581 40.584 48.3341 40.6 48.1101 40.664C47.3421 40.856 46.6701 41.24 46.0461 41.736C45.5981 42.104 45.2461 42.568 44.8941 43.032C44.6061 43.432 44.3821 43.864 44.2381 44.344C44.1261 44.776 44.0141 45.224 43.8701 45.656C43.6301 46.392 43.5981 47.144 43.6461 47.896C43.6781 48.712 43.8861 49.512 44.2381 50.248C44.3821 50.536 44.5421 50.808 44.7821 51.032L45.3581 51.592C45.6141 51.816 45.8541 52.056 46.1581 52.216L47.4381 52.856C47.5341 52.888 47.6301 52.92 47.7261 52.936C48.2221 53.032 48.7021 53.128 49.1981 53.24C49.7101 53.336 50.2061 53.368 50.7181 53.256C51.3581 53.112 51.9661 52.888 52.4781 52.472C53.1341 51.928 53.6621 51.272 54.0941 50.536C54.4461 49.928 54.7021 49.272 54.8621 48.6C55.0381 47.864 55.1661 47.128 55.1181 46.248ZM51.0381 46.776C51.0381 46.92 51.0221 47.048 51.0221 47.176C50.9581 47.72 50.7181 48.152 50.2861 48.472C49.9821 48.68 49.6461 48.792 49.2621 48.6C49.0381 48.504 48.7981 48.424 48.6221 48.232C48.4461 48.008 48.3021 47.784 48.3341 47.48C48.3501 47.288 48.3501 47.096 48.3821 46.92C48.3981 46.792 48.4301 46.664 48.4941 46.552C48.6861 46.2 48.9581 45.896 49.3101 45.672C49.4221 45.608 49.5501 45.56 49.6941 45.576C49.7901 45.576 49.8861 45.544 49.9981 45.512C50.1421 45.48 50.3021 45.48 50.4461 45.56C50.6381 45.688 50.7821 45.848 50.9101 46.04C51.0061 46.184 51.0541 46.344 51.0381 46.52V46.776ZM63.5336 45.496C63.5176 45.512 63.5016 45.512 63.5016 45.512L63.4536 45.448C63.2456 45.08 63.0696 44.712 62.9096 44.328C62.7496 43.88 62.5736 43.448 62.3176 43.032C61.9976 42.52 61.6936 41.976 61.4856 41.4C61.4216 41.24 61.3256 41.192 61.1496 41.224C61.0696 41.24 61.0056 41.224 60.9416 41.176C60.8936 41.144 60.8296 41.128 60.7816 41.128C60.4936 41.128 60.2056 41.144 59.9176 41.16C59.7416 41.16 59.5656 41.192 59.3896 41.192C58.9096 41.176 58.4456 41.256 57.9816 41.336H57.8376C57.7256 41.336 57.5976 41.32 57.4856 41.32C57.3576 41.336 57.2296 41.464 57.2296 41.592C57.2136 41.64 57.2296 41.688 57.2136 41.72C57.1496 42.408 57.1336 43.096 57.2456 43.768C57.2616 43.8 57.2616 43.848 57.2616 43.88C57.2936 44.568 57.3256 45.272 57.3416 45.976C57.3736 47.096 57.3256 48.216 57.2936 49.336L57.2296 51.512L57.1976 52.216C57.1976 52.36 57.1816 52.424 57.1816 52.552C57.1656 52.792 57.1816 52.84 57.2136 52.904C57.2776 53.096 57.5496 53 57.7256 53H58.6696H59.0696C59.4056 53.032 59.7416 53.112 60.0936 53.08L60.5896 53.032C60.8296 53 60.9576 52.872 60.9736 52.632C60.9896 52.328 61.0056 52.024 61.0056 51.72C60.9896 50.776 61.0376 49.848 61.0696 48.904V48.76L61.1336 48.872C61.5816 49.832 62.1416 50.712 62.6536 51.64L63.2776 52.712C63.3416 52.84 63.4216 52.92 63.5656 52.904C64.0616 52.888 64.5576 52.856 65.0376 52.824C65.3096 52.808 65.5816 52.776 65.8536 52.792C66.0936 52.792 66.3496 52.776 66.5896 52.824C66.6536 52.84 66.7336 52.808 66.7976 52.792C66.8296 52.792 66.8776 52.776 66.9096 52.776C67.1336 52.792 67.2616 52.696 67.2776 52.456V52.04C67.1976 51.304 67.1816 50.584 67.1816 49.864C67.2136 48.024 67.1176 46.168 67.2456 44.328C67.3096 43.304 67.2296 42.28 67.1176 41.256C67.1016 41.08 66.9896 40.984 66.8296 40.984L65.9016 40.936C65.6616 40.936 65.4216 40.936 65.1816 40.92C64.8136 40.92 64.4456 40.984 64.0616 40.968C63.9656 40.952 63.8696 40.984 63.7896 41.064C63.5816 41.208 63.4536 41.4 63.4856 41.672V41.768C63.4856 42.232 63.5176 42.696 63.5176 43.176C63.5336 43.928 63.5336 44.68 63.5336 45.432V45.496ZM73.3807 49.032C73.6527 48.952 73.8927 48.856 74.1647 48.84C74.8687 48.776 75.5567 48.664 76.2287 48.552C76.4527 48.504 76.5327 48.424 76.5327 48.216C76.5327 47.544 76.5327 46.872 76.5167 46.2C76.5167 45.992 76.4207 45.912 76.2127 45.896C76.1167 45.896 76.0207 45.896 75.9247 45.88C75.7487 45.864 75.5567 45.832 75.3647 45.832L74.2447 45.864L73.5087 45.912C73.4607 45.928 73.4287 45.912 73.3967 45.912V44.616C73.8127 44.552 74.1967 44.488 74.5967 44.456C75.0767 44.424 75.5567 44.376 76.0207 44.296L76.4527 44.232C76.6447 44.216 76.7247 44.152 76.7567 43.96L76.7887 43.352C76.8527 42.76 76.8847 42.168 76.8687 41.576C76.8687 41.448 76.8847 41.304 76.9007 41.16C76.9167 40.984 76.8207 40.856 76.6287 40.856C76.4207 40.84 76.1967 40.84 75.9887 40.84C74.9007 40.856 73.7967 40.856 72.7087 40.856C72.0527 40.856 71.4127 40.872 70.7567 40.936C70.5807 40.952 69.8607 40.92 69.6687 41.016C69.5087 41.096 69.5887 41.384 69.5727 41.56C69.5727 41.768 69.5567 41.976 69.5407 42.184C69.5407 43.064 69.5247 43.944 69.5087 44.84C69.5087 45.368 69.5407 45.896 69.5407 46.424V48.104C69.5407 49.08 69.5407 50.056 69.5567 51.032C69.5567 51.576 69.5887 52.12 69.7007 52.664C69.7167 52.744 69.7007 52.824 69.6527 52.904C69.5727 53.08 69.6687 53.24 69.8447 53.272H69.9087C70.3247 53.304 70.7247 53.256 71.1247 53.192L71.4607 53.16C71.6367 53.16 71.8127 53.144 71.9727 53.144C72.1327 53.144 72.2607 53.128 72.4207 53.128C73.3007 53.128 74.1967 53.176 75.0927 53.128C75.4607 53.096 75.8287 53.112 76.1807 53.096C76.3887 53.096 76.4847 53.016 76.4847 52.792V52.12C76.4847 51.56 76.4847 50.984 76.5007 50.424C76.5007 50.296 76.5167 50.168 76.5167 50.04C76.5167 49.848 76.3887 49.736 76.2127 49.768C76.1647 49.768 76.1167 49.784 76.0687 49.8C75.9887 49.816 75.8767 49.816 75.7647 49.816H75.2527C74.6767 49.816 74.1167 49.88 73.5407 49.944C73.4927 49.944 73.4447 49.96 73.3807 49.96V49.032Z" fill="#404040"></path></svg>