<svg xmlns="http://www.w3.org/2000/svg" width="68" height="63" viewBox="0 0 68 63" fill="none"><path d="M8.38197 51.7827L5.29957 55.0903L5.89442 51.7827H1.96481L0 62.8081H3.92961L4.43434 59.9319L5.24549 59.1649L6.5794 62.8081H11.3021L8.34592 56.3047L13.0146 51.7827H8.38197Z" fill="#212121"></path><path d="M24.6459 56.1769C24.6459 53.2048 22.2845 51.6069 19.0579 51.6069C14.5875 51.6069 11.433 54.4512 11.433 58.4299C11.433 61.402 13.8124 62.9998 17.021 62.9998C21.5094 62.9998 24.6459 60.1556 24.6459 56.1769ZM20.6441 56.6722C20.6441 58.2382 19.4905 59.7881 17.5978 59.7881C16.2459 59.7881 15.4707 58.9572 15.4707 57.7907C15.4707 56.2248 16.6244 54.6749 18.5171 54.6749C19.869 54.6749 20.6441 55.5058 20.6441 56.6722Z" fill="#212121"></path><path d="M34.4631 51.7827C34.1026 53.812 33.67 55.8253 33.4537 57.8547L31.1103 51.7827H26.8382L24.8734 62.8081H28.7129C29.0734 60.7788 29.488 58.7655 29.7224 56.7361L32.2279 62.8081H36.3378L38.3026 51.7827H34.4631Z" fill="#212121"></path><path d="M40.1287 51.7827L38.1639 62.8081H42.1115L44.0763 51.7827H40.1287Z" fill="#212121"></path><path d="M52.2493 51.7827L49.1669 55.0903L49.7618 51.7827H45.8322L43.8674 62.8081H47.797L48.3017 59.9319L49.1129 59.1649L50.4468 62.8081H55.1695L52.2133 56.3047L56.882 51.7827H52.2493Z" fill="#212121"></path><path d="M65.019 51.7827H60.6568L54.528 62.8081H58.6379L59.377 61.2582H62.7478L62.928 62.8081H67.2182L65.019 51.7827ZM60.6929 58.4778L62.0628 55.6016L62.4233 58.4778H60.6929Z" fill="#212121"></path><path fill-rule="evenodd" clip-rule="evenodd" d="M32.2254 42.8132C42.6102 42.8132 51.2958 36.3949 51.2958 28.4663C51.2958 20.5378 42.7991 14.1194 32.2254 14.1194C21.8405 14.1194 13.155 20.5378 13.155 28.4663C13.155 36.3949 21.8405 42.8132 32.2254 42.8132Z" fill="#F48120"></path><path d="M26.7497 2.79297C28.449 4.49194 30.1484 6.3797 31.2813 8.45622C32.0365 9.96642 32.7918 11.2878 33.1694 12.798C33.5471 11.6654 33.9247 10.7215 34.4911 9.58888C35.2464 8.26746 36.1905 7.13476 37.3234 6.00211L37.8898 6.56847C36.7569 7.51235 36.0017 8.64497 35.2464 9.9664C34.4911 11.2878 33.9247 12.7981 33.5471 14.3083L33.1694 16.0072L32.7918 14.3083C32.4142 12.4205 31.6589 10.5327 30.7148 8.83374C29.5819 6.94599 28.0714 5.05825 26.3721 3.35927L26.7497 2.79297Z" fill="#F48120"></path><path fill-rule="evenodd" clip-rule="evenodd" d="M25.8057 4.49191C26.9386 4.49191 27.8827 3.54803 27.8827 2.41539C27.8827 1.28275 26.9386 0.338867 25.8057 0.338867C24.6728 0.338867 23.7288 1.28275 23.7288 2.41539C23.7288 3.54803 24.6728 4.49191 25.8057 4.49191Z" fill="#F48120"></path><path fill-rule="evenodd" clip-rule="evenodd" d="M38.6451 7.70094C39.778 7.70094 40.7221 6.75705 40.7221 5.6244C40.7221 4.49174 39.778 3.54785 38.6451 3.54785C37.5122 3.54785 36.5681 4.49174 36.5681 5.6244C36.5681 6.75705 37.5122 7.70094 38.6451 7.70094Z" fill="#F48120"></path><path fill-rule="evenodd" clip-rule="evenodd" d="M21.2742 45.2676H43.1768C40.911 43.5686 36.757 42.436 32.2255 42.436C27.6939 42.2472 23.54 43.3799 21.2742 45.2676Z" fill="#F48120"></path><path fill-rule="evenodd" clip-rule="evenodd" d="M23.9174 19.7829C32.2253 19.2166 32.2253 19.2166 40.5332 19.7829C42.0437 20.1604 43.3654 21.6706 43.743 23.3696C44.1207 28.089 44.1207 28.089 43.743 32.9972C43.5542 34.6961 42.0437 36.2063 40.5332 36.5839C32.2253 37.1502 32.2253 37.1502 23.9174 36.5839C22.4069 36.2063 21.0852 34.6961 20.7075 32.9972C20.3299 28.2778 20.3299 28.2778 20.7075 23.3696C21.0852 21.6706 22.4069 20.1604 23.9174 19.7829Z" fill="white"></path><path fill-rule="evenodd" clip-rule="evenodd" d="M47.3305 28.6551C48.4634 28.6551 49.2187 27.7113 49.2187 26.7674C49.2187 25.6347 48.2746 24.8796 47.3305 24.8796C46.1976 24.8796 45.4424 25.8235 45.4424 26.7674C45.4424 27.7113 46.1976 28.6551 47.3305 28.6551Z" fill="white"></path><path fill-rule="evenodd" clip-rule="evenodd" d="M47.3306 32.2419C47.8971 32.2419 48.4635 31.6756 48.4635 31.1092C48.4635 30.5429 47.8971 29.9766 47.3306 29.9766C46.7642 29.9766 46.1978 30.5429 46.1978 31.1092C46.1978 31.6756 46.7642 32.2419 47.3306 32.2419Z" fill="white"></path><path fill-rule="evenodd" clip-rule="evenodd" d="M20.7075 32.9974C20.8963 34.6964 22.4069 36.2066 23.9174 36.5841C32.2253 37.1504 32.2253 37.1504 40.5332 36.5841C42.0437 36.2066 43.3654 34.6964 43.743 32.9974C44.1207 28.278 44.1207 28.278 43.743 23.3698C43.5542 21.6709 42.0437 20.1607 40.5332 19.7831C32.2253 19.028 32.2253 19.028 23.9174 19.7831C22.4069 20.1607 21.0852 21.6709 20.7075 23.3698C20.5187 28.0892 20.5187 28.0892 20.7075 32.9974Z" fill="#FFCA05"></path></svg>