<svg xmlns="http://www.w3.org/2000/svg" width="92" height="40" viewBox="0 0 92 40" fill="none"><rect x="2.5" y="2.5" width="86.7241" height="35" fill="#232323" stroke="#FFAA21" stroke-width="5"></rect><path d="M39.3137 14.6H37.3137V25.15H39.0637V28H32.5387V25.15H33.9637V18.95H33.8637L29.5887 26.675H28.1887L23.5887 18.65H23.4887V25.15H25.0387V28H18.6137V25.15H20.3637V14.6H18.3637V11.75H23.1637L28.9387 21.825H29.0387L34.4637 11.75H39.3137V14.6ZM55.0234 28H42.8234V25.15H44.5734V14.6H42.8234V11.75H50.1984V14.6H47.9234V25.15H52.1734L52.6734 22L55.5234 22.25L55.0234 28ZM72.1389 17.05C72.1389 18.9 71.5305 20.2833 70.3139 21.2C69.1139 22.1 67.7139 22.55 66.1139 22.55H63.6139V25.15H66.1139V28H58.5139V25.15H60.2639V14.6H58.5139V11.75H65.9639C67.9805 11.75 69.5139 12.225 70.5639 13.175C71.6139 14.125 72.1389 15.4167 72.1389 17.05ZM68.5389 17.1C68.5389 16.3 68.3139 15.6833 67.8639 15.25C67.4305 14.8167 66.6555 14.6 65.5389 14.6H63.6139V19.725H65.4889C66.6389 19.725 67.4305 19.4833 67.8639 19C68.3139 18.5167 68.5389 17.8833 68.5389 17.1Z" fill="#FEFEFE"></path></svg>