<svg xmlns="http://www.w3.org/2000/svg" width="65" height="45" viewBox="0 0 65 45" fill="none"><path d="M0 0.57H9.576C12.692 0.57 15.029 1.406 16.587 3.078C18.145 4.75 18.924 7.201 18.924 10.431V30.609C18.924 33.839 18.145 36.29 16.587 37.962C15.029 39.634 12.692 40.47 9.576 40.47H0V0.57ZM9.462 34.77C10.488 34.77 11.267 34.466 11.799 33.858C12.369 33.25 12.654 32.262 12.654 30.894V10.146C12.654 8.778 12.369 7.79 11.799 7.182C11.267 6.574 10.488 6.27 9.462 6.27H6.27V34.77H9.462Z" fill="black"></path><path d="M32.2192 41.04C29.1413 41.04 26.7853 40.166 25.1513 38.418C23.5173 36.67 22.7003 34.2 22.7003 31.008V10.032C22.7003 6.84 23.5173 4.37 25.1513 2.622C26.7853 0.874001 29.1413 0 32.2192 0C35.2972 0 37.6532 0.874001 39.2872 2.622C40.9212 4.37 41.7383 6.84 41.7383 10.032V31.008C41.7383 34.2 40.9212 36.67 39.2872 38.418C37.6532 40.166 35.2972 41.04 32.2192 41.04ZM32.2192 35.34C34.3853 35.34 35.4682 34.029 35.4682 31.407V9.633C35.4682 7.011 34.3853 5.7 32.2192 5.7C30.0532 5.7 28.9703 7.011 28.9703 9.633V31.407C28.9703 34.029 30.0532 35.34 32.2192 35.34Z" fill="black"></path><path d="M54.8705 41.04C51.8305 41.04 49.5125 40.185 47.9165 38.475C46.3205 36.727 45.5225 34.238 45.5225 31.008V10.032C45.5225 6.802 46.3205 4.332 47.9165 2.622C49.5125 0.874001 51.8305 0 54.8705 0C57.9105 0 60.2285 0.874001 61.8245 2.622C63.4205 4.332 64.2185 6.802 64.2185 10.032V13.452H58.2905V9.633C58.2905 7.011 57.2075 5.7 55.0415 5.7C52.8755 5.7 51.7925 7.011 51.7925 9.633V31.464C51.7925 34.048 52.8755 35.34 55.0415 35.34C57.2075 35.34 58.2905 34.048 58.2905 31.464V23.655H55.1555V17.955H64.2185V31.008C64.2185 34.238 63.4205 36.727 61.8245 38.475C60.2285 40.185 57.9105 41.04 54.8705 41.04Z" fill="black"></path><path d="M32.7296 25.6988L32.0933 25.1739L31.4569 25.6988L12.3637 41.4488L10.2162 43.2202H13H51.1865H53.9703L51.8229 41.4488L32.7296 25.6988Z" fill="#52DA78" stroke="#E6F0F9" stroke-width="2"></path></svg>