<svg xmlns="http://www.w3.org/2000/svg" width="75" height="49" viewBox="0 0 75 49" fill="none"><path d="M5.005 48.16C4.15167 48.16 3.357 48 2.621 47.68C1.885 47.3493 1.28767 46.8907 0.829002 46.304C0.690335 46.1227 0.621002 45.936 0.621002 45.744C0.621002 45.488 0.743669 45.2533 0.989002 45.04C1.15967 44.9013 1.357 44.832 1.581 44.832C1.901 44.832 2.18367 44.992 2.429 45.312C2.69567 45.6747 3.053 45.9573 3.501 46.16C3.95967 46.3627 4.461 46.464 5.005 46.464C5.65567 46.464 6.13567 46.2827 6.445 45.92C6.75434 45.5573 6.909 45.0027 6.909 44.256V37.6C6.909 37.3013 7.005 37.0667 7.197 36.896C7.389 36.7253 7.645 36.64 7.965 36.64C8.285 36.64 8.541 36.7307 8.733 36.912C8.93567 37.0827 9.037 37.312 9.037 37.6V44.192C9.037 44.992 8.87167 45.6907 8.541 46.288C8.21034 46.8853 7.741 47.3493 7.133 47.68C6.525 48 5.81567 48.16 5.005 48.16ZM13.9416 48C13.131 48 12.5016 47.7867 12.0536 47.36C11.6056 46.9333 11.3816 46.336 11.3816 45.568V39.168C11.3816 38.4213 11.595 37.84 12.0216 37.424C12.459 37.008 13.0616 36.8 13.8296 36.8H18.8056C19.1256 36.8 19.371 36.8747 19.5416 37.024C19.7123 37.1627 19.7976 37.3653 19.7976 37.632C19.7976 37.888 19.707 38.0907 19.5256 38.24C19.355 38.3787 19.115 38.448 18.8056 38.448H14.1976C13.9843 38.448 13.8136 38.5173 13.6856 38.656C13.5683 38.7947 13.5096 38.9867 13.5096 39.232V41.456H17.5896C17.9096 41.456 18.155 41.5307 18.3256 41.68C18.4963 41.8187 18.5816 42.0213 18.5816 42.288C18.5816 42.544 18.491 42.7467 18.3096 42.896C18.139 43.0347 17.899 43.104 17.5896 43.104H13.5096V45.568C13.5096 45.8133 13.5683 46.0053 13.6856 46.144C13.8136 46.2827 13.9843 46.352 14.1976 46.352H19.1576C19.4776 46.352 19.723 46.4267 19.8936 46.576C20.0643 46.7147 20.1496 46.9173 20.1496 47.184C20.1496 47.44 20.059 47.6427 19.8776 47.792C19.707 47.9307 19.467 48 19.1576 48H13.9416ZM23.4039 48.16C23.0839 48.16 22.8279 48.0747 22.6359 47.904C22.4439 47.7333 22.3479 47.4987 22.3479 47.2V41.168C22.3479 39.7493 22.7905 38.64 23.6759 37.84C24.5612 37.04 25.7879 36.64 27.3559 36.64C28.9239 36.64 30.1505 37.04 31.0359 37.84C31.9212 38.64 32.3639 39.7493 32.3639 41.168V47.2C32.3639 47.4987 32.2679 47.7333 32.0759 47.904C31.8839 48.0747 31.6279 48.16 31.3079 48.16C30.9879 48.16 30.7265 48.0747 30.5239 47.904C30.3319 47.7227 30.2359 47.488 30.2359 47.2V41.12C30.2359 40.2133 29.9905 39.52 29.4999 39.04C29.0092 38.56 28.2945 38.32 27.3559 38.32C26.4172 38.32 25.7025 38.56 25.2119 39.04C24.7212 39.52 24.4759 40.2133 24.4759 41.12V47.2C24.4759 47.488 24.3745 47.7227 24.1719 47.904C23.9799 48.0747 23.7239 48.16 23.4039 48.16ZM43.3325 48.16C42.6605 48.16 42.2818 47.9253 42.1965 47.456C41.9938 46.3147 41.5938 45.3653 40.9965 44.608C40.4098 43.8507 39.5512 43.1787 38.4205 42.592L36.8365 43.904V47.2C36.8365 47.488 36.7352 47.7227 36.5325 47.904C36.3405 48.0747 36.0845 48.16 35.7645 48.16C35.4445 48.16 35.1885 48.0747 34.9965 47.904C34.8045 47.7333 34.7085 47.4987 34.7085 47.2V37.6C34.7085 37.3013 34.8045 37.0667 34.9965 36.896C35.1885 36.7253 35.4445 36.64 35.7645 36.64C36.0845 36.64 36.3405 36.7307 36.5325 36.912C36.7352 37.0827 36.8365 37.312 36.8365 37.6V41.584L42.1805 36.928C42.3725 36.7467 42.5965 36.656 42.8525 36.656C43.1085 36.656 43.3325 36.7573 43.5245 36.96C43.7272 37.184 43.8285 37.392 43.8285 37.584C43.8285 37.808 43.7005 38.032 43.4445 38.256L39.7645 41.456C41.0445 42.0107 42.0632 42.7947 42.8205 43.808C43.5885 44.8107 44.0472 45.92 44.1965 47.136C44.2285 47.4133 44.1592 47.6533 43.9885 47.856C43.8178 48.0587 43.5992 48.16 43.3325 48.16ZM48.0095 48.16C47.6895 48.16 47.4335 48.0747 47.2415 47.904C47.0495 47.7333 46.9535 47.4987 46.9535 47.2V37.6C46.9535 37.3013 47.0495 37.0667 47.2415 36.896C47.4335 36.7253 47.6895 36.64 48.0095 36.64C48.3188 36.64 48.5748 36.7253 48.7775 36.896C48.9802 37.0667 49.0815 37.3013 49.0815 37.6V47.2C49.0815 47.4987 48.9802 47.7333 48.7775 47.904C48.5748 48.0747 48.3188 48.16 48.0095 48.16ZM52.9645 48.16C52.6445 48.16 52.3885 48.0747 52.1965 47.904C52.0045 47.7333 51.9085 47.4987 51.9085 47.2V41.168C51.9085 39.7493 52.3512 38.64 53.2365 37.84C54.1218 37.04 55.3485 36.64 56.9165 36.64C58.4845 36.64 59.7112 37.04 60.5965 37.84C61.4818 38.64 61.9245 39.7493 61.9245 41.168V47.2C61.9245 47.4987 61.8285 47.7333 61.6365 47.904C61.4445 48.0747 61.1885 48.16 60.8685 48.16C60.5485 48.16 60.2872 48.0747 60.0845 47.904C59.8925 47.7227 59.7965 47.488 59.7965 47.2V41.12C59.7965 40.2133 59.5512 39.52 59.0605 39.04C58.5698 38.56 57.8552 38.32 56.9165 38.32C55.9778 38.32 55.2632 38.56 54.7725 39.04C54.2818 39.52 54.0365 40.2133 54.0365 41.12V47.2C54.0365 47.488 53.9352 47.7227 53.7325 47.904C53.5405 48.0747 53.2845 48.16 52.9645 48.16ZM69.6771 48.16C68.6318 48.16 67.6505 47.9893 66.7331 47.648C65.8158 47.296 65.0211 46.7947 64.3491 46.144C64.1891 45.984 64.1091 45.8027 64.1091 45.6C64.1091 45.3653 64.2158 45.1413 64.4291 44.928C64.5998 44.7573 64.7865 44.672 64.9891 44.672C65.2025 44.672 65.4585 44.7947 65.7571 45.04C66.2585 45.4987 66.8505 45.856 67.5331 46.112C68.2265 46.3573 68.9411 46.48 69.6771 46.48C70.3811 46.48 70.9305 46.3627 71.3251 46.128C71.7198 45.8827 71.9171 45.5413 71.9171 45.104C71.9171 44.6453 71.7038 44.2773 71.2771 44C70.8505 43.712 70.1251 43.456 69.1011 43.232C67.4905 42.88 66.3171 42.416 65.5811 41.84C64.8558 41.264 64.4931 40.5227 64.4931 39.616C64.4931 39.04 64.6851 38.528 65.0691 38.08C65.4531 37.6213 65.9865 37.2693 66.6691 37.024C67.3625 36.768 68.1518 36.64 69.0371 36.64C70.0291 36.64 70.9091 36.8053 71.6771 37.136C72.4558 37.456 73.0478 37.9093 73.4531 38.496C73.5918 38.72 73.6611 38.912 73.6611 39.072C73.6505 39.3387 73.5171 39.568 73.2611 39.76C73.1225 39.856 72.9625 39.904 72.7811 39.904C72.4505 39.904 72.1785 39.776 71.9651 39.52C71.6558 39.1467 71.2398 38.8533 70.7171 38.64C70.2051 38.4267 69.6451 38.32 69.0371 38.32C68.2798 38.32 67.6878 38.4373 67.2611 38.672C66.8451 38.896 66.6371 39.2107 66.6371 39.616C66.6371 40.0213 66.8398 40.3573 67.2451 40.624C67.6611 40.88 68.3758 41.1253 69.3891 41.36C70.5091 41.6267 71.4105 41.9307 72.0931 42.272C72.7758 42.6027 73.2718 42.9973 73.5811 43.456C73.9011 43.9147 74.0611 44.464 74.0611 45.104C74.0611 45.712 73.8798 46.2507 73.5171 46.72C73.1545 47.1787 72.6425 47.536 71.9811 47.792C71.3198 48.0373 70.5518 48.16 69.6771 48.16Z" fill="#464545"></path><path d="M2.621 47.68L2.41608 48.1361L2.42164 48.1385L2.621 47.68ZM0.829002 46.304L0.4318 46.6077L0.435098 46.612L0.829002 46.304ZM0.989002 45.04L0.673705 44.6519L0.667219 44.6572L0.660913 44.6627L0.989002 45.04ZM2.429 45.312L2.83191 45.0157L2.82581 45.0078L2.429 45.312ZM3.501 46.16L3.29491 46.6156L3.29892 46.6173L3.501 46.16ZM6.445 45.92L6.06459 45.5955L6.445 45.92ZM7.197 36.896L7.52918 37.2697L7.52918 37.2697L7.197 36.896ZM8.733 36.912L8.38969 37.2755L8.40004 37.2853L8.41094 37.2945L8.733 36.912ZM8.541 46.288L8.10356 46.0458L8.541 46.288ZM7.133 47.68L7.3659 48.1225L7.37189 48.1192L7.133 47.68ZM5.005 47.66C4.21585 47.66 3.48954 47.5124 2.82036 47.2215L2.42164 48.1385C3.22447 48.4876 4.08748 48.66 5.005 48.66V47.66ZM2.82591 47.2239C2.15767 46.9237 1.62743 46.5135 1.22291 45.996L0.435098 46.612C0.947906 47.2679 1.61233 47.775 2.41609 48.1361L2.82591 47.2239ZM1.22618 46.0003C1.14118 45.8891 1.121 45.8065 1.121 45.744H0.121002C0.121002 46.0655 0.239494 46.3562 0.431823 46.6077L1.22618 46.0003ZM1.121 45.744C1.121 45.67 1.14927 45.5632 1.31709 45.4173L0.660913 44.6627C0.338064 44.9434 0.121002 45.306 0.121002 45.744H1.121ZM1.3043 45.4281C1.38405 45.3633 1.46951 45.332 1.581 45.332V44.332C1.2445 44.332 0.93529 44.4394 0.673705 44.6519L1.3043 45.4281ZM1.581 45.332C1.70577 45.332 1.85437 45.3843 2.0322 45.6162L2.82581 45.0078C2.51296 44.5997 2.09624 44.332 1.581 44.332V45.332ZM2.02618 45.6082C2.34828 46.0462 2.77616 46.3809 3.29492 46.6156L3.70709 45.7044C3.32984 45.5338 3.04306 45.3031 2.83183 45.0158L2.02618 45.6082ZM3.29892 46.6173C3.82649 46.8505 4.39738 46.964 5.005 46.964V45.964C4.52462 45.964 4.09285 45.8749 3.70308 45.7027L3.29892 46.6173ZM5.005 46.964C5.74588 46.964 6.38985 46.7551 6.82542 46.2445L6.06459 45.5955C5.88149 45.8102 5.56546 45.964 5.005 45.964V46.964ZM6.82542 46.2445C7.2452 45.7523 7.409 45.0577 7.409 44.256H6.409C6.409 44.9477 6.26347 45.3623 6.06459 45.5955L6.82542 46.2445ZM7.409 44.256V37.6H6.409V44.256H7.409ZM7.409 37.6C7.409 37.4186 7.46167 37.3297 7.52918 37.2697L6.86482 36.5223C6.54833 36.8036 6.409 37.1841 6.409 37.6H7.409ZM7.52918 37.2697C7.60872 37.199 7.7362 37.14 7.965 37.14V36.14C7.55381 36.14 7.16929 36.2517 6.86482 36.5223L7.52918 37.2697ZM7.965 37.14C8.18592 37.14 8.30939 37.1997 8.38969 37.2755L9.07631 36.5485C8.77261 36.2617 8.38408 36.14 7.965 36.14V37.14ZM8.41094 37.2945C8.49011 37.3611 8.537 37.4449 8.537 37.6H9.537C9.537 37.1791 9.38123 36.8042 9.05507 36.5295L8.41094 37.2945ZM8.537 37.6V44.192H9.537V37.6H8.537ZM8.537 44.192C8.537 44.9219 8.38665 45.5344 8.10356 46.0458L8.97845 46.5302C9.35669 45.8469 9.537 45.0621 9.537 44.192H8.537ZM8.10356 46.0458C7.81964 46.5587 7.41974 46.9549 6.89412 47.2408L7.37189 48.1192C8.06227 47.7438 8.60103 47.2119 8.97845 46.5302L8.10356 46.0458ZM6.90013 47.2375C6.37581 47.5135 5.7491 47.66 5.005 47.66V48.66C5.88224 48.66 6.67419 48.4865 7.36588 48.1225L6.90013 47.2375ZM12.0536 47.36L12.3985 46.9979V46.9979L12.0536 47.36ZM12.0216 37.424L11.677 37.0617L11.6726 37.066L12.0216 37.424ZM19.5416 37.024L19.2124 37.4003L19.2192 37.4063L19.2263 37.4121L19.5416 37.024ZM19.5256 38.24L19.8409 38.6281L19.8435 38.626L19.5256 38.24ZM13.6856 38.656L13.3182 38.3169L13.3109 38.3248L13.3039 38.333L13.6856 38.656ZM13.5096 41.456H13.0096V41.956H13.5096V41.456ZM18.3256 41.68L17.9964 42.0563L18.0032 42.0623L18.0103 42.0681L18.3256 41.68ZM18.3096 42.896L18.6249 43.2841L18.6275 43.282L18.3096 42.896ZM13.5096 43.104V42.604H13.0096V43.104H13.5096ZM13.6856 46.144L13.3039 46.467L13.3109 46.4752L13.3182 46.4831L13.6856 46.144ZM19.8936 46.576L19.5644 46.9523L19.5712 46.9583L19.5783 46.9641L19.8936 46.576ZM19.8776 47.792L20.1929 48.1801L20.1955 48.178L19.8776 47.792ZM13.9416 47.5C13.2182 47.5 12.7275 47.3113 12.3985 46.9979L11.7088 47.7221C12.2758 48.2621 13.0437 48.5 13.9416 48.5V47.5ZM12.3985 46.9979C12.0725 46.6875 11.8816 46.2344 11.8816 45.568H10.8816C10.8816 46.4376 11.1388 47.1792 11.7088 47.7221L12.3985 46.9979ZM11.8816 45.568V39.168H10.8816V45.568H11.8816ZM11.8816 39.168C11.8816 38.52 12.0637 38.0813 12.3707 37.782L11.6726 37.066C11.1263 37.5987 10.8816 38.3227 10.8816 39.168H11.8816ZM12.3662 37.7863C12.6872 37.481 13.1535 37.3 13.8296 37.3V36.3C12.9698 36.3 12.2307 36.535 11.677 37.0617L12.3662 37.7863ZM13.8296 37.3H18.8056V36.3H13.8296V37.3ZM18.8056 37.3C19.0539 37.3 19.1642 37.3581 19.2124 37.4003L19.8709 36.6477C19.5777 36.3912 19.1973 36.3 18.8056 36.3V37.3ZM19.2263 37.4121C19.2552 37.4355 19.2976 37.4805 19.2976 37.632H20.2976C20.2976 37.2501 20.1694 36.8898 19.8569 36.6359L19.2263 37.4121ZM19.2976 37.632C19.2976 37.7539 19.2625 37.809 19.2078 37.854L19.8435 38.626C20.1514 38.3724 20.2976 38.0221 20.2976 37.632H19.2976ZM19.2103 37.8519C19.1589 37.8937 19.0461 37.948 18.8056 37.948V38.948C19.1839 38.948 19.551 38.8636 19.8409 38.6281L19.2103 37.8519ZM18.8056 37.948H14.1976V38.948H18.8056V37.948ZM14.1976 37.948C13.8648 37.948 13.5537 38.0618 13.3182 38.3169L14.053 38.9951C14.0735 38.9729 14.1037 38.948 14.1976 38.948V37.948ZM13.3039 38.333C13.0871 38.5893 13.0096 38.91 13.0096 39.232H14.0096C14.0096 39.0633 14.0495 39 14.0673 38.979L13.3039 38.333ZM13.0096 39.232V41.456H14.0096V39.232H13.0096ZM13.5096 41.956H17.5896V40.956H13.5096V41.956ZM17.5896 41.956C17.8379 41.956 17.9482 42.0141 17.9964 42.0563L18.6549 41.3037C18.3617 41.0472 17.9813 40.956 17.5896 40.956V41.956ZM18.0103 42.0681C18.0392 42.0915 18.0816 42.1365 18.0816 42.288H19.0816C19.0816 41.9061 18.9534 41.5458 18.6409 41.2919L18.0103 42.0681ZM18.0816 42.288C18.0816 42.4099 18.0465 42.465 17.9918 42.51L18.6275 43.282C18.9354 43.0284 19.0816 42.6781 19.0816 42.288H18.0816ZM17.9943 42.5079C17.9429 42.5497 17.8301 42.604 17.5896 42.604V43.604C17.9679 43.604 18.335 43.5196 18.6249 43.2841L17.9943 42.5079ZM17.5896 42.604H13.5096V43.604H17.5896V42.604ZM13.0096 43.104V45.568H14.0096V43.104H13.0096ZM13.0096 45.568C13.0096 45.89 13.0871 46.2107 13.3039 46.467L14.0673 45.821C14.0495 45.8 14.0096 45.7367 14.0096 45.568H13.0096ZM13.3182 46.4831C13.5537 46.7382 13.8648 46.852 14.1976 46.852V45.852C14.1037 45.852 14.0736 45.8271 14.053 45.8049L13.3182 46.4831ZM14.1976 46.852H19.1576V45.852H14.1976V46.852ZM19.1576 46.852C19.4059 46.852 19.5162 46.9101 19.5644 46.9523L20.2229 46.1997C19.9297 45.9432 19.5493 45.852 19.1576 45.852V46.852ZM19.5783 46.9641C19.6072 46.9875 19.6496 47.0325 19.6496 47.184H20.6496C20.6496 46.8021 20.5214 46.4418 20.2089 46.1879L19.5783 46.9641ZM19.6496 47.184C19.6496 47.3059 19.6145 47.361 19.5598 47.406L20.1955 48.178C20.5034 47.9244 20.6496 47.5741 20.6496 47.184H19.6496ZM19.5623 47.4039C19.5109 47.4457 19.3981 47.5 19.1576 47.5V48.5C19.5359 48.5 19.903 48.4156 20.1929 48.1801L19.5623 47.4039ZM19.1576 47.5H13.9416V48.5H19.1576V47.5ZM22.6359 47.904L22.9681 47.5303L22.6359 47.904ZM23.6759 37.84L23.3407 37.469V37.469L23.6759 37.84ZM31.0359 37.84L31.3711 37.469V37.469L31.0359 37.84ZM32.0759 47.904L32.4081 48.2777L32.0759 47.904ZM30.5239 47.904L30.1806 48.2675L30.1909 48.2773L30.2018 48.2865L30.5239 47.904ZM29.4999 39.04L29.1502 39.3974V39.3974L29.4999 39.04ZM25.2119 39.04L25.5615 39.3974L25.2119 39.04ZM24.1719 47.904L24.5041 48.2777L24.5053 48.2766L24.1719 47.904ZM23.4039 47.66C23.1751 47.66 23.0476 47.601 22.9681 47.5303L22.3037 48.2777C22.6082 48.5483 22.9927 48.66 23.4039 48.66V47.66ZM22.9681 47.5303C22.9005 47.4703 22.8479 47.3814 22.8479 47.2H21.8479C21.8479 47.6159 21.9872 47.9964 22.3037 48.2777L22.9681 47.5303ZM22.8479 47.2V41.168H21.8479V47.2H22.8479ZM22.8479 41.168C22.8479 39.8616 23.2505 38.8983 24.0111 38.211L23.3407 37.469C22.3306 38.3817 21.8479 39.6371 21.8479 41.168H22.8479ZM24.0111 38.211C24.7788 37.5173 25.872 37.14 27.3559 37.14V36.14C25.7038 36.14 24.3437 36.5627 23.3407 37.469L24.0111 38.211ZM27.3559 37.14C28.8398 37.14 29.933 37.5173 30.7007 38.211L31.3711 37.469C30.3681 36.5627 29.008 36.14 27.3559 36.14V37.14ZM30.7007 38.211C31.4612 38.8983 31.8639 39.8616 31.8639 41.168H32.8639C32.8639 39.6371 32.3812 38.3817 31.3711 37.469L30.7007 38.211ZM31.8639 41.168V47.2H32.8639V41.168H31.8639ZM31.8639 47.2C31.8639 47.3814 31.8112 47.4703 31.7437 47.5303L32.4081 48.2777C32.7245 47.9964 32.8639 47.6159 32.8639 47.2H31.8639ZM31.7437 47.5303C31.6642 47.601 31.5367 47.66 31.3079 47.66V48.66C31.7191 48.66 32.1036 48.5483 32.4081 48.2777L31.7437 47.5303ZM31.3079 47.66C31.0802 47.66 30.9407 47.6013 30.8459 47.5215L30.2018 48.2865C30.5124 48.548 30.8955 48.66 31.3079 48.66V47.66ZM30.8672 47.5405C30.7848 47.4627 30.7359 47.3643 30.7359 47.2H29.7359C29.7359 47.6117 29.8789 47.9826 30.1806 48.2675L30.8672 47.5405ZM30.7359 47.2V41.12H29.7359V47.2H30.7359ZM30.7359 41.12C30.7359 40.1237 30.4643 39.284 29.8495 38.6826L29.1502 39.3974C29.5168 39.756 29.7359 40.303 29.7359 41.12H30.7359ZM29.8495 38.6826C29.2354 38.0818 28.3762 37.82 27.3559 37.82V38.82C28.2129 38.82 28.783 39.0382 29.1502 39.3974L29.8495 38.6826ZM27.3559 37.82C26.3355 37.82 25.4763 38.0818 24.8622 38.6826L25.5615 39.3974C25.9288 39.0382 26.4989 38.82 27.3559 38.82V37.82ZM24.8622 38.6826C24.2475 39.284 23.9759 40.1237 23.9759 41.12H24.9759C24.9759 40.303 25.195 39.756 25.5615 39.3974L24.8622 38.6826ZM23.9759 41.12V47.2H24.9759V41.12H23.9759ZM23.9759 47.2C23.9759 47.3552 23.9283 47.451 23.8385 47.5314L24.5053 48.2766C24.8208 47.9943 24.9759 47.6208 24.9759 47.2H23.9759ZM23.8397 47.5303C23.7602 47.601 23.6327 47.66 23.4039 47.66V48.66C23.8151 48.66 24.1996 48.5483 24.5041 48.2777L23.8397 47.5303ZM42.1965 47.456L41.7042 47.5434L41.7046 47.5454L42.1965 47.456ZM40.9965 44.608L40.6012 44.9142L40.6039 44.9176L40.9965 44.608ZM38.4205 42.592L38.6508 42.1482L38.3567 41.9956L38.1016 42.2069L38.4205 42.592ZM36.8365 43.904L36.5176 43.5189L36.3365 43.6689V43.904H36.8365ZM36.5325 47.904L36.8647 48.2777L36.8659 48.2766L36.5325 47.904ZM34.9965 47.904L34.6643 48.2777L34.9965 47.904ZM34.9965 36.896L35.3287 37.2697V37.2697L34.9965 36.896ZM36.5325 36.912L36.1892 37.2755L36.1995 37.2853L36.2104 37.2945L36.5325 36.912ZM36.8365 41.584H36.3365V42.6828L37.165 41.961L36.8365 41.584ZM42.1805 36.928L42.509 37.305L42.5165 37.2984L42.5238 37.2915L42.1805 36.928ZM43.5245 36.96L43.8954 36.6245L43.8875 36.6161L43.5245 36.96ZM43.4445 38.256L43.7726 38.6333L43.7738 38.6323L43.4445 38.256ZM39.7645 41.456L39.4364 41.0787L38.8377 41.5993L39.5657 41.9148L39.7645 41.456ZM42.8205 43.808L42.42 44.1073L42.4236 44.112L42.8205 43.808ZM44.1965 47.136L44.6932 47.0787L44.6928 47.0751L44.1965 47.136ZM43.9885 47.856L44.371 48.1781V48.1781L43.9885 47.856ZM43.3325 47.66C43.0456 47.66 42.8876 47.6084 42.8079 47.559C42.748 47.5219 42.7078 47.4732 42.6884 47.3666L41.7046 47.5454C41.7705 47.9082 41.9623 48.2114 42.2811 48.409C42.5801 48.5943 42.9474 48.66 43.3325 48.66V47.66ZM42.6888 47.3686C42.4746 46.1624 42.0468 45.1323 41.3891 44.2984L40.6039 44.9176C41.1409 45.5984 41.5131 46.467 41.7042 47.5434L42.6888 47.3686ZM41.3918 44.3018C40.7486 43.4716 39.8256 42.7578 38.6508 42.1482L38.1902 43.0358C39.2768 43.5996 40.071 44.2298 40.6012 44.9142L41.3918 44.3018ZM38.1016 42.2069L36.5176 43.5189L37.1554 44.2891L38.7394 42.9771L38.1016 42.2069ZM36.3365 43.904V47.2H37.3365V43.904H36.3365ZM36.3365 47.2C36.3365 47.3552 36.2889 47.451 36.1991 47.5314L36.8659 48.2766C37.1814 47.9943 37.3365 47.6208 37.3365 47.2H36.3365ZM36.2003 47.5303C36.1208 47.601 35.9933 47.66 35.7645 47.66V48.66C36.1757 48.66 36.5602 48.5483 36.8647 48.2777L36.2003 47.5303ZM35.7645 47.66C35.5357 47.66 35.4082 47.601 35.3287 47.5303L34.6643 48.2777C34.9688 48.5483 35.3533 48.66 35.7645 48.66V47.66ZM35.3287 47.5303C35.2612 47.4703 35.2085 47.3814 35.2085 47.2H34.2085C34.2085 47.6159 34.3478 47.9964 34.6643 48.2777L35.3287 47.5303ZM35.2085 47.2V37.6H34.2085V47.2H35.2085ZM35.2085 37.6C35.2085 37.4186 35.2612 37.3297 35.3287 37.2697L34.6643 36.5223C34.3478 36.8036 34.2085 37.1841 34.2085 37.6H35.2085ZM35.3287 37.2697C35.4082 37.199 35.5357 37.14 35.7645 37.14V36.14C35.3533 36.14 34.9688 36.2517 34.6643 36.5223L35.3287 37.2697ZM35.7645 37.14C35.9854 37.14 36.1089 37.1997 36.1892 37.2755L36.8758 36.5485C36.5721 36.2617 36.1836 36.14 35.7645 36.14V37.14ZM36.2104 37.2945C36.2896 37.3611 36.3365 37.4449 36.3365 37.6H37.3365C37.3365 37.1791 37.1807 36.8042 36.8546 36.5295L36.2104 37.2945ZM36.3365 37.6V41.584H37.3365V37.6H36.3365ZM37.165 41.961L42.509 37.305L41.852 36.551L36.508 41.207L37.165 41.961ZM42.5238 37.2915C42.6263 37.1948 42.7286 37.156 42.8525 37.156V36.156C42.4644 36.156 42.1188 36.2986 41.8372 36.5645L42.5238 37.2915ZM42.8525 37.156C42.958 37.156 43.0545 37.1909 43.1615 37.3039L43.8875 36.6161C43.6105 36.3238 43.259 36.156 42.8525 36.156V37.156ZM43.1537 37.2955C43.3188 37.4779 43.3285 37.5703 43.3285 37.584H44.3285C44.3285 37.2137 44.1356 36.8901 43.8953 36.6245L43.1537 37.2955ZM43.3285 37.584C43.3285 37.6027 43.3193 37.7012 43.1152 37.8797L43.7738 38.6323C44.0817 38.3628 44.3285 38.0133 44.3285 37.584H43.3285ZM43.1164 37.8787L39.4364 41.0787L40.0926 41.8333L43.7726 38.6333L43.1164 37.8787ZM39.5657 41.9148C40.7741 42.4384 41.7201 43.1708 42.42 44.1073L43.221 43.5087C42.4062 42.4185 41.3149 41.5829 39.9633 40.9972L39.5657 41.9148ZM42.4236 44.112C43.1391 45.0463 43.5621 46.0722 43.7002 47.1969L44.6928 47.0751C44.5322 45.7678 44.0379 44.5751 43.2174 43.504L42.4236 44.112ZM43.6998 47.1933C43.717 47.3421 43.6828 47.4428 43.606 47.5339L44.371 48.1781C44.6355 47.8639 44.74 47.4846 44.6932 47.0787L43.6998 47.1933ZM43.606 47.5339C43.5311 47.6229 43.4528 47.66 43.3325 47.66V48.66C43.7456 48.66 44.1046 48.4944 44.371 48.1781L43.606 47.5339ZM47.2415 47.904L46.9093 48.2777L47.2415 47.904ZM47.2415 36.896L47.5737 37.2697V37.2697L47.2415 36.896ZM48.7775 36.896L48.4554 37.2785V37.2785L48.7775 36.896ZM48.7775 47.904L48.4554 47.5215L48.7775 47.904ZM48.0095 47.66C47.7807 47.66 47.6532 47.601 47.5737 47.5303L46.9093 48.2777C47.2138 48.5483 47.5983 48.66 48.0095 48.66V47.66ZM47.5737 47.5303C47.5062 47.4703 47.4535 47.3814 47.4535 47.2H46.4535C46.4535 47.6159 46.5928 47.9964 46.9093 48.2777L47.5737 47.5303ZM47.4535 47.2V37.6H46.4535V47.2H47.4535ZM47.4535 37.6C47.4535 37.4186 47.5062 37.3297 47.5737 37.2697L46.9093 36.5223C46.5928 36.8036 46.4535 37.1841 46.4535 37.6H47.4535ZM47.5737 37.2697C47.6532 37.199 47.7807 37.14 48.0095 37.14V36.14C47.5983 36.14 47.2138 36.2517 46.9093 36.5223L47.5737 37.2697ZM48.0095 37.14C48.2218 37.14 48.3576 37.1961 48.4554 37.2785L49.0996 36.5135C48.792 36.2546 48.4159 36.14 48.0095 36.14V37.14ZM48.4554 37.2785C48.5301 37.3413 48.5815 37.4278 48.5815 37.6H49.5815C49.5815 37.1749 49.4302 36.792 49.0996 36.5135L48.4554 37.2785ZM48.5815 37.6V47.2H49.5815V37.6H48.5815ZM48.5815 47.2C48.5815 47.3722 48.5301 47.4587 48.4554 47.5215L49.0996 48.2865C49.4302 48.008 49.5815 47.6251 49.5815 47.2H48.5815ZM48.4554 47.5215C48.3576 47.6039 48.2218 47.66 48.0095 47.66V48.66C48.4159 48.66 48.792 48.5454 49.0996 48.2865L48.4554 47.5215ZM52.1965 47.904L52.5287 47.5303H52.5287L52.1965 47.904ZM53.2365 37.84L52.9013 37.469V37.469L53.2365 37.84ZM60.5965 37.84L60.9317 37.469V37.469L60.5965 37.84ZM61.6365 47.904L61.9687 48.2777L61.6365 47.904ZM60.0845 47.904L59.7412 48.2675L59.7515 48.2773L59.7624 48.2865L60.0845 47.904ZM59.0605 39.04L58.7109 39.3974V39.3974L59.0605 39.04ZM54.7725 39.04L55.1222 39.3974L54.7725 39.04ZM53.7325 47.904L54.0647 48.2777L54.0659 48.2766L53.7325 47.904ZM52.9645 47.66C52.7357 47.66 52.6082 47.601 52.5287 47.5303L51.8643 48.2777C52.1688 48.5483 52.5533 48.66 52.9645 48.66V47.66ZM52.5287 47.5303C52.4612 47.4703 52.4085 47.3814 52.4085 47.2H51.4085C51.4085 47.6159 51.5478 47.9964 51.8643 48.2777L52.5287 47.5303ZM52.4085 47.2V41.168H51.4085V47.2H52.4085ZM52.4085 41.168C52.4085 39.8616 52.8111 38.8983 53.5717 38.211L52.9013 37.469C51.8912 38.3817 51.4085 39.6371 51.4085 41.168H52.4085ZM53.5717 38.211C54.3394 37.5173 55.4326 37.14 56.9165 37.14V36.14C55.2644 36.14 53.9043 36.5627 52.9013 37.469L53.5717 38.211ZM56.9165 37.14C58.4004 37.14 59.4936 37.5173 60.2613 38.211L60.9317 37.469C59.9287 36.5627 58.5686 36.14 56.9165 36.14V37.14ZM60.2613 38.211C61.0219 38.8983 61.4245 39.8616 61.4245 41.168H62.4245C62.4245 39.6371 61.9418 38.3817 60.9317 37.469L60.2613 38.211ZM61.4245 41.168V47.2H62.4245V41.168H61.4245ZM61.4245 47.2C61.4245 47.3814 61.3718 47.4703 61.3043 47.5303L61.9687 48.2777C62.2852 47.9964 62.4245 47.6159 62.4245 47.2H61.4245ZM61.3043 47.5303C61.2248 47.601 61.0973 47.66 60.8685 47.66V48.66C61.2797 48.66 61.6642 48.5483 61.9687 48.2777L61.3043 47.5303ZM60.8685 47.66C60.6409 47.66 60.5013 47.6013 60.4066 47.5215L59.7624 48.2865C60.073 48.548 60.4562 48.66 60.8685 48.66V47.66ZM60.4278 47.5405C60.3455 47.4627 60.2965 47.3643 60.2965 47.2H59.2965C59.2965 47.6117 59.4395 47.9826 59.7412 48.2675L60.4278 47.5405ZM60.2965 47.2V41.12H59.2965V47.2H60.2965ZM60.2965 41.12C60.2965 40.1237 60.0249 39.284 59.4101 38.6826L58.7109 39.3974C59.0774 39.756 59.2965 40.303 59.2965 41.12H60.2965ZM59.4101 38.6826C58.7961 38.0818 57.9369 37.82 56.9165 37.82V38.82C57.7735 38.82 58.3436 39.0382 58.7109 39.3974L59.4101 38.6826ZM56.9165 37.82C55.8961 37.82 55.0369 38.0818 54.4229 38.6826L55.1222 39.3974C55.4894 39.0382 56.0595 38.82 56.9165 38.82V37.82ZM54.4229 38.6826C53.8081 39.284 53.5365 40.1237 53.5365 41.12H54.5365C54.5365 40.303 54.7556 39.756 55.1222 39.3974L54.4229 38.6826ZM53.5365 41.12V47.2H54.5365V41.12H53.5365ZM53.5365 47.2C53.5365 47.3552 53.4889 47.451 53.3991 47.5314L54.0659 48.2766C54.3815 47.9943 54.5365 47.6208 54.5365 47.2H53.5365ZM53.4003 47.5303C53.3208 47.601 53.1933 47.66 52.9645 47.66V48.66C53.3757 48.66 53.7602 48.5483 54.0647 48.2777L53.4003 47.5303ZM66.7331 47.648L66.554 48.1148L66.5588 48.1166L66.7331 47.648ZM64.3491 46.144L63.9955 46.4976L64.0013 46.5032L64.3491 46.144ZM65.7571 45.04L66.0946 44.6711L66.0848 44.6621L66.0745 44.6536L65.7571 45.04ZM67.5331 46.112L67.3575 46.5802L67.3663 46.5834L67.5331 46.112ZM71.3251 46.128L71.5807 46.5579L71.5891 46.5526L71.3251 46.128ZM71.2771 44L70.9973 44.4145L71.0046 44.4192L71.2771 44ZM69.1011 43.232L69.208 42.7435L69.2079 42.7435L69.1011 43.232ZM65.5811 41.84L65.2702 42.2316L65.273 42.2338L65.5811 41.84ZM65.0691 38.08L65.4488 38.4054L65.4525 38.401L65.0691 38.08ZM66.6691 37.024L66.8382 37.4946L66.8423 37.493L66.6691 37.024ZM71.6771 37.136L71.4794 37.5953L71.4871 37.5985L71.6771 37.136ZM73.4531 38.496L73.8783 38.2328L73.8716 38.2221L73.8645 38.2118L73.4531 38.496ZM73.6611 39.072L74.1607 39.092L74.1611 39.082V39.072H73.6611ZM73.2611 39.76L73.5457 40.1711L73.5535 40.1657L73.5611 40.16L73.2611 39.76ZM71.9651 39.52L71.5801 39.839L71.581 39.8401L71.9651 39.52ZM70.7171 38.64L70.5248 39.1016L70.5282 39.1029L70.7171 38.64ZM67.2611 38.672L67.4982 39.1123L67.5021 39.1101L67.2611 38.672ZM67.2451 40.624L66.9703 41.0417L66.9766 41.0459L66.9831 41.0498L67.2451 40.624ZM69.3891 41.36L69.5049 40.8736L69.5019 40.8729L69.3891 41.36ZM72.0931 42.272L71.8695 42.7192L71.8752 42.722L72.0931 42.272ZM73.5811 43.456L73.1665 43.7356L73.1711 43.7421L73.5811 43.456ZM73.5171 46.72L73.9094 47.0301L73.9128 47.0257L73.5171 46.72ZM71.9811 47.792L72.155 48.2608L72.1616 48.2583L71.9811 47.792ZM69.6771 47.66C68.6872 47.66 67.7653 47.4986 66.9075 47.1794L66.5588 48.1166C67.5356 48.4801 68.5763 48.66 69.6771 48.66V47.66ZM66.9123 47.1812C66.0546 46.8521 65.3181 46.3862 64.6969 45.7848L64.0013 46.5032C64.7242 47.2031 65.577 47.7399 66.554 48.1148L66.9123 47.1812ZM64.7027 45.7904C64.6245 45.7123 64.6091 45.6541 64.6091 45.6H63.6091C63.6091 45.9513 63.7538 46.2557 63.9956 46.4976L64.7027 45.7904ZM64.6091 45.6C64.6091 45.5329 64.6351 45.4291 64.7827 45.2816L64.0756 44.5744C63.7965 44.8535 63.6091 45.1978 63.6091 45.6H64.6091ZM64.7827 45.2816C64.8788 45.1854 64.944 45.172 64.9891 45.172V44.172C64.629 44.172 64.3208 44.3292 64.0756 44.5744L64.7827 45.2816ZM64.9891 45.172C65.0244 45.172 65.1662 45.2016 65.4398 45.4264L66.0745 44.6536C65.7507 44.3877 65.3805 44.172 64.9891 44.172V45.172ZM65.4196 45.4089C65.9715 45.9138 66.6195 46.3034 67.3576 46.5802L67.7087 45.6438C67.0814 45.4086 66.5455 45.0836 66.0946 44.6711L65.4196 45.4089ZM67.3663 46.5834C68.1133 46.8477 68.8844 46.98 69.6771 46.98V45.98C68.9979 45.98 68.3396 45.867 67.6999 45.6406L67.3663 46.5834ZM69.6771 46.98C70.4269 46.98 71.078 46.8567 71.5807 46.5578L71.0696 45.6982C70.7829 45.8687 70.3353 45.98 69.6771 45.98V46.98ZM71.5891 46.5526C72.1195 46.223 72.4171 45.7268 72.4171 45.104H71.4171C71.4171 45.3558 71.3201 45.5424 71.0612 45.7034L71.5891 46.5526ZM72.4171 45.104C72.4171 44.4553 72.0998 43.9384 71.5496 43.5808L71.0046 44.4192C71.3078 44.6163 71.4171 44.8354 71.4171 45.104H72.4171ZM71.5569 43.5856C71.0473 43.2416 70.2432 42.97 69.208 42.7435L68.9943 43.7204C70.0071 43.942 70.6536 44.1824 70.9974 44.4144L71.5569 43.5856ZM69.2079 42.7435C67.6227 42.3971 66.5369 41.9531 65.8893 41.4462L65.273 42.2338C66.0974 42.8789 67.3582 43.3629 68.9944 43.7205L69.2079 42.7435ZM65.8921 41.4484C65.2832 40.9649 64.9931 40.3664 64.9931 39.616H63.9931C63.9931 40.679 64.4284 41.5631 65.2702 42.2316L65.8921 41.4484ZM64.9931 39.616C64.9931 39.1625 65.1404 38.7652 65.4488 38.4054L64.6895 37.7546C64.2299 38.2908 63.9931 38.9175 63.9931 39.616H64.9931ZM65.4525 38.401C65.7686 38.0234 66.2213 37.7163 66.8382 37.4945L66.5 36.5535C65.7517 36.8224 65.1376 37.2193 64.6857 37.759L65.4525 38.401ZM66.8423 37.493C67.4704 37.2611 68.1995 37.14 69.0371 37.14V36.14C68.1041 36.14 67.2545 36.2749 66.4959 36.555L66.8423 37.493ZM69.0371 37.14C69.9736 37.14 70.7844 37.296 71.4794 37.5952L71.8749 36.6768C71.0339 36.3147 70.0847 36.14 69.0371 36.14V37.14ZM71.4871 37.5985C72.1927 37.8885 72.7007 38.2866 73.0418 38.7802L73.8645 38.2118C73.3949 37.5321 72.7189 37.0235 71.8672 36.6735L71.4871 37.5985ZM73.028 38.7592C73.1461 38.95 73.1611 39.0472 73.1611 39.072H74.1611C74.1611 38.7768 74.0375 38.49 73.8783 38.2328L73.028 38.7592ZM73.1615 39.052C73.1581 39.1382 73.1234 39.2383 72.9611 39.36L73.5611 40.16C73.9109 39.8977 74.1428 39.5392 74.1607 39.092L73.1615 39.052ZM72.9765 39.3489C72.9279 39.3826 72.8688 39.404 72.7811 39.404V40.404C73.0561 40.404 73.3171 40.3294 73.5457 40.1711L72.9765 39.3489ZM72.7811 39.404C72.6002 39.404 72.4684 39.3429 72.3492 39.1999L71.581 39.8401C71.8885 40.2091 72.3007 40.404 72.7811 40.404V39.404ZM72.3501 39.201C71.9803 38.7546 71.4924 38.4164 70.9061 38.1771L70.5282 39.1029C70.9872 39.2903 71.3313 39.5387 71.5801 39.839L72.3501 39.201ZM70.9094 38.1785C70.3309 37.9374 69.7048 37.82 69.0371 37.82V38.82C69.5855 38.82 70.0794 38.9159 70.5248 39.1015L70.9094 38.1785ZM69.0371 37.82C68.2381 37.82 67.5506 37.9421 67.0202 38.2339L67.5021 39.1101C67.825 38.9325 68.3215 38.82 69.0371 38.82V37.82ZM67.0241 38.2318C66.4785 38.5255 66.1371 38.9926 66.1371 39.616H67.1371C67.1371 39.4287 67.2117 39.2665 67.4982 39.1122L67.0241 38.2318ZM66.1371 39.616C66.1371 40.2245 66.4563 40.7036 66.9703 41.0417L67.5199 40.2063C67.2232 40.0111 67.1371 39.8181 67.1371 39.616H66.1371ZM66.9831 41.0498C67.473 41.3513 68.256 41.6108 69.2763 41.8471L69.5019 40.8729C68.4956 40.6398 67.8493 40.4087 67.5072 40.1982L66.9831 41.0498ZM69.2733 41.8464C70.3728 42.1082 71.2338 42.4013 71.8695 42.7192L72.3167 41.8248C71.5871 41.46 70.6454 41.1451 69.5049 40.8736L69.2733 41.8464ZM71.8752 42.722C72.5066 43.0279 72.9216 43.3723 73.1666 43.7356L73.9957 43.1764C73.622 42.6224 73.0449 42.1775 72.3111 41.822L71.8752 42.722ZM73.1711 43.7421C73.4243 44.1051 73.5611 44.551 73.5611 45.104H74.5611C74.5611 44.377 74.3779 43.7242 73.9912 43.1699L73.1711 43.7421ZM73.5611 45.104C73.5611 45.6043 73.4147 46.0348 73.1215 46.4143L73.9128 47.0257C74.3449 46.4665 74.5611 45.8197 74.5611 45.104H73.5611ZM73.1249 46.4099C72.8283 46.785 72.3964 47.0951 71.8006 47.3257L72.1616 48.2583C72.8885 47.9769 73.4806 47.5723 73.9093 47.0301L73.1249 46.4099ZM71.8072 47.3232C71.2131 47.5436 70.5062 47.66 69.6771 47.66V48.66C70.5974 48.66 71.4265 48.531 72.155 48.2608L71.8072 47.3232Z" fill="#464545"></path><path fill-rule="evenodd" clip-rule="evenodd" d="M52.492 10.5032C54.9645 12.0251 57.9124 12.6909 59.9094 9.83745C58.1026 11.5971 55.012 10.2179 52.6346 8.45827C50.5901 6.93642 49.0686 4.98657 47.2142 3.32205C44.3614 0.801493 40.938 -1.24349 37.99 0.896605C40.6051 -0.102105 43.5531 2.08555 46.0731 4.51099C48.1652 6.55597 49.9244 8.9814 52.492 10.5032Z" fill="#00ADEE"></path><path fill-rule="evenodd" clip-rule="evenodd" d="M63 15.4969C56.0105 22.7257 48.0225 11.5021 43.03 6.93656C36.1356 0.658961 27.4344 -2.38473 23.7733 8.22061C28.005 1.99056 35.3749 4.9867 41.3659 10.4558C46.4535 15.0689 54.5841 25.5791 63 15.4969Z" fill="#FF0000"></path><path fill-rule="evenodd" clip-rule="evenodd" d="M21.3009 15.497C18.8284 13.9752 15.8804 13.3094 13.8834 16.1629C15.6903 14.4032 18.7808 15.7824 21.1582 17.542C23.2028 19.0639 24.7243 21.0137 26.5786 22.6783C29.4315 25.1988 32.8549 27.2438 35.8029 25.1037C33.1877 26.1024 30.2398 23.9148 27.7198 21.4893C25.6277 19.4443 23.8684 17.0189 21.3009 15.497Z" fill="#00ADEE"></path><path fill-rule="evenodd" clip-rule="evenodd" d="M10.7928 10.5032C17.7823 3.27441 25.7703 14.498 30.7628 19.0636C37.6572 25.3412 46.3584 28.3849 50.0195 17.7795C45.7878 24.0571 38.4179 21.0134 32.4269 15.5443C27.3394 10.9312 19.2087 0.42095 10.7928 10.5032Z" fill="#FF0000"></path></svg>