<svg xmlns="http://www.w3.org/2000/svg" width="61" height="40" viewBox="0 0 61 40" fill="none"><path d="M19.5581 19.81H11.1931V0.35H5.55811V24.5H19.5581V19.81Z" fill="#FE0000"></path><path d="M35.0215 0.35H16.8915V4.83H23.1215V24.5H28.7915V4.83H35.0215V0.35Z" fill="#FE0000"></path><path d="M57.8921 10.745H47.2871V15.05H52.3621V18.62C52.3621 18.62 51.2421 20.16 47.3221 20.16C43.4021 20.16 40.3221 17.325 40.3221 12.425C40.3221 7.525 43.3321 4.69 47.2171 4.69C50.5071 4.69 52.3971 6.335 53.4121 7.455L57.1571 4.2C56.3871 3.36 53.6221 0 47.2171 0C40.4621 0 34.5821 4.375 34.5821 12.425C34.5821 20.475 40.4621 24.885 47.1471 24.885C53.7971 24.885 56.6671 21.84 57.8921 20.755V10.745Z" fill="#FE0000"></path><path d="M6.35955 31.2199H0.143555V32.7559H2.27955V39.4999H4.22356V32.7559H6.35955V31.2199Z" fill="#FE0000"></path><path d="M11.98 36.0799C12.592 35.8879 13.6 35.2759 13.6 33.7039C13.6 32.8759 13.24 32.2159 12.688 31.8079C12.148 31.4119 11.428 31.2199 10.504 31.2199H7.52796V39.4999H9.47196V36.3319H10.084L11.824 39.4999H14.08L11.98 36.0799ZM11.644 33.7759C11.644 34.2079 11.476 34.4359 11.224 34.6159C10.984 34.7959 10.672 34.8439 10.228 34.8439H9.45996V32.7199H10.228C10.672 32.7199 10.984 32.7559 11.224 32.9359C11.476 33.1159 11.644 33.3559 11.644 33.7759Z" fill="#FE0000"></path><path d="M19.4153 31.2079H17.3993L14.2793 39.4999H16.2953L16.8833 37.8319H19.8353L20.4233 39.4999H22.5353L19.4153 31.2079ZM17.3273 36.3199L18.3593 33.3439L19.3913 36.3199H17.3273Z" fill="#FE0000"></path><path d="M29.6291 37.0039C29.1731 37.4719 28.4291 37.8799 27.3971 37.8799C26.0411 37.8799 24.9131 36.9559 24.9131 35.3359C24.9131 33.7159 25.9931 32.7799 27.3971 32.7799C28.4891 32.7799 29.3771 33.4399 29.5331 33.6439L30.1331 32.0359C29.9171 31.8079 28.9931 31.0999 27.2891 31.0999C24.8771 31.0999 22.9451 32.6959 22.9451 35.3719C22.9451 38.0359 24.8531 39.6439 27.2891 39.6439C28.9811 39.6439 29.8571 38.9479 30.2771 38.5159L29.6291 37.0039Z" fill="#FE0000"></path><path d="M37.0378 31.2199H30.8218V32.7559H32.9578V39.4999H34.9018V32.7559H37.0378V31.2199Z" fill="#FE0000"></path><path d="M46.0312 35.3719C46.0312 32.6959 44.0992 31.0879 41.6392 31.0879C39.1792 31.0879 37.2472 32.6959 37.2472 35.3719C37.2472 38.0479 39.1792 39.6439 41.6392 39.6439C44.0992 39.6439 46.0312 38.0479 46.0312 35.3719ZM44.0632 35.3239C44.0632 36.9079 43.0192 37.9159 41.6392 37.9159C40.2592 37.9159 39.2152 36.9079 39.2152 35.3239C39.2152 33.7399 40.2592 32.7439 41.6392 32.7439C43.0192 32.7439 44.0632 33.7519 44.0632 35.3239Z" fill="#FE0000"></path><path d="M51.9362 36.0799C52.5482 35.8879 53.5562 35.2759 53.5562 33.7039C53.5562 32.8759 53.1962 32.2159 52.6442 31.8079C52.1042 31.4119 51.3842 31.2199 50.4602 31.2199H47.4842V39.4999H49.4282V36.3319H50.0402L51.7802 39.4999H54.0362L51.9362 36.0799ZM51.6002 33.7759C51.6002 34.2079 51.4322 34.4359 51.1802 34.6159C50.9402 34.7959 50.6282 34.8439 50.1842 34.8439H49.4162V32.7199H50.1842C50.6282 32.7199 50.9402 32.7559 51.1802 32.9359C51.4322 33.1159 51.6002 33.3559 51.6002 33.7759Z" fill="#FE0000"></path><path d="M60.6315 36.9799C60.6315 36.2359 60.3315 35.7319 59.9835 35.3839C59.6115 35.0119 59.0595 34.7959 58.8315 34.7119C58.5675 34.6039 57.9555 34.3879 57.5955 34.2439C57.2235 34.0999 56.7555 33.9079 56.7555 33.4039C56.7555 32.8999 57.2115 32.6599 57.8355 32.6599C58.4595 32.6599 59.2035 33.0199 59.6835 33.4999L60.5115 32.1439C59.9475 31.5799 58.8435 31.1239 57.8835 31.1239C56.9235 31.1239 56.1675 31.3879 55.6995 31.7839C55.2195 32.1799 54.8355 32.8039 54.8355 33.5959C54.8355 34.3759 55.1235 34.8559 55.4835 35.1919C55.8435 35.5399 56.2635 35.6959 56.4675 35.7919C56.7435 35.9119 57.3675 36.1279 57.7275 36.2599C58.0875 36.3919 58.6995 36.6079 58.6995 37.1719C58.6995 37.7239 58.2195 38.0239 57.5955 38.0239C56.9595 38.0239 56.0355 37.6039 55.4355 36.9799L54.4755 38.3959C55.1475 39.0199 56.2155 39.6439 57.4155 39.6439C58.3035 39.6439 59.0715 39.4279 59.6595 38.9599C60.2595 38.4919 60.6315 37.7719 60.6315 36.9799Z" fill="#FE0000"></path></svg>