<svg xmlns="http://www.w3.org/2000/svg" width="70" height="61" viewBox="0 0 70 61" fill="none"><path d="M2.618 60.04C2.12333 60.04 1.67533 59.9327 1.274 59.718C0.877333 59.4987 0.564667 59.1977 0.336 58.815C0.112 58.4323 0 58.0007 0 57.52C0 57.0393 0.114333 56.6077 0.343 56.225C0.571667 55.8423 0.884333 55.5437 1.281 55.329C1.68233 55.1097 2.13033 55 2.625 55C3.02633 55 3.39267 55.07 3.724 55.21C4.05533 55.35 4.33533 55.553 4.564 55.819L3.976 56.372C3.62133 55.9893 3.185 55.798 2.667 55.798C2.331 55.798 2.03 55.8727 1.764 56.022C1.498 56.1667 1.29033 56.3697 1.141 56.631C0.991667 56.8923 0.917 57.1887 0.917 57.52C0.917 57.8513 0.991667 58.1477 1.141 58.409C1.29033 58.6703 1.498 58.8757 1.764 59.025C2.03 59.1697 2.331 59.242 2.667 59.242C3.185 59.242 3.62133 59.0483 3.976 58.661L4.564 59.221C4.33533 59.487 4.053 59.69 3.717 59.83C3.38567 59.97 3.01933 60.04 2.618 60.04Z" fill="#222222"></path><path d="M8.64194 59.97L7.64094 58.535C7.59894 58.5397 7.53594 58.542 7.45194 58.542H6.34594V59.97H5.43594V55.07H7.45194C7.8766 55.07 8.24527 55.14 8.55794 55.28C8.87527 55.42 9.11794 55.6207 9.28594 55.882C9.45394 56.1433 9.53794 56.4537 9.53794 56.813C9.53794 57.1817 9.44694 57.499 9.26494 57.765C9.08761 58.031 8.83094 58.2293 8.49494 58.36L9.62194 59.97H8.64194ZM8.62094 56.813C8.62094 56.5003 8.51827 56.26 8.31294 56.092C8.1076 55.924 7.8066 55.84 7.40994 55.84H6.34594V57.793H7.40994C7.8066 57.793 8.1076 57.709 8.31294 57.541C8.51827 57.3683 8.62094 57.1257 8.62094 56.813Z" fill="#222222"></path><path d="M14.2311 59.207V59.97H10.5561V55.07H14.1331V55.833H11.4661V57.107H13.8321V57.856H11.4661V59.207H14.2311Z" fill="#222222"></path><path d="M18.4235 58.836H15.9735L15.4905 59.97H14.5525L16.7575 55.07H17.6535L19.8655 59.97H18.9135L18.4235 58.836ZM18.1225 58.122L17.1985 55.98L16.2815 58.122H18.1225Z" fill="#222222"></path><path d="M20.4887 55.07H21.3987V59.97H20.4887V55.07Z" fill="#222222"></path><path d="M26.07 57.464H26.931V59.417C26.679 59.6177 26.385 59.7717 26.049 59.879C25.713 59.9863 25.3677 60.04 25.013 60.04C24.5137 60.04 24.0634 59.9327 23.662 59.718C23.2607 59.4987 22.9457 59.1977 22.717 58.815C22.4884 58.4323 22.374 58.0007 22.374 57.52C22.374 57.0393 22.4884 56.6077 22.717 56.225C22.9457 55.8423 23.2607 55.5437 23.662 55.329C24.068 55.1097 24.523 55 25.027 55C25.4377 55 25.811 55.0677 26.147 55.203C26.483 55.3383 26.7654 55.5367 26.994 55.798L26.42 56.358C26.0467 55.9847 25.5964 55.798 25.069 55.798C24.7237 55.798 24.4157 55.8703 24.145 56.015C23.879 56.1597 23.669 56.3627 23.515 56.624C23.3657 56.8853 23.291 57.184 23.291 57.52C23.291 57.8467 23.3657 58.1407 23.515 58.402C23.669 58.6633 23.879 58.8687 24.145 59.018C24.4157 59.1673 24.7214 59.242 25.062 59.242C25.4447 59.242 25.7807 59.158 26.07 58.99V57.464Z" fill="#222222"></path><path d="M30.9758 55.833V57.324H33.3418V58.094H30.9758V59.97H30.0658V55.07H33.6428V55.833H30.9758Z" fill="#222222"></path><path d="M38.1979 59.207V59.97H34.5229V55.07H38.0999V55.833H35.4329V57.107H37.7989V57.856H35.4329V59.207H38.1979Z" fill="#222222"></path><path d="M42.4183 59.97L41.4173 58.535C41.3753 58.5397 41.3123 58.542 41.2283 58.542H40.1223V59.97H39.2123V55.07H41.2283C41.653 55.07 42.0216 55.14 42.3343 55.28C42.6516 55.42 42.8943 55.6207 43.0623 55.882C43.2303 56.1433 43.3143 56.4537 43.3143 56.813C43.3143 57.1817 43.2233 57.499 43.0413 57.765C42.864 58.031 42.6073 58.2293 42.2713 58.36L43.3983 59.97H42.4183ZM42.3973 56.813C42.3973 56.5003 42.2946 56.26 42.0893 56.092C41.884 55.924 41.583 55.84 41.1863 55.84H40.1223V57.793H41.1863C41.583 57.793 41.884 57.709 42.0893 57.541C42.2946 57.3683 42.3973 57.1257 42.3973 56.813Z" fill="#222222"></path><path d="M47.6784 57.464H48.5394V59.417C48.2874 59.6177 47.9934 59.7717 47.6574 59.879C47.3214 59.9863 46.9761 60.04 46.6214 60.04C46.1221 60.04 45.6718 59.9327 45.2704 59.718C44.8691 59.4987 44.5541 59.1977 44.3254 58.815C44.0968 58.4323 43.9824 58.0007 43.9824 57.52C43.9824 57.0393 44.0968 56.6077 44.3254 56.225C44.5541 55.8423 44.8691 55.5437 45.2704 55.329C45.6764 55.1097 46.1314 55 46.6354 55C47.0461 55 47.4194 55.0677 47.7554 55.203C48.0914 55.3383 48.3738 55.5367 48.6024 55.798L48.0284 56.358C47.6551 55.9847 47.2048 55.798 46.6774 55.798C46.3321 55.798 46.0241 55.8703 45.7534 56.015C45.4874 56.1597 45.2774 56.3627 45.1234 56.624C44.9741 56.8853 44.8994 57.184 44.8994 57.52C44.8994 57.8467 44.9741 58.1407 45.1234 58.402C45.2774 58.6633 45.4874 58.8687 45.7534 59.018C46.0241 59.1673 46.3298 59.242 46.6704 59.242C47.0531 59.242 47.3891 59.158 47.6784 58.99V57.464Z" fill="#222222"></path><path d="M51.8466 60.04C51.17 60.04 50.6426 59.851 50.2646 59.473C49.8867 59.0903 49.6977 58.5443 49.6977 57.835V55.07H50.6077V57.8C50.6077 58.7613 51.023 59.242 51.8536 59.242C52.6796 59.242 53.0927 58.7613 53.0927 57.8V55.07H53.9887V57.835C53.9887 58.5443 53.7996 59.0903 53.4216 59.473C53.0483 59.851 52.5233 60.04 51.8466 60.04Z" fill="#222222"></path><path d="M56.7821 60.04C56.4041 60.04 56.0378 59.9863 55.6831 59.879C55.3331 59.7717 55.0554 59.6293 54.8501 59.452L55.1651 58.745C55.3658 58.9037 55.6108 59.0343 55.9001 59.137C56.1941 59.235 56.4881 59.284 56.7821 59.284C57.1461 59.284 57.4168 59.2257 57.5941 59.109C57.7761 58.9923 57.8671 58.8383 57.8671 58.647C57.8671 58.507 57.8158 58.3927 57.7131 58.304C57.6151 58.2107 57.4891 58.1383 57.3351 58.087C57.1811 58.0357 56.9711 57.9773 56.7051 57.912C56.3318 57.8233 56.0284 57.7347 55.7951 57.646C55.5664 57.5573 55.3681 57.4197 55.2001 57.233C55.0368 57.0417 54.9551 56.785 54.9551 56.463C54.9551 56.1923 55.0274 55.9473 55.1721 55.728C55.3214 55.504 55.5431 55.3267 55.8371 55.196C56.1358 55.0653 56.4998 55 56.9291 55C57.2278 55 57.5218 55.0373 57.8111 55.112C58.1004 55.1867 58.3501 55.294 58.5601 55.434L58.2731 56.141C58.0584 56.015 57.8344 55.9193 57.6011 55.854C57.3678 55.7887 57.1414 55.756 56.9221 55.756C56.5628 55.756 56.2944 55.8167 56.1171 55.938C55.9444 56.0593 55.8581 56.2203 55.8581 56.421C55.8581 56.561 55.9071 56.6753 56.0051 56.764C56.1078 56.8527 56.2361 56.9227 56.3901 56.974C56.5441 57.0253 56.7541 57.0837 57.0201 57.149C57.3841 57.233 57.6828 57.3217 57.9161 57.415C58.1494 57.5037 58.3478 57.6413 58.5111 57.828C58.6791 58.0147 58.7631 58.2667 58.7631 58.584C58.7631 58.8547 58.6884 59.0997 58.5391 59.319C58.3944 59.5383 58.1728 59.7133 57.8741 59.844C57.5754 59.9747 57.2114 60.04 56.7821 60.04Z" fill="#222222"></path><path d="M61.9544 60.04C61.4551 60.04 61.0048 59.9327 60.6034 59.718C60.2021 59.4987 59.8871 59.1977 59.6584 58.815C59.4298 58.4277 59.3154 57.996 59.3154 57.52C59.3154 57.044 59.4298 56.6147 59.6584 56.232C59.8871 55.8447 60.2021 55.5437 60.6034 55.329C61.0048 55.1097 61.4551 55 61.9544 55C62.4538 55 62.9041 55.1097 63.3054 55.329C63.7068 55.5437 64.0218 55.8423 64.2504 56.225C64.4791 56.6077 64.5934 57.0393 64.5934 57.52C64.5934 58.0007 64.4791 58.4323 64.2504 58.815C64.0218 59.1977 63.7068 59.4987 63.3054 59.718C62.9041 59.9327 62.4538 60.04 61.9544 60.04ZM61.9544 59.242C62.2811 59.242 62.5751 59.1697 62.8364 59.025C63.0978 58.8757 63.3031 58.6703 63.4524 58.409C63.6018 58.143 63.6764 57.8467 63.6764 57.52C63.6764 57.1933 63.6018 56.8993 63.4524 56.638C63.3031 56.372 63.0978 56.1667 62.8364 56.022C62.5751 55.8727 62.2811 55.798 61.9544 55.798C61.6278 55.798 61.3338 55.8727 61.0724 56.022C60.8111 56.1667 60.6058 56.372 60.4564 56.638C60.3071 56.8993 60.2324 57.1933 60.2324 57.52C60.2324 57.8467 60.3071 58.143 60.4564 58.409C60.6058 58.6703 60.8111 58.8757 61.0724 59.025C61.3338 59.1697 61.6278 59.242 61.9544 59.242Z" fill="#222222"></path><path d="M69.912 55.07V59.97H69.163L66.461 56.652V59.97H65.558V55.07H66.307L69.009 58.388V55.07H69.912Z" fill="#222222"></path><path fill-rule="evenodd" clip-rule="evenodd" d="M11.9381 20.9635L15.2522 17.6501C17.2917 15.6111 20.8607 15.6111 22.9001 17.6501L41.765 36.511C43.8044 38.5501 43.8044 42.1183 41.765 44.1573L38.4509 47.4707C36.4115 49.5097 32.8424 49.5097 30.803 47.4707L11.9381 28.6098C9.64369 26.5708 9.64369 23.0025 11.9381 20.9635Z" fill="#EB008B"></path><path fill-rule="evenodd" clip-rule="evenodd" d="M24.4297 8.98442L32.0777 1.3381C33.8622 -0.446035 36.6664 -0.446035 38.451 1.3381L46.0989 8.98442C47.8834 10.7686 47.8834 13.5722 46.0989 15.3563L38.451 23.0026C36.6664 24.7868 33.8622 24.7868 32.0777 23.0026L24.4297 15.3563C22.6452 13.5722 22.6452 10.7686 24.4297 8.98442Z" fill="#00ADEE"></path><path fill-rule="evenodd" clip-rule="evenodd" d="M39.2158 25.8061L48.9031 16.1208C50.1777 14.8464 52.2172 14.8464 53.4919 16.1208L59.1003 21.7281C60.3749 23.0025 60.3749 25.0415 59.1003 26.3159L49.413 36.0012C48.1383 37.2756 46.0989 37.2756 44.8243 36.0012L39.2158 30.3939C37.9411 29.3744 37.9411 27.0805 39.2158 25.8061Z" fill="#A5CD39"></path></svg>