<svg xmlns="http://www.w3.org/2000/svg" width="20" height="19" viewBox="0 0 20 19" fill="none"><g clip-path="url(#clip0_243_34)"><path fill-rule="evenodd" clip-rule="evenodd" d="M14.65 0C12.5 0 10.7099 1.929 9.9499 2.9C9.1799 1.926 7.39995 0 5.24995 0C2.34995 0 -5.41382e-05 2.661 -5.41382e-05 5.933C-0.0101521 6.7864 0.156005 7.6327 0.488105 8.4189C0.820205 9.2051 1.31115 9.91427 1.93 10.502C1.94896 10.5361 1.97246 10.5674 1.99995 10.595L9.56989 18.174C9.61906 18.225 9.67813 18.2654 9.74348 18.2927C9.80882 18.3201 9.87907 18.3338 9.9499 18.333C10.0207 18.3328 10.0907 18.3186 10.156 18.2912C10.2212 18.2637 10.2803 18.2235 10.3299 18.173L18.15 10.33L18.2299 10.253C18.2999 10.185 18.36 10.124 18.43 10.047C18.46 10.013 18.49 9.974 18.52 9.932C19.4232 8.79533 19.9102 7.38378 19.9 5.932C19.9 2.66 17.54 0 14.65 0ZM5.24995 1.09C7.49995 1.09 9.46994 4.09 9.48994 4.125C9.54122 4.19927 9.61002 4.25976 9.69025 4.30109C9.77049 4.34243 9.85965 4.36335 9.9499 4.362C10.0389 4.36443 10.1272 4.34391 10.206 4.3024C10.2848 4.26089 10.3516 4.1998 10.4 4.125C10.42 4.095 12.4 1.09 14.65 1.09C16.95 1.09 18.81 3.263 18.81 5.933C18.8225 7.16293 18.4011 8.35793 17.6199 9.308L17.5899 9.355L17.4999 9.447L17.4799 9.465L9.9499 17.018L2.87995 9.932C2.84901 9.8777 2.80833 9.82957 2.75996 9.79C2.22408 9.30265 1.79801 8.70687 1.51008 8.04221C1.22215 7.37756 1.07891 6.65926 1.08991 5.935C1.08991 3.262 2.94995 1.09 5.24995 1.09Z" fill="#4D4D4D"></path></g><defs><clipPath id="clip0_243_34"><rect width="19.91" height="18.344" fill="white"></rect></clipPath></defs></svg>