<svg xmlns="http://www.w3.org/2000/svg" width="40" height="40" viewBox="0 0 40 40" fill="none"><path d="M7.57812 9.10144L1.17188 13.8593L7.88289 22.3437L7.57812 9.10144Z" fill="#81ABE2"></path><path d="M32.422 9.10144L32.1172 22.3437L38.8282 13.8593L32.422 9.10144Z" fill="#81ABE2"></path><path d="M32.8906 1.17188V29.9609C32.8906 30.6173 32.3751 31.1328 31.7188 31.1328H20V0H31.7188C32.3751 0 32.8906 0.515547 32.8906 1.17188Z" fill="#B9D7FF"></path><path d="M32.8906 1.17188V29.9609C32.8906 30.6173 32.3751 31.1328 31.7188 31.1328H8.28125C7.62492 31.1328 7.10938 30.6173 7.10938 29.9609V1.17188C7.10938 0.515547 7.62492 0 8.28125 0H31.7188C32.3751 0 32.8906 0.515547 32.8906 1.17188Z" fill="#DEE9FF"></path><path d="M32.8906 1.17188V29.9609C32.8906 30.6173 32.3751 31.1328 31.7188 31.1328H8.28125C7.62492 31.1328 7.10938 30.6173 7.10938 29.9609V1.17188C7.10938 0.515547 7.62492 0 8.28125 0H31.7188C32.3751 0 32.8906 0.515547 32.8906 1.17188Z" fill="url(#paint0_linear_671_16088)"></path><path d="M28.2031 8.28125C28.2031 8.93758 27.6876 9.45312 27.0312 9.45312H12.9688C12.3124 9.45312 11.7969 8.93758 11.7969 8.28125C11.7969 7.62492 12.3124 7.10938 12.9688 7.10938H27.0312C27.6876 7.10938 28.2031 7.62492 28.2031 8.28125Z" fill="#1C85FB"></path><path d="M28.2031 12.9688C28.2031 13.6251 27.6876 14.1406 27.0312 14.1406H12.9688C12.3124 14.1406 11.7969 13.6251 11.7969 12.9688C11.7969 12.3124 12.3124 11.7969 12.9688 11.7969H27.0312C27.6876 11.7969 28.2031 12.3124 28.2031 12.9688Z" fill="#1C85FB"></path><path d="M21.1719 17.6562C21.1719 18.3126 20.6563 18.8281 20 18.8281H12.9688C12.3124 18.8281 11.7969 18.3126 11.7969 17.6562C11.7969 16.9999 12.3124 16.4844 12.9688 16.4844H20C20.6563 16.4844 21.1719 16.9999 21.1719 17.6562Z" fill="#1C85FB"></path><path d="M20 18.8281V16.4844C20.6563 16.4844 21.1719 16.9999 21.1719 17.6562C21.1719 18.3126 20.6563 18.8281 20 18.8281Z" fill="#0A6DDD"></path><path d="M27.0312 14.1406H20V11.7969H27.0312C27.6876 11.7969 28.2031 12.3124 28.2031 12.9688C28.2031 13.6251 27.6876 14.1406 27.0312 14.1406Z" fill="#0A6DDD"></path><path d="M27.0312 9.45312H20V7.10938H27.0312C27.6876 7.10938 28.2031 7.62492 28.2031 8.28125C28.2031 8.93758 27.6876 9.45312 27.0312 9.45312Z" fill="#0A6DDD"></path><path d="M39.5781 14.4219C39.5547 14.4219 38.8281 13.8594 38.8281 13.8594L36.8827 15.3125L20.7031 27.3829C20.4923 27.5468 20.2344 27.6407 20 27.6407C19.7656 27.6407 19.5077 27.5469 19.2969 27.3829L3.11727 15.3125L1.17188 13.8594C1.17188 13.8594 0.445312 14.4219 0.421875 14.4219C0.164063 14.6329 0 14.9609 0 15.3125V36.4844C0 38.4298 1.57023 40 3.51562 40H36.4844C38.4298 40 40 38.4298 40 36.4844V15.3125C40 14.9609 39.8359 14.6329 39.5781 14.4219Z" fill="url(#paint1_linear_671_16088)"></path><path opacity="0.5" d="M40 15.3125V36.4844C40 38.4298 38.4298 40 36.4844 40H20V27.6406C20.2343 27.6406 20.4923 27.5468 20.7031 27.3828L36.8827 15.3125L38.8281 13.8594C38.8281 13.8594 39.5547 14.4219 39.5781 14.4219C39.8359 14.6329 40 14.9609 40 15.3125Z" fill="url(#paint2_linear_671_16088)"></path><defs><linearGradient id="paint0_linear_671_16088" x1="20" y1="11.5" x2="20" y2="28.5" gradientUnits="userSpaceOnUse"><stop stop-color="#DEE9FF" stop-opacity="0"></stop><stop offset="1" stop-color="#8E9EBF"></stop></linearGradient><linearGradient id="paint1_linear_671_16088" x1="7.92916" y1="18.286" x2="26.8963" y2="52.2572" gradientUnits="userSpaceOnUse"><stop stop-color="#D3E2FF"></stop><stop offset="1" stop-color="white"></stop></linearGradient><linearGradient id="paint2_linear_671_16088" x1="40.5" y1="29.5" x2="6.94331" y2="37.5753" gradientUnits="userSpaceOnUse"><stop stop-color="#1C85FB" stop-opacity="0"></stop><stop offset="1" stop-color="#3F99FF"></stop></linearGradient></defs></svg>