<svg xmlns="http://www.w3.org/2000/svg" width="257" height="46" viewBox="0 0 257 46" fill="none"><path d="M65.895 37.3166C65.6217 37.3166 65.3757 37.221 65.157 37.0296C64.9657 36.8383 64.87 36.5923 64.87 36.2916V9.64164C64.87 9.34097 64.9657 9.09497 65.157 8.90364C65.3757 8.71231 65.6217 8.61664 65.895 8.61664H70.323C70.7603 8.61664 71.0883 8.73964 71.307 8.98564C71.553 9.20431 71.7033 9.38197 71.758 9.51864L78.974 22.4746L86.19 9.51864C86.272 9.38197 86.4087 9.20431 86.6 8.98564C86.8187 8.73964 87.1603 8.61664 87.625 8.61664H92.012C92.3127 8.61664 92.5587 8.71231 92.75 8.90364C92.9687 9.09497 93.078 9.34097 93.078 9.64164V36.2916C93.078 36.5923 92.9687 36.8383 92.75 37.0296C92.5587 37.221 92.3127 37.3166 92.012 37.3166H87.133C86.8323 37.3166 86.5727 37.221 86.354 37.0296C86.1627 36.8383 86.067 36.5923 86.067 36.2916V20.9166L81.434 29.4856C81.3247 29.7316 81.1607 29.9503 80.942 30.1416C80.7233 30.333 80.4227 30.4286 80.04 30.4286H77.908C77.5253 30.4286 77.2247 30.333 77.006 30.1416C76.7873 29.9503 76.6097 29.7316 76.473 29.4856L71.84 20.9166V36.2916C71.84 36.5923 71.7443 36.8383 71.553 37.0296C71.3617 37.221 71.1157 37.3166 70.815 37.3166H65.895Z" fill="#55A2FC"></path><path d="M108.172 37.7266C104.947 37.7266 102.377 36.852 100.464 35.1026C98.5507 33.3533 97.5531 30.7566 97.4711 27.3126C97.4711 27.1213 97.4711 26.8753 97.4711 26.5746C97.4711 26.274 97.4711 26.0416 97.4711 25.8776C97.5531 23.7183 98.0314 21.8733 98.9061 20.3426C99.8081 18.7846 101.038 17.6093 102.596 16.8166C104.181 15.9966 106.026 15.5866 108.131 15.5866C110.536 15.5866 112.518 16.065 114.076 17.0216C115.661 17.9783 116.85 19.2766 117.643 20.9166C118.436 22.5566 118.832 24.429 118.832 26.5336V27.5176C118.832 27.8183 118.723 28.0643 118.504 28.2556C118.313 28.447 118.08 28.5426 117.807 28.5426H104.687C104.687 28.57 104.687 28.611 104.687 28.6656C104.687 28.7203 104.687 28.775 104.687 28.8296C104.714 29.6223 104.851 30.3466 105.097 31.0026C105.343 31.6586 105.726 32.178 106.245 32.5606C106.764 32.9433 107.393 33.1346 108.131 33.1346C108.678 33.1346 109.129 33.0526 109.484 32.8886C109.867 32.6973 110.181 32.4923 110.427 32.2736C110.673 32.0276 110.864 31.8226 111.001 31.6586C111.247 31.3853 111.438 31.2213 111.575 31.1666C111.739 31.0846 111.985 31.0436 112.313 31.0436H117.397C117.67 31.0436 117.889 31.1256 118.053 31.2896C118.244 31.4263 118.326 31.6313 118.299 31.9046C118.272 32.3693 118.039 32.9296 117.602 33.5856C117.165 34.2416 116.522 34.8976 115.675 35.5536C114.855 36.1823 113.816 36.7016 112.559 37.1116C111.302 37.5216 109.839 37.7266 108.172 37.7266ZM104.687 24.4836H111.616V24.4016C111.616 23.527 111.479 22.7616 111.206 22.1056C110.96 21.4496 110.564 20.944 110.017 20.5886C109.498 20.2333 108.869 20.0556 108.131 20.0556C107.393 20.0556 106.764 20.2333 106.245 20.5886C105.753 20.944 105.37 21.4496 105.097 22.1056C104.824 22.7616 104.687 23.527 104.687 24.4016V24.4836Z" fill="#55A2FC"></path><path d="M130.63 37.7266C129.318 37.7266 128.129 37.5216 127.063 37.1116C126.024 36.6743 125.122 36.0456 124.357 35.2256C123.619 34.3783 123.045 33.367 122.635 32.1916C122.225 30.989 121.993 29.6223 121.938 28.0916C121.91 27.545 121.897 27.0666 121.897 26.6566C121.897 26.2193 121.91 25.741 121.938 25.2216C121.993 23.7456 122.225 22.42 122.635 21.2446C123.045 20.0693 123.619 19.058 124.357 18.2106C125.095 17.3633 125.997 16.721 127.063 16.2836C128.129 15.819 129.318 15.5866 130.63 15.5866C131.996 15.5866 133.172 15.819 134.156 16.2836C135.14 16.721 135.973 17.295 136.657 18.0056V9.23164C136.657 8.93097 136.752 8.68497 136.944 8.49364C137.135 8.30231 137.381 8.20664 137.682 8.20664H142.684C142.957 8.20664 143.189 8.30231 143.381 8.49364C143.599 8.68497 143.709 8.93097 143.709 9.23164V36.2916C143.709 36.5923 143.599 36.8383 143.381 37.0296C143.189 37.221 142.957 37.3166 142.684 37.3166H138.051C137.75 37.3166 137.504 37.221 137.313 37.0296C137.121 36.8383 137.026 36.5923 137.026 36.2916V34.9796C136.37 35.7723 135.522 36.4283 134.484 36.9476C133.445 37.467 132.16 37.7266 130.63 37.7266ZM132.844 32.2326C133.773 32.2326 134.497 32.0413 135.017 31.6586C135.563 31.2486 135.96 30.7293 136.206 30.1006C136.479 29.472 136.629 28.7886 136.657 28.0506C136.684 27.504 136.698 26.9846 136.698 26.4926C136.698 26.0006 136.684 25.495 136.657 24.9756C136.629 24.2923 136.479 23.6636 136.206 23.0896C135.932 22.4883 135.522 22.01 134.976 21.6546C134.429 21.272 133.718 21.0806 132.844 21.0806C131.942 21.0806 131.217 21.272 130.671 21.6546C130.151 22.0373 129.782 22.5566 129.564 23.2126C129.345 23.8686 129.208 24.593 129.154 25.3856C129.072 26.233 129.072 27.0803 129.154 27.9276C129.208 28.7203 129.345 29.4446 129.564 30.1006C129.782 30.7566 130.151 31.276 130.671 31.6586C131.217 32.0413 131.942 32.2326 132.844 32.2326Z" fill="#55A2FC"></path><path d="M149.566 37.3166C149.265 37.3166 149.019 37.221 148.828 37.0296C148.637 36.8383 148.541 36.5923 148.541 36.2916V17.0216C148.541 16.721 148.637 16.475 148.828 16.2836C149.019 16.0923 149.265 15.9966 149.566 15.9966H154.404C154.677 15.9966 154.91 16.0923 155.101 16.2836C155.32 16.475 155.429 16.721 155.429 17.0216V36.2916C155.429 36.5923 155.32 36.8383 155.101 37.0296C154.91 37.221 154.677 37.3166 154.404 37.3166H149.566ZM149.525 12.9216C149.224 12.9216 148.978 12.826 148.787 12.6346C148.596 12.4433 148.5 12.1973 148.5 11.8966V8.24764C148.5 7.94697 148.596 7.70097 148.787 7.50964C148.978 7.29097 149.224 7.18164 149.525 7.18164H154.404C154.705 7.18164 154.951 7.29097 155.142 7.50964C155.361 7.70097 155.47 7.94697 155.47 8.24764V11.8966C155.47 12.1973 155.361 12.4433 155.142 12.6346C154.951 12.826 154.705 12.9216 154.404 12.9216H149.525Z" fill="#55A2FC"></path><path d="M169.006 37.7266C167.23 37.7266 165.713 37.5353 164.455 37.1526C163.225 36.7426 162.214 36.2506 161.421 35.6766C160.656 35.1026 160.082 34.515 159.699 33.9136C159.317 33.285 159.112 32.752 159.084 32.3146C159.057 32.014 159.153 31.768 159.371 31.5766C159.59 31.358 159.822 31.2486 160.068 31.2486H164.742C164.824 31.2486 164.893 31.2623 164.947 31.2896C165.002 31.317 165.084 31.3716 165.193 31.4536C165.549 31.645 165.904 31.891 166.259 32.1916C166.615 32.465 167.025 32.711 167.489 32.9296C167.954 33.1483 168.514 33.2576 169.17 33.2576C169.936 33.2576 170.578 33.1073 171.097 32.8066C171.617 32.506 171.876 32.055 171.876 31.4536C171.876 31.0163 171.753 30.661 171.507 30.3876C171.261 30.087 170.756 29.8 169.99 29.5266C169.252 29.2533 168.132 28.98 166.628 28.7066C165.207 28.3786 163.963 27.955 162.897 27.4356C161.831 26.889 161.011 26.192 160.437 25.3446C159.863 24.47 159.576 23.4176 159.576 22.1876C159.576 21.0943 159.932 20.042 160.642 19.0306C161.353 18.0193 162.392 17.1993 163.758 16.5706C165.125 15.9146 166.806 15.5866 168.801 15.5866C170.387 15.5866 171.753 15.778 172.901 16.1606C174.077 16.516 175.061 16.9806 175.853 17.5546C176.673 18.1286 177.288 18.7163 177.698 19.3176C178.108 19.919 178.327 20.4656 178.354 20.9576C178.382 21.231 178.3 21.477 178.108 21.6956C177.917 21.887 177.698 21.9826 177.452 21.9826H173.188C173.079 21.9826 172.97 21.969 172.86 21.9416C172.751 21.887 172.655 21.8323 172.573 21.7776C172.245 21.6136 171.917 21.395 171.589 21.1216C171.261 20.8483 170.879 20.6023 170.441 20.3836C170.004 20.165 169.457 20.0556 168.801 20.0556C168.063 20.0556 167.489 20.2196 167.079 20.5476C166.669 20.8756 166.464 21.2993 166.464 21.8186C166.464 22.174 166.574 22.502 166.792 22.8026C167.038 23.1033 167.517 23.3766 168.227 23.6226C168.965 23.8686 170.1 24.142 171.63 24.4426C173.516 24.7433 175.02 25.2353 176.14 25.9186C177.261 26.5746 178.054 27.3536 178.518 28.2556C178.983 29.1303 179.215 30.0596 179.215 31.0436C179.215 32.3556 178.819 33.5173 178.026 34.5286C177.261 35.54 176.113 36.3326 174.582 36.9066C173.052 37.4533 171.193 37.7266 169.006 37.7266Z" fill="#57CB9C"></path><path d="M183.92 37.3166C183.619 37.3166 183.373 37.221 183.182 37.0296C182.99 36.8383 182.895 36.5923 182.895 36.2916V9.23164C182.895 8.93097 182.99 8.68497 183.182 8.49364C183.373 8.30231 183.619 8.20664 183.92 8.20664H189.168C189.468 8.20664 189.714 8.30231 189.906 8.49364C190.097 8.68497 190.193 8.93097 190.193 9.23164V18.3746C190.931 17.5273 191.833 16.8576 192.899 16.3656C193.992 15.8463 195.249 15.5866 196.671 15.5866C198.256 15.5866 199.664 15.942 200.894 16.6526C202.151 17.3633 203.135 18.4156 203.846 19.8096C204.556 21.1763 204.912 22.8573 204.912 24.8526V36.2916C204.912 36.5923 204.816 36.8383 204.625 37.0296C204.433 37.221 204.187 37.3166 203.887 37.3166H198.598C198.324 37.3166 198.078 37.221 197.86 37.0296C197.668 36.8383 197.573 36.5923 197.573 36.2916V25.0986C197.573 23.814 197.258 22.83 196.63 22.1466C196.028 21.436 195.126 21.0806 193.924 21.0806C192.803 21.0806 191.901 21.436 191.218 22.1466C190.534 22.83 190.193 23.814 190.193 25.0986V36.2916C190.193 36.5923 190.097 36.8383 189.906 37.0296C189.714 37.221 189.468 37.3166 189.168 37.3166H183.92Z" fill="#57CB9C"></path><path d="M219.647 37.7266C217.351 37.7266 215.41 37.3576 213.825 36.6196C212.267 35.8816 211.064 34.8293 210.217 33.4626C209.397 32.0686 208.932 30.415 208.823 28.5016C208.795 27.955 208.782 27.34 208.782 26.6566C208.782 25.946 208.795 25.331 208.823 24.8116C208.932 22.871 209.424 21.2173 210.299 19.8506C211.173 18.484 212.39 17.4316 213.948 16.6936C215.533 15.9556 217.433 15.5866 219.647 15.5866C221.888 15.5866 223.788 15.9556 225.346 16.6936C226.931 17.4316 228.161 18.484 229.036 19.8506C229.91 21.2173 230.402 22.871 230.512 24.8116C230.539 25.331 230.553 25.946 230.553 26.6566C230.553 27.34 230.539 27.955 230.512 28.5016C230.402 30.415 229.924 32.0686 229.077 33.4626C228.257 34.8293 227.054 35.8816 225.469 36.6196C223.911 37.3576 221.97 37.7266 219.647 37.7266ZM219.647 32.7246C220.877 32.7246 221.765 32.3556 222.312 31.6176C222.886 30.8796 223.214 29.7726 223.296 28.2966C223.323 27.8866 223.337 27.34 223.337 26.6566C223.337 25.9733 223.323 25.4266 223.296 25.0166C223.214 23.568 222.886 22.4746 222.312 21.7366C221.765 20.9713 220.877 20.5886 219.647 20.5886C218.444 20.5886 217.556 20.9713 216.982 21.7366C216.408 22.4746 216.093 23.568 216.039 25.0166C216.011 25.4266 215.998 25.9733 215.998 26.6566C215.998 27.34 216.011 27.8866 216.039 28.2966C216.093 29.7726 216.408 30.8796 216.982 31.6176C217.556 32.3556 218.444 32.7246 219.647 32.7246Z" fill="#57CB9C"></path><path d="M235.61 45.1066C235.309 45.1066 235.063 45.011 234.872 44.8196C234.681 44.6283 234.585 44.3823 234.585 44.0816V17.0216C234.585 16.721 234.681 16.475 234.872 16.2836C235.063 16.0923 235.309 15.9966 235.61 15.9966H240.243C240.516 15.9966 240.749 16.0923 240.94 16.2836C241.159 16.475 241.268 16.721 241.268 17.0216V18.5386C241.897 17.6913 242.73 16.9943 243.769 16.4476C244.808 15.8736 246.092 15.5866 247.623 15.5866C248.99 15.5866 250.192 15.8053 251.231 16.2426C252.27 16.6526 253.158 17.2676 253.896 18.0876C254.634 18.9076 255.208 19.9053 255.618 21.0806C256.055 22.256 256.301 23.609 256.356 25.1396C256.383 25.6863 256.397 26.192 256.397 26.6566C256.397 27.1213 256.383 27.627 256.356 28.1736C256.301 29.6496 256.069 30.9753 255.659 32.1506C255.249 33.326 254.675 34.3236 253.937 35.1436C253.199 35.9636 252.297 36.606 251.231 37.0706C250.192 37.508 248.99 37.7266 247.623 37.7266C246.284 37.7266 245.108 37.4943 244.097 37.0296C243.113 36.5376 242.293 35.8543 241.637 34.9796V44.0816C241.637 44.3823 241.541 44.6283 241.35 44.8196C241.159 45.011 240.913 45.1066 240.612 45.1066H235.61ZM245.409 32.2326C246.338 32.2326 247.063 32.0413 247.582 31.6586C248.101 31.276 248.47 30.7566 248.689 30.1006C248.935 29.4446 249.085 28.7203 249.14 27.9276C249.195 27.0803 249.195 26.233 249.14 25.3856C249.085 24.593 248.935 23.8686 248.689 23.2126C248.47 22.5566 248.101 22.0373 247.582 21.6546C247.063 21.272 246.338 21.0806 245.409 21.0806C244.507 21.0806 243.783 21.2856 243.236 21.6956C242.689 22.0783 242.293 22.584 242.047 23.2126C241.801 23.8413 241.664 24.5246 241.637 25.2626C241.61 25.782 241.596 26.2876 241.596 26.7796C241.596 27.2716 241.61 27.791 241.637 28.3376C241.664 29.021 241.815 29.6633 242.088 30.2646C242.361 30.8386 242.771 31.317 243.318 31.6996C243.865 32.055 244.562 32.2326 245.409 32.2326Z" fill="#57CB9C"></path><path d="M51 16.9166C50.6019 20.9158 48.6909 25.175 45.7248 29.2742C41.0468 35.7329 33.7412 41.8117 25.5398 45.9909C21.877 44.1112 18.3934 41.8717 15.2283 39.3722C18.4333 39.3922 21.7775 38.8523 25.0222 37.5525C25.1616 37.4926 25.3009 37.4326 25.4602 37.3726C25.8782 37.1926 26.2763 36.9927 26.6546 36.7927C30.9344 34.4732 32.3876 30.7339 32.3876 30.7339C32.3876 30.7339 31.0738 28.6943 27.5902 31.6737C24.7834 34.0732 21.0609 34.0732 18.0351 32.7135C17.6967 32.5535 18.2143 32.1536 18.8911 31.6737C19.3689 31.3338 19.9262 30.9539 20.3443 30.5939C20.6827 30.294 20.9215 30.034 20.9415 29.7941C21.0012 29.1742 19.6475 28.3144 17.8361 29.0742C15.726 29.974 13.8548 31.2138 10.1124 31.3338C8.87822 31.2138 7.68384 31.0338 6.50937 30.7739C6.40984 30.6539 6.3103 30.5139 6.21077 30.394C4.43911 28.1144 2.98595 25.7949 1.93091 23.4753C1.79157 23.1554 1.65222 22.8555 1.53279 22.5355C0.557377 20.136 0 17.7165 0 15.3969C0 6.89863 6.86768 0 15.3279 0C16.4625 0 17.5773 0.119976 18.6323 0.359929C21.26 0.939813 23.6089 2.19956 25.5398 3.93922C25.6991 3.79925 25.8384 3.65927 25.9977 3.5393C26.4157 3.17937 26.8735 2.85943 27.3314 2.5395C29.76 0.939813 32.6464 0 35.7518 0C39.1159 0 42.2213 1.09978 44.7494 2.93942C47.5761 4.99901 49.6862 7.99841 50.582 11.4777C48.9696 9.93803 46.74 8.5583 44.1323 7.5585C44.0527 7.51851 43.9731 7.49851 43.8934 7.45852C38.4988 5.43892 31.5316 4.95902 24.9824 7.5785C24.863 7.63848 24.7436 7.67848 24.6241 7.73846C23.8279 8.0784 23.1112 8.47832 22.4941 8.89823C20.185 10.4379 18.8712 12.3176 18.2939 13.3573C18.0351 13.7973 17.9157 14.0972 17.9157 14.0972C17.9157 14.0972 18.5726 15.177 20.2646 14.6771C20.9215 14.4771 21.7377 14.0572 22.7131 13.2374C25.5597 10.8778 29.2822 10.9778 32.2881 12.3775C33.0445 12.7375 29.4415 14.2772 29.322 15.237C29.2424 15.8569 30.596 16.7567 32.4075 16.0168C34.637 15.117 36.6077 13.8373 40.6885 13.9172C41.1066 13.9172 41.5445 13.9372 42.0222 13.9772C42.6194 14.0172 43.2564 14.0972 43.9532 14.1972C46.6206 14.5971 48.9496 15.5769 50.9403 17.0966C50.9602 17.0366 50.9801 16.9766 51 16.9166Z" fill="#3CC18C"></path><path opacity="0.5" d="M51 16.9166C50.6019 20.9158 48.6909 25.175 45.7248 29.2742C40.2307 34.2732 33.0047 37.3726 25.0422 37.5525C25.1815 37.4926 25.3208 37.4326 25.4801 37.3726C25.8981 37.1926 26.2963 36.9927 26.6745 36.7927C30.9543 34.4732 32.4075 30.7339 32.4075 30.7339C32.4075 30.7339 31.0937 28.6943 27.6101 31.6737C24.8033 34.0732 21.0808 34.0732 18.055 32.7135C17.7166 32.5535 18.2342 32.1536 18.911 31.6737C19.3888 31.3338 19.9461 30.9539 20.3642 30.5939C20.7026 30.294 20.9415 30.034 20.9614 29.7941C21.0211 29.1742 19.6674 28.3144 17.856 29.0742C15.7459 29.974 13.8747 31.2138 10.1323 31.3338C8.89813 31.2138 7.70375 31.0338 6.52927 30.7739C6.42974 30.6539 6.33021 30.5139 6.23068 30.394C4.45902 28.1144 3.00585 25.7949 1.95082 23.4753C1.81148 23.1554 1.67213 22.8555 1.55269 22.5355C0.557377 20.136 0 17.7165 0 15.3969C0 6.89863 6.86768 0 15.3279 0C16.4625 0 17.5773 0.119976 18.6323 0.359929C21.26 0.939813 23.6089 2.19956 25.5398 3.93922C25.6991 3.79925 25.8384 3.65927 25.9977 3.5393C26.4157 3.17937 26.8735 2.85943 27.3314 2.5395C29.76 0.939813 32.6464 0 35.7518 0C39.1159 0 42.2213 1.09978 44.7494 2.93942C47.5761 4.99901 49.6862 7.99841 50.582 11.4777C48.9696 9.93803 46.74 8.5583 44.1323 7.5585C44.0527 7.51851 43.9731 7.49851 43.8934 7.45852C38.4988 5.43892 31.5316 4.95902 24.9824 7.5785C24.863 7.63848 24.7436 7.67848 24.6241 7.73846C23.8279 8.0784 23.1112 8.47832 22.4941 8.89823C20.185 10.4379 18.8712 12.3176 18.2939 13.3573C18.0351 13.7973 17.9157 14.0972 17.9157 14.0972C17.9157 14.0972 18.5726 15.177 20.2646 14.6771C20.9215 14.4771 21.7377 14.0572 22.7131 13.2374C25.5597 10.8778 29.2822 10.9778 32.2881 12.3775C33.0445 12.7375 29.4415 14.2772 29.322 15.237C29.2424 15.8569 30.596 16.7567 32.4075 16.0168C34.637 15.117 36.6077 13.8373 40.6885 13.9172C41.1066 13.9172 41.5445 13.9372 42.0222 13.9772C42.6194 14.0172 43.2564 14.0972 43.9532 14.1972C46.6206 14.5971 48.9496 15.5769 50.9403 17.0966C50.9602 17.0366 50.9801 16.9766 51 16.9166Z" fill="#57CB9C"></path><path d="M44.7693 2.93942C44.6698 4.5191 44.4707 6.0588 44.1522 7.5585C44.0726 7.51851 43.993 7.49851 43.9133 7.45852C38.5187 5.43892 31.5515 4.95902 25.0023 7.5785C24.8829 7.63848 24.7635 7.67848 24.644 7.73846C23.8478 8.0784 23.1311 8.47832 22.5141 8.89823C20.2049 10.4379 18.8911 12.3176 18.3138 13.3573C18.0351 13.7973 17.9157 14.0972 17.9157 14.0972C17.9157 14.0972 18.5726 15.177 20.2646 14.6771C20.9215 14.4771 21.7377 14.0572 22.7131 13.2374C25.5597 10.8778 29.2822 10.9778 32.2881 12.3775C33.0445 12.7375 29.4415 14.2772 29.322 15.237C29.2424 15.8569 30.596 16.7567 32.4075 16.0168C34.637 15.117 36.6077 13.8373 40.6885 13.9172C41.1066 13.9172 41.5445 13.9372 42.0222 13.9772C37.822 23.2154 29.2225 30.034 18.911 31.7137C19.3888 31.3738 19.9461 30.9938 20.3642 30.6339C20.7026 30.334 20.9415 30.074 20.9614 29.8341C21.0211 29.2142 19.6674 28.3544 17.856 29.1142C15.7459 30.014 13.8747 31.2538 10.1323 31.3738C8.89813 31.2538 7.70375 31.0738 6.52927 30.8139C6.42974 30.6939 6.33021 30.5539 6.23068 30.434C4.45902 28.1544 3.00585 25.8349 1.95082 23.5153C1.81148 23.1954 1.67213 22.8955 1.55269 22.5755C0.557377 20.136 0 17.7165 0 15.3969C0 6.89863 6.86768 0 15.3279 0C16.4625 0 17.5773 0.119976 18.6323 0.359929C21.26 0.939813 23.6089 2.19956 25.5398 3.93922C25.6991 3.79925 25.8384 3.65927 25.9977 3.5393C26.4157 3.17937 26.8735 2.85943 27.3314 2.5395C29.76 0.939813 32.6464 0 35.7518 0C39.1159 0 42.2412 1.09978 44.7693 2.93942Z" fill="#4290EC"></path><path opacity="0.5" d="M26.0176 3.5393C25.6792 4.99901 25.2014 6.39873 24.6241 7.73846C23.8279 8.0784 23.1112 8.47832 22.4941 8.89823C20.185 10.4379 18.8712 12.3176 18.2939 13.3573C18.0351 13.7973 17.9157 14.0972 17.9157 14.0972C17.9157 14.0972 18.5726 15.177 20.2646 14.6771C15.7459 19.8361 9.23653 23.1954 1.95082 23.5353C1.81148 23.2154 1.67213 22.9155 1.55269 22.5955C0.557377 20.136 0 17.7165 0 15.3969C0 6.89863 6.86768 0 15.3279 0C16.4625 0 17.5773 0.119976 18.6323 0.359929C21.26 0.939813 23.6089 2.19956 25.5398 3.93922C25.6991 3.79925 25.8583 3.67927 26.0176 3.5393Z" fill="#55A2FC"></path><path opacity="0.5" d="M9.35597 8.65822C8.22131 10.4379 6.50937 11.3577 5.53396 10.7178C4.55855 10.0779 4.69789 8.13833 5.85246 6.35868C6.98712 4.57903 8.69906 3.65921 9.67447 4.29909C10.63 4.91896 10.4906 6.87858 9.35597 8.65822Z" fill="#6CBDF3"></path></svg>