<svg xmlns="http://www.w3.org/2000/svg" width="27" height="16" viewBox="0 0 27 16" fill="none"><path d="M1.78123 2.56246H25.2188C25.65 2.56246 26 2.21244 26 1.78123C26 1.34996 25.65 1 25.2188 1H1.78123C1.34996 1 1 1.35003 1 1.78123C1 2.21244 1.35003 2.56246 1.78123 2.56246Z" fill="black" stroke="black" stroke-width="0.25"></path><path d="M25.2188 7.46875H1.78123C1.34996 7.46875 1 7.81878 1 8.24998C1 8.68119 1.35003 9.03121 1.78123 9.03121H25.2188C25.65 9.03121 26 8.68119 26 8.24998C26 7.81878 25.65 7.46875 25.2188 7.46875Z" fill="black" stroke="black" stroke-width="0.25"></path><path d="M25.2188 13.9375H9.59373C9.16246 13.9375 8.8125 14.2875 8.8125 14.7187C8.8125 15.15 9.16253 15.5 9.59373 15.5H25.2188C25.65 15.5 26 15.1499 26 14.7187C26.0001 14.2875 25.65 13.9375 25.2188 13.9375Z" fill="black" stroke="black" stroke-width="0.25"></path></svg>