<svg xmlns="http://www.w3.org/2000/svg" width="40" height="40" viewBox="0 0 40 40" fill="none"><g clip-path="url(#clip0_671_16077)"><path d="M31.7188 2.42188H27.0312H22.3438C17.821 2.42188 14.0625 6.10227 14.0625 10.625C14.0625 14.7506 17.202 18.1747 21.1719 18.7446V22.3438C21.1719 22.8175 21.4568 23.2455 21.8952 23.4263C22.3274 23.6067 22.8345 23.51 23.1723 23.1723L27.0312 19.3134L27.5165 18.8281H31.7188C36.2415 18.8281 40 15.1477 40 10.625C40 6.10227 36.2415 2.42188 31.7188 2.42188Z" fill="#DEE9FF"></path><path d="M31.7188 18.8281C36.2415 18.8281 40 15.1477 40 10.625C40 6.10227 36.2415 2.42188 31.7188 2.42188H27.0312V19.3134L27.5165 18.8281H31.7188Z" fill="#B9D7FF"></path><path d="M29.8438 29.375V34.0625C29.8438 36.1016 28.1789 37.5781 26.3445 37.5781C19.5938 37.5781 13.0078 34.3867 8.10938 29.5078C3.21094 24.6289 0 18.0625 0 11.3117C0 9.37266 1.57734 7.8125 3.51562 7.8125H8.20312C8.70781 7.8125 9.15547 8.13516 9.31406 8.61328L11.6578 15.6281C11.7727 15.9719 11.7219 16.3484 11.5219 16.6492L9.53438 19.6313C10.2875 21.2109 11.6203 22.9375 13.1594 24.4578C14.6992 25.9773 16.4453 27.2906 18.025 28.0437L21.007 26.0562C21.3094 25.857 21.6844 25.8047 22.0281 25.9203L29.0594 28.2641C29.5375 28.4227 29.8438 28.8703 29.8438 29.375Z" fill="url(#paint0_linear_671_16077)"></path><path opacity="0.5" d="M29.8438 29.375V34.0625C29.8438 36.1015 28.1789 37.5781 26.3445 37.5781C19.5938 37.5781 13.0078 34.3867 8.10938 29.5078L13.1594 24.4578C14.6992 25.9773 16.4453 27.2906 18.025 28.0437L21.007 26.0562C21.3094 25.857 21.6844 25.8046 22.0281 25.9203L29.0594 28.264C29.5375 28.4226 29.8438 28.8703 29.8438 29.375Z" fill="url(#paint1_linear_671_16077)"></path><path d="M22.3438 11.7968C22.991 11.7968 23.5156 11.2721 23.5156 10.6249C23.5156 9.97767 22.991 9.453 22.3438 9.453C21.6965 9.453 21.1719 9.97767 21.1719 10.6249C21.1719 11.2721 21.6965 11.7968 22.3438 11.7968Z" fill="#1C85FB"></path><path d="M27.0312 11.7968C27.6785 11.7968 28.2031 11.2721 28.2031 10.6249C28.2031 9.97767 27.6785 9.453 27.0312 9.453C26.384 9.453 25.8594 9.97767 25.8594 10.6249C25.8594 11.2721 26.384 11.7968 27.0312 11.7968Z" fill="#1C85FB"></path><path d="M28.2031 10.6249C28.2031 9.97769 27.6784 9.453 27.0312 9.453V11.7968C27.6784 11.7968 28.2031 11.2721 28.2031 10.6249Z" fill="#0A6DDD"></path><path d="M31.7187 11.7969C32.366 11.7969 32.8906 11.2722 32.8906 10.625C32.8906 9.97779 32.366 9.45312 31.7187 9.45312C31.0715 9.45312 30.5469 9.97779 30.5469 10.625C30.5469 11.2722 31.0715 11.7969 31.7187 11.7969Z" fill="#0A6DDD"></path></g><defs><linearGradient id="paint0_linear_671_16077" x1="5.91589" y1="12.853" x2="30.9647" y2="42.2492" gradientUnits="userSpaceOnUse"><stop stop-color="#D3E2FF"></stop><stop offset="1" stop-color="white"></stop></linearGradient><linearGradient id="paint1_linear_671_16077" x1="25.215" y1="34.5638" x2="8.78521" y2="10.4487" gradientUnits="userSpaceOnUse"><stop stop-color="#1C85FB" stop-opacity="0"></stop><stop offset="1" stop-color="#3F99FF"></stop></linearGradient><clipPath id="clip0_671_16077"><rect width="40" height="40" fill="white"></rect></clipPath></defs></svg>