<svg xmlns="http://www.w3.org/2000/svg" width="19" height="19" viewBox="0 0 19 19" fill="none"><path d="M7.56122 15.1224C3.39286 15.1224 0 11.7296 0 7.56122C0 3.39286 3.39286 0 7.56122 0C11.7296 0 15.1224 3.39286 15.1224 7.56122C15.1224 11.7296 11.7296 15.1224 7.56122 15.1224ZM7.56122 1.16327C4.07143 1.16327 1.16327 4.07143 1.16327 7.56122C1.16327 11.051 4.07143 13.9592 7.56122 13.9592C11.051 13.9592 13.9592 11.051 13.9592 7.56122C13.9592 4.07143 11.051 1.16327 7.56122 1.16327Z" fill="#4D4D4D"></path><path d="M18.5153 19C18.4184 19 18.4184 19 18.3214 19C18.2245 19 18.2245 18.9031 18.1276 18.9031L12.699 13.4745C12.699 13.4745 12.6021 13.3776 12.6021 13.2806C12.6021 13.1837 12.6021 13.1837 12.6021 13.0867C12.6021 12.9898 12.6021 12.9898 12.6021 12.8929C12.6021 12.7959 12.699 12.7959 12.699 12.699C12.699 12.699 12.7959 12.6021 12.8929 12.6021C12.9898 12.6021 12.9898 12.6021 13.0867 12.6021C13.1837 12.6021 13.1837 12.6021 13.2806 12.6021C13.3776 12.6021 13.3776 12.699 13.4745 12.699L18.9031 18.1276C19 18.2245 19 18.3214 19 18.4184C19 18.5153 19 18.6123 19 18.7092C19 18.8061 18.9031 18.9031 18.8061 18.9031C18.7092 19 18.6123 19 18.5153 19Z" fill="#4D4D4D"></path></svg>