<svg xmlns="http://www.w3.org/2000/svg" width="20" height="20" viewBox="0 0 20 20" fill="none"><path d="M8 16C3.5888 16 0 12.4112 0 8C0 3.5888 3.5888 0 8 0C12.4112 0 16 3.5888 16 8C16 12.4112 12.4112 16 8 16ZM8 1.6C4.4712 1.6 1.6 4.4712 1.6 8C1.6 11.5288 4.4712 14.4 8 14.4C11.5288 14.4 14.4 11.5288 14.4 8C14.4 4.4712 11.5296 1.6 8 1.6Z" fill="#55A2FC"></path><path d="M19.2771 20C19.1823 20.0001 19.0884 19.9815 19.0008 19.9451C18.9132 19.9088 18.8336 19.8556 18.7666 19.7884L13.2114 14.2325C13.1444 14.1655 13.0912 14.0859 13.055 13.9983C13.0187 13.9107 13 13.8168 13 13.722C13 13.6272 13.0187 13.5333 13.055 13.4457C13.0912 13.3581 13.1444 13.2785 13.2114 13.2115C13.2785 13.1444 13.3581 13.0912 13.4456 13.055C13.5332 13.0187 13.6271 13 13.7219 13C13.8167 13 13.9106 13.0187 13.9982 13.055C14.0858 13.0912 14.1653 13.1444 14.2324 13.2115L19.7876 18.7674C19.8889 18.8682 19.9579 18.9969 19.986 19.1371C20.014 19.2772 19.9998 19.4226 19.9451 19.5547C19.8904 19.6867 19.7977 19.7996 19.6788 19.8789C19.5598 19.9582 19.42 20.0003 19.2771 20Z" fill="#55A2FC"></path></svg>