<svg xmlns="http://www.w3.org/2000/svg" width="20" height="22" viewBox="0 0 20 22" fill="none"><g clip-path="url(#clip0_243_32)"><path fill-rule="evenodd" clip-rule="evenodd" d="M16.58 19.2999V19.2819L15.39 6.39194C15.375 6.25231 15.3081 6.12341 15.2025 6.0308C15.0969 5.93819 14.9603 5.88863 14.8199 5.89194H12.38C12.3076 4.85662 11.8451 3.88731 11.0861 3.17951C10.327 2.47172 9.32776 2.07812 8.28992 2.07812C7.25207 2.07812 6.25295 2.47172 5.4939 3.17951C4.73485 3.88731 4.27239 4.85662 4.19995 5.89194H1.76001C1.61979 5.88932 1.4836 5.93913 1.37817 6.0316C1.27275 6.12408 1.20561 6.25258 1.18994 6.39194L0.0100098 19.2839V19.2899C0.0104377 19.2942 0.00969135 19.2984 0.00793457 19.3023C0.00617779 19.3062 0.00346371 19.3095 0 19.3119V19.3369C0.0650931 20.1002 0.42767 20.8072 1.00952 21.3054C1.59137 21.8037 2.34582 22.0531 3.10999 21.9999H13.47C14.2348 22.0544 14.9902 21.8052 15.5724 21.3063C16.1546 20.8074 16.5166 20.099 16.58 19.3349V19.2999ZM5.33997 5.88794C5.34917 5.51662 5.43271 5.15091 5.58557 4.81239C5.73843 4.47386 5.95752 4.16939 6.22998 3.91694C6.79023 3.39358 7.52825 3.10246 8.29492 3.10246C9.0616 3.10246 9.79974 3.39358 10.36 3.91694C10.6293 4.17129 10.8457 4.47636 10.9967 4.81461C11.1477 5.15286 11.2304 5.51763 11.24 5.88794H5.33997ZM4.77002 9.22494C4.84399 9.22694 4.91751 9.21413 4.98645 9.18726C5.05539 9.16039 5.11828 9.12001 5.17139 9.06849C5.22449 9.01696 5.26683 8.95534 5.29578 8.88724C5.32472 8.81914 5.33973 8.74594 5.33997 8.67194V6.99994H11.24V8.67594C11.24 8.82712 11.3 8.9721 11.4069 9.07899C11.5138 9.18589 11.6588 9.24594 11.8099 9.24594C11.9611 9.24594 12.1061 9.18589 12.213 9.07899C12.3199 8.9721 12.38 8.82712 12.38 8.67594V6.99994H14.2999L15.4399 19.3639C15.3691 19.8225 15.1256 20.2367 14.7594 20.5217C14.3932 20.8067 13.9319 20.9409 13.47 20.8969H3.10999C2.64875 20.9429 2.1875 20.8092 1.82239 20.5237C1.45728 20.2381 1.21649 19.8227 1.15002 19.3639L2.28003 6.99994H4.19995V8.67594C4.20059 8.74968 4.21587 8.82256 4.245 8.89031C4.27412 8.95806 4.31656 9.01933 4.36963 9.07053C4.4227 9.12174 4.48533 9.16186 4.55408 9.18854C4.62282 9.21522 4.6963 9.22794 4.77002 9.22594V9.22494Z" fill="#4D4D4D"></path><circle cx="15.5" cy="5.5" r="4.5" fill="#55A2FA"></circle><path d="M14.312 5.852C14.312 6.528 14.432 7.058 14.672 7.442C14.912 7.822 15.312 8.012 15.872 8.012C16.432 8.012 16.832 7.82 17.072 7.436C17.312 7.052 17.432 6.524 17.432 5.852C17.432 5.184 17.312 4.66 17.072 4.28C16.832 3.896 16.432 3.704 15.872 3.704C15.312 3.704 14.912 3.894 14.672 4.274C14.432 4.654 14.312 5.18 14.312 5.852ZM16.748 5.852C16.748 6.34 16.688 6.714 16.568 6.974C16.448 7.234 16.216 7.364 15.872 7.364C15.524 7.364 15.29 7.234 15.17 6.974C15.05 6.714 14.99 6.34 14.99 5.852C14.99 5.368 15.05 4.998 15.17 4.742C15.29 4.486 15.524 4.358 15.872 4.358C16.216 4.358 16.448 4.488 16.568 4.748C16.688 5.004 16.748 5.372 16.748 5.852Z" fill="white"></path></g><defs><clipPath id="clip0_243_32"><rect width="20" height="22" fill="white"></rect></clipPath></defs></svg>