<svg xmlns="http://www.w3.org/2000/svg" width="40" height="40" viewBox="0 0 40 40" fill="none"><g clip-path="url(#clip0_671_16068)"><path d="M19.9995 40C28.269 40 34.9727 38.5584 34.9727 36.7802C34.9727 35.002 28.269 33.5604 19.9995 33.5604C11.7301 33.5604 5.02637 35.002 5.02637 36.7802C5.02637 38.5584 11.7301 40 19.9995 40Z" fill="#8DC3FF"></path><path d="M34.9735 36.7802C34.9735 35.002 28.2698 33.5604 20.0003 33.5604C18.6246 33.5604 17.2928 33.6005 16.0273 33.6752L18.8301 37.7985C18.9083 37.9136 18.9996 38.0121 19.0997 38.0951L20.9973 39.9927C28.8018 39.8823 34.9735 38.4864 34.9735 36.7802Z" fill="url(#paint0_linear_671_16068)"></path><path d="M36.4112 16.4111C36.4112 7.34753 29.0637 0 20.0001 0C10.976 0 3.68022 7.21906 3.58971 16.2428C3.5214 23.0581 7.60822 28.9262 13.4717 31.4712C14.4529 31.8971 15.2922 32.5942 15.8936 33.4788L18.8299 37.7986C19.3914 38.6245 20.6087 38.6245 21.1702 37.7986L24.1064 33.4789C24.7059 32.597 25.5408 31.8991 26.5192 31.4752C32.3393 28.9532 36.4112 23.1581 36.4112 16.4111Z" fill="url(#paint1_linear_671_16068)"></path><path d="M19.9996 37.6003C19.9045 37.6003 19.6661 37.5748 19.5057 37.3389L16.5695 33.019C15.879 32.0032 14.9202 31.2085 13.7969 30.7211C8.02971 28.2178 4.34399 22.5379 4.40705 16.2509C4.44862 12.1038 6.08673 8.22136 9.01959 5.31869C11.9521 2.41634 15.852 0.817749 19.9996 0.817749H19.9997C28.5979 0.817749 35.593 7.81297 35.593 16.4112C35.593 22.6321 31.9035 28.2505 26.1936 30.7248C25.0768 31.2088 24.121 32.0021 23.4297 33.0192L20.4935 37.3389C20.3331 37.5748 20.0947 37.6003 19.9996 37.6003Z" fill="url(#paint2_linear_671_16068)"></path><path d="M19.9995 26.7271C25.6968 26.7271 30.3154 22.1085 30.3154 16.4111C30.3154 10.7138 25.6968 6.09521 19.9995 6.09521C14.3022 6.09521 9.68359 10.7138 9.68359 16.4111C9.68359 22.1085 14.3022 26.7271 19.9995 26.7271Z" fill="#1C85FB"></path><path opacity="0.5" d="M35.8973 20.4971L26.0964 10.6961C24.5717 9.07023 22.4045 8.05408 19.9996 8.05408C15.3841 8.05408 11.6426 11.7956 11.6426 16.4111C11.6426 18.816 12.6587 20.9832 14.2846 22.5079L24.6137 32.837C25.1445 32.2565 25.7919 31.7901 26.5188 31.4752C31.1219 29.4804 34.6309 25.4382 35.8973 20.4971Z" fill="url(#paint3_linear_671_16068)"></path><path d="M19.9996 24.7681C24.6151 24.7681 28.3566 21.0266 28.3566 16.4111C28.3566 11.7956 24.6151 8.05408 19.9996 8.05408C15.3841 8.05408 11.6426 11.7956 11.6426 16.4111C11.6426 21.0266 15.3841 24.7681 19.9996 24.7681Z" fill="url(#paint4_linear_671_16068)"></path></g><defs><linearGradient id="paint0_linear_671_16068" x1="27.7752" y1="38.2701" x2="22.8229" y2="31.9517" gradientUnits="userSpaceOnUse"><stop offset="0.0694804" stop-color="#8DC3FF"></stop><stop offset="1" stop-color="#1D80EF"></stop></linearGradient><linearGradient id="paint1_linear_671_16068" x1="10.0952" y1="6.50572" x2="42.8402" y2="39.2507" gradientUnits="userSpaceOnUse"><stop stop-color="#D3E2FF"></stop><stop offset="1" stop-color="white"></stop></linearGradient><linearGradient id="paint2_linear_671_16068" x1="24.5" y1="24.5" x2="4.97324" y2="1.39391" gradientUnits="userSpaceOnUse"><stop stop-color="#DEE5FF" stop-opacity="0"></stop><stop offset="1" stop-color="#A0C6FF"></stop></linearGradient><linearGradient id="paint3_linear_671_16068" x1="30.7318" y1="27.1433" x2="21.6129" y2="18.0244" gradientUnits="userSpaceOnUse"><stop stop-color="#1C85FB" stop-opacity="0"></stop><stop offset="1" stop-color="#3F99FF"></stop></linearGradient><linearGradient id="paint4_linear_671_16068" x1="17.9538" y1="13.2913" x2="22.8921" y2="20.8222" gradientUnits="userSpaceOnUse"><stop stop-color="#F9F7FC"></stop><stop offset="1" stop-color="#CDE1FF"></stop></linearGradient><clipPath id="clip0_671_16068"><rect width="40" height="40" fill="white"></rect></clipPath></defs></svg>