<svg xmlns="http://www.w3.org/2000/svg" width="75" height="75" viewBox="0 0 75 75" fill="none"><path d="M68.263 65.1556L60.3945 55.0397C62.9442 54.2779 65.1466 52.6473 66.6195 50.431C68.4725 47.228 67.6346 43.319 66.8238 39.5431C66.3335 37.6034 66.0402 35.6192 65.9484 33.6207C66.0399 31.6204 66.3331 29.6344 66.8238 27.6931C67.6294 23.9147 68.4725 20.0082 66.6195 16.8103C64.7005 13.4948 60.8367 12.2677 57.0997 11.0832C55.2394 10.5706 53.4378 9.86509 51.7242 8.97802C50.1693 7.9694 48.7255 6.79914 47.4169 5.48664C44.6445 2.91336 41.5009 0 37.5001 0C33.4992 0 30.3557 2.91336 27.582 5.48534C26.2738 6.79817 24.8304 7.96891 23.276 8.97802C21.5626 9.86331 19.7615 10.5671 17.9018 11.078C14.1647 12.2625 10.301 13.4897 8.38199 16.8052C6.52897 20.0082 7.3669 23.9172 8.17768 27.6931C8.66792 29.6345 8.96081 31.6204 9.05181 33.6207C8.96033 35.621 8.66712 37.607 8.17638 39.5483C7.37078 43.3267 6.52768 47.2332 8.38069 50.431C9.85548 52.6481 12.0604 54.2782 14.6122 55.0384L6.73716 65.1543C6.2988 65.7181 6.40047 66.5305 6.96442 66.9689C7.23533 67.1795 7.57865 67.2737 7.91906 67.231L17.1647 66.0763L19.4471 74.0625C19.5807 74.5306 19.9661 74.8839 20.4441 74.9767C20.525 74.9921 20.6073 75 20.6897 75C21.089 75.0003 21.4661 74.8161 21.7113 74.5009L29.9691 63.8793C32.0012 65.8576 34.6705 67.0494 37.5001 67.2414C40.3297 67.0494 42.999 65.8576 45.0311 63.8793L53.2889 74.497C53.5333 74.8136 53.9104 74.9994 54.3104 75C54.3929 75 54.4751 74.9921 54.5561 74.9767C55.0341 74.8839 55.4194 74.5306 55.5531 74.0625L57.8354 66.0776L67.0811 67.2323C67.7897 67.3212 68.4363 66.8189 68.5252 66.1102C68.5679 65.7698 68.4736 65.4265 68.263 65.1556ZM21.2328 70.9022L19.3462 64.2996C19.1708 63.6871 18.5754 63.2937 17.9432 63.3724L10.7018 64.2776L17.1919 55.9345L17.907 56.1634C19.7649 56.6746 21.5642 57.3784 23.276 58.2634C24.8309 59.272 26.2747 60.4422 27.5833 61.7547L28.0281 62.166L21.2328 70.9022ZM37.5001 64.6552C34.513 64.6552 32.0005 62.3276 29.3393 59.8603C27.8915 58.4138 26.2923 57.1277 24.5691 56.0237C22.6942 55.0422 20.7206 54.262 18.6816 53.6961C15.2639 52.6112 12.035 51.5871 10.6178 49.1379C9.26518 46.7987 9.96345 43.5388 10.7044 40.0862C11.2376 37.9689 11.5506 35.8023 11.638 33.6207C11.5511 31.4391 11.2386 29.2725 10.7057 27.1552C9.96475 23.7039 9.26647 20.444 10.6191 18.1034C12.0415 15.6543 15.2652 14.6302 18.6828 13.5453C20.7216 12.9792 22.6945 12.199 24.5691 11.2177C26.2918 10.1137 27.8907 8.82737 29.338 7.38103C32.0005 4.91379 34.513 2.58621 37.5001 2.58621C40.4872 2.58621 42.9997 4.91379 45.6609 7.38103C47.1087 8.82753 48.7079 10.1137 50.4311 11.2177C52.306 12.1991 54.2796 12.9794 56.3186 13.5453C59.7363 14.6302 62.9652 15.6543 64.3824 18.1034C65.735 20.4427 65.0367 23.7026 64.2958 27.1552C63.7625 29.2725 63.4496 31.4391 63.3622 33.6207C63.4491 35.8023 63.7616 37.9689 64.2945 40.0862C65.0354 43.5375 65.7337 46.7974 64.3811 49.1379C62.9587 51.5871 59.735 52.6112 56.3173 53.6961C54.2786 54.2622 52.3056 55.0424 50.4311 56.0237C48.7084 57.1277 47.1095 58.414 45.6622 59.8603C42.9997 62.3276 40.4872 64.6552 37.5001 64.6552ZM57.0635 63.3724C56.4313 63.2937 55.8358 63.6871 55.6604 64.2996L53.7673 70.9022L46.9734 62.1672L47.4182 61.756C48.7263 60.4432 50.1698 59.2725 51.7242 58.2634C53.4376 57.3781 55.2387 56.6743 57.0984 56.1634L57.8135 55.9345L64.3048 64.2776L57.0635 63.3724Z" fill="white"></path><path d="M37.5005 10.345C24.6456 10.345 14.2246 20.7659 14.2246 33.6208C14.2246 46.4757 24.6456 56.8967 37.5005 56.8967C50.3554 56.8967 60.7763 46.4757 60.7763 33.6208C60.7615 20.7721 50.3492 10.36 37.5005 10.345ZM37.5005 54.3105C26.074 54.3105 16.8108 45.0473 16.8108 33.6208C16.8108 22.1943 26.074 12.9312 37.5005 12.9312C48.927 12.9312 58.1901 22.1943 58.1901 33.6208C58.1765 45.0418 48.9215 54.2969 37.5005 54.3105Z" fill="white"></path><path d="M52.4186 28.2191C51.932 27.5507 51.1555 27.1552 50.3289 27.1548H42.4125L39.9556 19.6199C39.5097 18.263 38.0481 17.5246 36.6912 17.9706C35.9106 18.2271 35.2984 18.8394 35.0418 19.6199L32.5914 27.1548H24.6686C23.2402 27.1542 22.0817 28.3114 22.0811 29.7398C22.0806 30.5673 22.4763 31.345 23.1453 31.832L29.5539 36.4872L27.1061 44.0221C26.6645 45.3805 27.4078 46.8396 28.7661 47.281C29.5537 47.537 30.4162 47.4003 31.0862 46.9134L37.4987 42.2596L43.9086 46.9147C44.8116 47.5855 46.0471 47.5855 46.95 46.9147C47.8663 46.2635 48.2478 45.0887 47.8888 44.0234L45.441 36.4872L51.8496 31.832C53.0045 30.9915 53.2592 29.3738 52.4186 28.2191ZM43.1599 34.9484C42.7064 35.278 42.5168 35.8623 42.6905 36.3954L45.4293 44.8238L38.2591 39.6152C37.806 39.2862 37.1927 39.2862 36.7397 39.6152L29.5694 44.8238L32.3069 36.3954C32.48 35.8626 32.2906 35.2791 31.8375 34.9497L24.6686 29.741H33.5302C34.0904 29.741 34.5868 29.3803 34.7599 28.8475L37.4987 20.4191L40.2375 28.8462C40.4106 29.379 40.907 29.7398 41.4673 29.7398L50.3289 29.741L43.1599 34.9484Z" fill="white"></path></svg>