<svg xmlns="http://www.w3.org/2000/svg" width="75" height="75" viewBox="0 0 75 75" fill="none"><g clip-path="url(#clip0_197_1713)"><path d="M66.5691 10.096L67.792 13.5344C67.8443 13.6816 67.948 13.7982 68.0788 13.8573L71.1336 15.2336C71.5651 15.4282 71.5651 16.1158 71.1336 16.3102L68.0788 17.6865C67.948 17.7454 67.8444 17.8622 67.792 18.0094L66.5691 21.4478C66.3964 21.9335 65.7854 21.9335 65.6127 21.4478L64.3899 18.0094C64.3376 17.8622 64.2339 17.7456 64.1031 17.6865L61.0483 16.3102C60.6167 16.1158 60.6167 15.428 61.0483 15.2336L64.1031 13.8573C64.2339 13.7984 64.3374 13.6816 64.3899 13.5344L65.6127 10.096C65.7854 9.61025 66.3963 9.61025 66.5691 10.096Z" fill="white"></path><path d="M20.8638 0.270264L21.7708 2.82085C21.8096 2.92998 21.8865 3.01655 21.9835 3.06035L24.2496 4.08135C24.5698 4.22563 24.5698 4.73569 24.2496 4.87983L21.9835 5.90083C21.8865 5.94448 21.8096 6.03105 21.7708 6.14033L20.8638 8.69092C20.7356 9.05127 20.2824 9.05127 20.1542 8.69092L19.2472 6.14033C19.2084 6.0312 19.1315 5.94463 19.0345 5.90083L16.7684 4.87983C16.4483 4.73555 16.4483 4.22549 16.7684 4.08135L19.0345 3.06035C19.1315 3.0167 19.2084 2.93013 19.2472 2.82085L20.1542 0.270264C20.2824 -0.0900879 20.7356 -0.0900879 20.8638 0.270264Z" fill="white"></path><path d="M57.902 5.59658C57.902 6.58887 57.0977 7.39321 56.1054 7.39321C55.1131 7.39321 54.3086 6.58872 54.3086 5.59658C54.3086 4.6043 55.1129 3.7998 56.1054 3.7998C57.0977 3.7998 57.902 4.60415 57.902 5.59658Z" fill="white"></path><path d="M8.85391 15.6042C8.85391 17.0699 7.66562 18.2582 6.1999 18.2582C4.73418 18.2582 3.5459 17.0699 3.5459 15.6042C3.5459 14.1385 4.73418 12.9502 6.1999 12.9502C7.66562 12.9503 8.85391 14.1385 8.85391 15.6042Z" fill="white"></path><path d="M36.2578 75.0005C19.5267 75.0005 5.91504 61.3887 5.91504 44.6577C5.91504 27.9267 19.5267 14.3149 36.2578 14.3149C52.989 14.3149 66.6006 27.9267 66.6006 44.6577C66.6004 61.3887 52.9888 75.0005 36.2578 75.0005ZM36.2578 17.261C21.1512 17.261 8.86128 29.5511 8.86128 44.6576C8.86128 59.7641 21.1513 72.0542 36.2578 72.0542C51.3643 72.0542 63.6543 59.7642 63.6543 44.6577C63.6543 29.5512 51.3643 17.261 36.2578 17.261Z" fill="white"></path><path d="M29.4336 37.8649C28.6202 37.8649 27.9606 37.2055 27.9606 36.3919C27.9606 34.1311 26.1213 32.2918 23.8606 32.2918C21.5998 32.2918 19.7605 34.1311 19.7605 36.3919C19.7605 37.2055 19.1009 37.8649 18.2875 37.8649C17.4741 37.8649 16.8145 37.2055 16.8145 36.3919C16.8145 32.5065 19.9754 29.3457 23.8608 29.3457C27.746 29.3457 30.907 32.5067 30.907 36.3919C30.9067 37.2055 30.2471 37.8649 29.4336 37.8649Z" fill="white"></path><path d="M54.2276 37.8649C53.4142 37.8649 52.7545 37.2055 52.7545 36.3919C52.7545 34.1311 50.9153 32.2918 48.6544 32.2918C46.3937 32.2918 44.5545 34.1311 44.5545 36.3919C44.5545 37.2055 43.8949 37.8649 43.0814 37.8649C42.268 37.8649 41.6084 37.2055 41.6084 36.3919C41.6084 32.5065 44.7694 29.3457 48.6546 29.3457C52.5399 29.3457 55.7009 32.5067 55.7009 36.3919C55.7006 37.2055 55.041 37.8649 54.2276 37.8649Z" fill="white"></path><path d="M55.8619 43.731H16.6527C15.8393 43.731 15.1797 44.3904 15.1797 45.204C15.1797 56.8262 24.6351 66.2816 36.2573 66.2816C47.8795 66.2816 57.335 56.8262 57.335 45.204C57.335 44.3906 56.6753 43.731 55.8619 43.731ZM25.0669 59.4593C27.0774 56.2368 31.4141 54.1353 36.2573 54.1353C41.1004 54.1353 45.4371 56.2368 47.4477 59.4593C44.3636 61.8856 40.4768 63.3355 36.2573 63.3355C32.0378 63.3355 28.151 61.8856 25.0669 59.4593ZM49.6321 57.4316C46.9773 53.6332 41.8715 51.1892 36.2572 51.1892C30.6427 51.1892 25.5364 53.6329 22.882 57.4313C20.2409 54.5447 18.5184 50.8042 18.1848 46.6772H54.3294C53.996 50.8044 52.2735 54.545 49.6321 57.4316Z" fill="white"></path></g><defs><clipPath id="clip0_197_1713"><rect width="75" height="75" fill="white"></rect></clipPath></defs></svg>