<svg xmlns="http://www.w3.org/2000/svg" width="66" height="75" viewBox="0 0 66 75" fill="none"><g clip-path="url(#clip0_197_1693)"><path d="M32.5713 0C18.8149 0 6.75977 12.0551 6.75977 25.8115C6.75977 39.5239 18.7562 51.623 32.5713 51.623C46.5183 51.623 58.3828 39.3919 58.3828 25.8115C58.3828 12.0551 46.313 0 32.5713 0ZM32.5713 48.6899C27.9663 48.6899 23.3173 47.106 19.3869 44.2169C19.7242 37.236 25.4878 31.6777 32.5713 31.6777C39.6548 31.6777 45.4184 37.236 45.7557 44.2169C41.8253 47.106 37.1616 48.6899 32.5713 48.6899ZM25.2385 21.4118C25.2385 17.3641 28.5236 14.079 32.5713 14.079C36.619 14.079 39.9041 17.3641 39.9041 21.4118C39.9041 25.4595 36.619 28.7446 32.5713 28.7446C28.5236 28.7446 25.2385 25.4595 25.2385 21.4118ZM48.4248 41.929C47.3982 36.3268 43.4678 31.7951 38.4229 29.8299C41.092 27.9673 42.8372 24.8876 42.8372 21.4118C42.8372 15.7509 38.2322 11.1459 32.5713 11.1459C26.9103 11.1459 22.3053 15.7509 22.3053 21.4118C22.3053 24.9022 24.0505 27.982 26.7197 29.8299C21.6747 31.7951 17.7443 36.3121 16.7177 41.929C12.274 37.5733 9.69289 31.7217 9.69289 25.8115C9.69289 13.6244 20.3841 2.93313 32.5713 2.93313C44.7584 2.93313 55.4496 13.6244 55.4496 25.8115C55.4496 31.7217 52.8685 37.5733 48.4248 41.929Z" fill="white"></path><path d="M27.3947 74.9999C27.2334 74.9999 27.0867 74.9559 26.9694 74.8533C26.7347 74.6919 26.6321 74.4133 26.6761 74.1346L27.6 68.7523L23.6989 64.9393C23.4936 64.7486 23.4203 64.4553 23.5083 64.1913C23.5963 63.9274 23.8163 63.7367 24.0949 63.6927L29.4919 62.9008L31.9117 58.0024C32.029 57.7531 32.293 57.5918 32.5717 57.5918C32.8503 57.5918 33.0996 57.7531 33.2316 58.0024L35.6368 62.9154L41.0337 63.7074C41.3124 63.7514 41.5323 63.942 41.6203 64.206C41.7083 64.47 41.635 64.7633 41.4297 64.9539L37.5286 68.767L38.4526 74.1493C38.4966 74.4279 38.3939 74.7066 38.1593 74.8679C38.0273 74.9559 37.8806 75.0146 37.734 75.0146C37.6166 75.0146 37.4993 74.9852 37.3966 74.9266L32.5717 72.3894L27.7467 74.9266C27.6293 74.9706 27.512 74.9999 27.3947 74.9999ZM32.5717 70.8202C32.689 70.8202 32.8063 70.8495 32.909 70.9082L36.766 72.9321L36.0327 68.635C35.9887 68.4004 36.0767 68.1511 36.2381 67.9897L39.3618 64.9539L35.0501 64.3233C34.8155 64.294 34.6102 64.1327 34.4928 63.9273L32.5717 60.0263L30.6505 63.9273C30.5478 64.1473 30.3425 64.294 30.0932 64.3233L25.7815 64.9539L28.9052 67.9897C29.0812 68.1511 29.1546 68.4004 29.1106 68.635L28.3773 72.9321L32.2343 70.9082C32.337 70.8349 32.4543 70.8202 32.5717 70.8202Z" fill="white"></path><path d="M3.92984 74.9999C3.76852 74.9999 3.62186 74.9559 3.50454 74.8533C3.26989 74.6919 3.16723 74.4133 3.21123 74.1346L4.13516 68.7523L0.234105 64.9393C0.028786 64.7486 -0.0445421 64.4553 0.0434517 64.1913C0.131445 63.9274 0.35143 63.7367 0.630076 63.6927L6.02702 62.9008L8.44685 58.0024C8.56418 57.7531 8.82816 57.5918 9.1068 57.5918C9.38545 57.5918 9.63477 57.7531 9.76676 58.0024L12.1719 62.9154L17.5689 63.7074C17.8475 63.7514 18.0675 63.942 18.1555 64.206C18.2435 64.47 18.1702 64.7633 17.9648 64.9539L14.0638 68.767L14.9877 74.1493C15.0317 74.4279 14.9291 74.7066 14.6944 74.8679C14.5624 74.9559 14.4158 75.0146 14.2691 75.0146C14.1518 75.0146 14.0345 74.9852 13.9318 74.9266L9.1068 72.3894L4.28182 74.9266C4.16449 74.9706 4.04717 74.9999 3.92984 74.9999ZM9.1068 70.8202C9.22413 70.8202 9.34145 70.8495 9.44411 70.9082L13.3012 72.9321L12.5679 68.635C12.5239 68.4004 12.6119 68.1511 12.7732 67.9897L15.897 64.9539L11.5853 64.3087C11.3506 64.2793 11.1453 64.118 11.028 63.9127L9.1068 60.0116L7.18561 63.9127C7.08295 64.1327 6.87763 64.2793 6.62831 64.3087L2.31662 64.9393L5.42573 67.9751C5.60172 68.1364 5.67505 68.3857 5.63105 68.6204L4.89777 72.9174L8.75483 70.8935C8.87215 70.8349 8.98948 70.8202 9.1068 70.8202Z" fill="white"></path><path d="M50.8595 74.9999C50.6982 74.9999 50.5516 74.9559 50.4342 74.8533C50.2142 74.6919 50.0969 74.4133 50.1409 74.1346L51.0649 68.7523L47.1638 64.9393C46.9585 64.7486 46.8851 64.4553 46.9731 64.1913C47.0611 63.9274 47.2811 63.7367 47.5598 63.6927L52.9567 62.9008L55.3765 58.0024C55.4939 57.7531 55.7579 57.5918 56.0365 57.5918C56.3151 57.5918 56.5645 57.7531 56.6965 58.0024L59.1016 62.9154L64.4986 63.7074C64.7772 63.7514 64.9972 63.942 65.0852 64.206C65.1732 64.47 65.0999 64.7633 64.8945 64.9539L60.9935 68.767L61.9174 74.1493C61.9614 74.4279 61.8588 74.7066 61.6241 74.8679C61.4921 74.9559 61.3455 75.0146 61.1988 75.0146C61.0815 75.0146 60.9642 74.9852 60.8615 74.9266L56.0365 72.3894L51.2115 74.9266C51.0942 74.9706 50.9769 74.9999 50.8595 74.9999ZM56.0365 70.8202C56.1538 70.8202 56.2711 70.8495 56.3738 70.9082L60.2309 72.9321L59.4976 68.635C59.4536 68.4004 59.5416 68.1511 59.7029 67.9897L62.8267 64.9539L58.515 64.3233C58.2803 64.294 58.075 64.1327 57.9577 63.9273L56.0365 60.0263L54.1153 63.9273C54.0126 64.1473 53.8073 64.294 53.558 64.3233L49.2463 64.9539L52.3701 67.9897C52.5461 68.1511 52.6194 68.4004 52.5754 68.635L51.8421 72.9321L55.6992 70.9082C55.8018 70.8349 55.9192 70.8202 56.0365 70.8202Z" fill="white"></path></g><defs><clipPath id="clip0_197_1693"><rect width="65.13" height="75" fill="white"></rect></clipPath></defs></svg>