<svg xmlns="http://www.w3.org/2000/svg" width="51" height="70" viewBox="0 0 51 70" fill="none"><g clip-path="url(#clip0_197_1703)"><path fill-rule="evenodd" clip-rule="evenodd" d="M20.7612 1.60893C21.7738 0.581751 23.1418 0 24.5918 0H45.2677C48.3422 0 50.75 2.60703 50.75 5.69545V45.7227C50.75 46.6014 50.0487 47.3136 49.1836 47.3136C48.3186 47.3136 47.6173 46.6014 47.6173 45.7227V5.69545C47.6173 4.2657 46.5165 3.18182 45.2677 3.18182H24.5918C23.9755 3.18182 23.4021 3.4264 22.9739 3.86131L22.9717 3.86362L3.86437 23.1113C3.86372 23.112 3.86307 23.1126 3.86241 23.1133C3.40755 23.5764 3.13272 24.2517 3.13272 24.9136V64.3045C3.13272 65.7343 4.23351 66.8182 5.48225 66.8182H30.0741C30.9391 66.8182 31.6404 67.5305 31.6404 68.4091C31.6404 69.2877 30.9391 70 30.0741 70H5.48225C2.40785 70 0 67.393 0 64.3045V24.9136C0 23.4129 0.601541 21.9255 1.64921 20.8614L1.65149 20.8591L20.7588 1.61142C20.7596 1.61059 20.7604 1.60976 20.7612 1.60893Z" fill="white"></path><path fill-rule="evenodd" clip-rule="evenodd" d="M21.7729 1.11353C22.638 1.11353 23.3392 1.8258 23.3392 2.70443V18.8363C23.3392 22.4194 20.4764 25.3272 16.9485 25.3272H1.75483C0.889759 25.3272 0.188477 24.6149 0.188477 23.7363C0.188477 22.8576 0.889759 22.1453 1.75483 22.1453H16.9485C18.7462 22.1453 20.2065 20.6622 20.2065 18.8363V2.70443C20.2065 1.8258 20.9078 1.11353 21.7729 1.11353Z" fill="white"></path><path fill-rule="evenodd" clip-rule="evenodd" d="M19.7998 41.6807C20.4579 42.1032 20.6542 42.9876 20.2382 43.656C18.2831 46.7977 16.8367 51.0471 16.443 56.7681C16.3887 57.5569 15.7151 58.1517 14.9384 58.0966C14.1618 58.0415 13.5762 57.3573 13.6304 56.5684C14.0513 50.4531 15.6123 45.7297 17.855 42.126C18.271 41.4575 19.1417 41.2582 19.7998 41.6807Z" fill="white"></path><path fill-rule="evenodd" clip-rule="evenodd" d="M34.9818 34.2911C32.3873 34.7 29.0357 35.6417 25.9042 37.7522C25.2554 38.1894 24.3805 38.0097 23.9501 37.3508C23.5196 36.6919 23.6965 35.8033 24.3453 35.3661C27.9178 32.9584 31.6931 31.9115 34.5495 31.4613C35.9821 31.2355 37.1971 31.1577 38.0602 31.1366C38.4922 31.126 38.8373 31.1296 39.0788 31.1362C39.1996 31.1394 39.2946 31.1435 39.3618 31.1468C39.3953 31.1485 39.422 31.1501 39.4414 31.1512L39.4651 31.1527L39.4728 31.1533L39.4768 31.1535C39.4773 31.1536 39.4778 31.1536 39.3791 32.5748L39.4778 31.1536C40.2544 31.2093 40.8396 31.8938 40.7848 32.6826C40.7301 33.4707 40.0572 34.0647 39.2815 34.0103C39.2811 34.0103 39.2807 34.0103 39.2803 34.0102L39.2794 34.0102L39.272 34.0097C39.2625 34.0091 39.2459 34.0082 39.2225 34.007C39.1758 34.0046 39.1021 34.0015 39.0034 33.9988C38.8058 33.9934 38.5087 33.9901 38.1281 33.9994C37.3661 34.018 36.2747 34.0873 34.9818 34.2911Z" fill="white"></path><path fill-rule="evenodd" clip-rule="evenodd" d="M21.7731 36.432C20.1294 36.432 18.797 37.7853 18.797 39.4547C18.797 41.1241 20.1294 42.4775 21.7731 42.4775C23.4167 42.4775 24.7491 41.1241 24.7491 39.4547C24.7491 37.7853 23.4167 36.432 21.7731 36.432ZM15.9775 39.4547C15.9775 36.2038 18.5723 33.5684 21.7731 33.5684C24.9738 33.5684 27.5686 36.2038 27.5686 39.4547C27.5686 42.7057 24.9738 45.3411 21.7731 45.3411C18.5723 45.3411 15.9775 42.7057 15.9775 39.4547Z" fill="white"></path><path fill-rule="evenodd" clip-rule="evenodd" d="M30.018 47.2872C30.3939 46.9059 30.9491 46.7715 31.4539 46.9399L47.8693 52.4126L47.8755 52.4146C49.0279 52.8048 49.7792 53.9024 49.7792 55.1094V60.1684C49.7792 60.8652 49.5476 61.5964 48.9986 62.1589L44.5736 66.7799C44.0322 67.3809 43.247 67.6993 42.4294 67.6434L37.592 67.4215L37.5774 67.4208C36.4453 67.3569 35.4505 66.5991 35.0732 65.5132C35.0695 65.5027 35.066 65.4922 35.0626 65.4816L29.6743 48.7453C29.5092 48.2323 29.6421 47.6686 30.018 47.2872ZM33.2193 50.5424L37.7313 64.5571C37.7318 64.5575 37.7322 64.558 37.7328 64.5584C37.7331 64.5587 37.7335 64.559 37.7339 64.5593C37.7351 64.5602 37.7362 64.5609 37.7372 64.5615C37.7373 64.5615 37.7374 64.5616 37.7375 64.5616L42.5532 64.7825L46.9595 60.1811C46.9597 60.1774 46.9598 60.1732 46.9598 60.1684V55.1233L33.2193 50.5424Z" fill="white"></path><path fill-rule="evenodd" clip-rule="evenodd" d="M40.6554 58.7256C41.1801 58.1414 42.0718 58.0999 42.6469 58.6328L46.2182 61.9419C46.7934 62.4749 46.8343 63.3805 46.3096 63.9647C45.7849 64.5489 44.8932 64.5904 44.318 64.0575L40.7467 60.7484C40.1716 60.2154 40.1307 59.3098 40.6554 58.7256Z" fill="white"></path></g><defs><clipPath id="clip0_197_1703"><rect width="50.75" height="70" fill="white"></rect></clipPath></defs></svg>