<svg xmlns="http://www.w3.org/2000/svg" width="45" height="45" viewBox="0 0 45 45" fill="none"><g clip-path="url(#clip0_234_519)"><path fill-rule="evenodd" clip-rule="evenodd" d="M43.5471 26.125C43.2376 25.6877 42.8365 25.3231 42.3718 25.0564C41.9071 24.7898 41.3899 24.6275 40.8561 24.581C40.456 24.5442 40.0528 24.5993 39.6772 24.7421C39.3017 24.885 38.9637 25.1117 38.6891 25.405C38.5691 25.534 38.4391 25.676 38.3021 25.829C37.7014 25.2614 36.9257 24.9144 36.1021 24.845C35.7021 24.8088 35.2992 24.8641 34.9237 25.0067C34.5483 25.1493 34.2102 25.3754 33.9351 25.668C32.7421 26.952 30.6351 29.4619 28.9731 31.4589C28.7552 31.3275 28.523 31.2212 28.2811 31.142C27.4891 30.794 16.5651 26.042 11.7221 26.042C3.90011 26.042 0.307112 30.322 0.158112 30.504C0.0480517 30.6386 -0.00497712 30.8109 0.0103455 30.9842C0.025668 31.1574 0.108127 31.3178 0.240112 31.431C0.30497 31.4865 0.38026 31.5285 0.461578 31.5545C0.542897 31.5806 0.628604 31.5901 0.713654 31.5825C0.798703 31.575 0.881383 31.5505 0.956848 31.5106C1.03231 31.4706 1.09904 31.4161 1.15311 31.35C1.89417 30.5501 2.75926 29.8748 3.71512 29.35C6.16326 27.9955 8.92467 27.3088 11.7221 27.359C16.3741 27.359 27.6831 32.31 27.7971 32.359C28.0097 32.4364 28.2146 32.5335 28.4091 32.6489C28.5887 32.7717 28.7485 32.9211 28.8831 33.092C29.0838 33.347 29.225 33.6435 29.2963 33.9601C29.3676 34.2767 29.3671 34.6052 29.295 34.9215C29.2229 35.2379 29.081 35.5342 28.8796 35.7886C28.6782 36.043 28.4225 36.2492 28.1311 36.392C27.644 36.6177 27.0902 36.6533 26.5781 36.492L19.5031 34.51C19.3359 34.465 19.1577 34.4884 19.0077 34.5749C18.8576 34.6613 18.7481 34.8038 18.7031 34.971C18.6589 35.1385 18.6814 35.3167 18.7659 35.4679C18.8504 35.6192 18.9903 35.7317 19.1561 35.7819L26.2221 37.762C26.6487 37.8952 27.0975 37.9423 27.5425 37.9006C27.9875 37.8589 28.4197 37.7291 28.8141 37.5189C29.2138 37.3052 29.5674 37.0148 29.8546 36.6642C30.1419 36.3136 30.3572 35.9099 30.4881 35.476C30.575 35.1907 30.626 34.8958 30.6401 34.598L32.5401 34.398C32.7086 34.3785 32.8628 34.2943 32.9701 34.163C33.0171 34.106 37.6701 28.421 39.6331 26.307C40.4481 25.427 41.9051 26.051 42.4941 26.888C43.4001 28.176 42.2741 29.582 41.9071 29.983C40.1071 31.95 36.8071 36.002 36.2071 36.732L22.7691 43.577L15.8521 40.613C15.6928 40.5471 15.5139 40.5472 15.3547 40.6132C15.1955 40.6792 15.069 40.8057 15.0031 40.965C14.9373 41.1256 14.9365 41.3055 15.0009 41.4668C15.0652 41.628 15.1897 41.7579 15.3481 41.829L22.5401 44.9119C22.6265 44.9483 22.7196 44.9654 22.8132 44.9621C22.9068 44.9588 22.9986 44.9352 23.0821 44.893L36.9151 37.854C36.9963 37.8126 37.0678 37.7547 37.1251 37.684C37.1631 37.638 40.9441 32.978 42.8591 30.884C44.2691 29.347 44.5301 27.522 43.5471 26.125ZM32.1411 33.117L30.4521 33.298C30.332 32.9534 30.1596 32.6293 29.9411 32.337C31.3541 30.637 33.6491 27.898 34.8761 26.575C35.0217 26.4241 35.1998 26.3085 35.3968 26.2367C35.5938 26.165 35.8046 26.1391 36.0131 26.161C36.5464 26.211 37.0471 26.4396 37.4341 26.81C35.4891 29.045 32.8401 32.262 32.1411 33.117ZM12.6691 39.25L9.8981 38.062C9.81847 38.0278 9.73277 38.0101 9.64612 38.01H0.655121C0.480078 38.01 0.31219 38.0795 0.188416 38.2033C0.0646415 38.327 -0.00488281 38.4949 -0.00488281 38.6699C-0.00488281 38.845 0.0646415 39.0129 0.188416 39.1367C0.31219 39.2605 0.480078 39.33 0.655121 39.33H9.51511L12.1611 40.464C12.2448 40.4983 12.3347 40.5148 12.4252 40.5125C12.5156 40.5102 12.6045 40.489 12.6864 40.4505C12.7682 40.4119 12.8411 40.3567 12.9005 40.2885C12.9598 40.2202 13.0043 40.1404 13.0311 40.054C13.0785 39.8989 13.0679 39.7318 13.0013 39.5839C12.9347 39.436 12.8167 39.3173 12.6691 39.25ZM34.4591 22.005L31.6981 22.405C33.401 20.5777 34.5463 18.3018 34.9992 15.8454C35.4521 13.389 35.1936 10.8544 34.2543 8.53994C33.315 6.2255 31.7339 4.22769 29.6972 2.7817C27.6605 1.33571 25.253 0.501788 22.7583 0.378136C20.2636 0.254484 17.7854 0.846205 15.6158 2.0837C13.4461 3.3212 11.6751 5.15292 10.5115 7.36312C9.34793 9.57332 8.84011 12.07 9.04785 14.5591C9.25559 17.0482 10.1702 19.4262 11.6841 21.413C13.3796 23.6736 15.7557 25.3305 18.4631 26.14C18.5484 26.1635 18.6376 26.1695 18.7252 26.1576C18.8129 26.1457 18.8972 26.1162 18.9731 26.0708C19.049 26.0253 19.1149 25.965 19.1668 25.8933C19.2187 25.8217 19.2556 25.7402 19.2751 25.654C19.3116 25.4907 19.2854 25.3197 19.2016 25.1748C19.1179 25.03 18.9828 24.9219 18.8231 24.872C16.3127 24.1639 14.1057 22.6479 12.5438 20.5587C10.982 18.4696 10.1524 15.9239 10.1836 13.3157C10.2148 10.7075 11.1049 8.18222 12.7162 6.131C14.3275 4.07979 16.5701 2.61701 19.0967 1.96908C21.6234 1.32115 24.2932 1.52427 26.6927 2.54696C29.0923 3.56964 31.0878 5.35482 32.3702 7.62618C33.6527 9.89754 34.1506 12.5284 33.7869 15.1113C33.4231 17.6942 32.218 20.0851 30.3581 21.914V18.434C30.3581 18.2616 30.2896 18.0962 30.1677 17.9743C30.0458 17.8524 29.8805 17.784 29.7081 17.784C29.5357 17.784 29.3704 17.8524 29.2485 17.9743C29.1266 18.0962 29.0581 18.2616 29.0581 18.434V23.362C29.0584 23.4552 29.0785 23.5474 29.117 23.6324C29.1555 23.7174 29.2115 23.7932 29.2814 23.855C29.3513 23.9168 29.4335 23.9631 29.5225 23.9908C29.6116 24.0186 29.7055 24.0271 29.7981 24.016L34.6391 23.316C34.813 23.2915 34.9699 23.1988 35.0755 23.0586C35.1811 22.9183 35.2267 22.7418 35.2021 22.568C35.1776 22.3941 35.085 22.2371 34.9447 22.1316C34.8044 22.026 34.628 21.9804 34.4541 22.005H34.4591ZM22.1011 12.672H21.4091C21.0377 12.6524 20.688 12.4912 20.432 12.2214C20.176 11.9516 20.0333 11.5939 20.0333 11.2219C20.0333 10.85 20.176 10.4923 20.432 10.2226C20.688 9.95277 21.0377 9.79151 21.4091 9.772H24.1691C24.3396 9.76536 24.5009 9.69292 24.6191 9.56997C24.7374 9.44701 24.8034 9.28305 24.8034 9.11245C24.8034 8.94185 24.7374 8.77788 24.6191 8.65493C24.5009 8.53198 24.3396 8.4596 24.1691 8.45296H22.7421V7.704C22.7421 7.53161 22.6736 7.36625 22.5517 7.24435C22.4298 7.12245 22.2645 7.05398 22.0921 7.05398C21.9197 7.05398 21.7544 7.12245 21.6325 7.24435C21.5106 7.36625 21.4421 7.53161 21.4421 7.704V8.45296H21.3981C20.6722 8.46675 19.9806 8.76485 19.4721 9.2831C18.9636 9.80136 18.6788 10.4984 18.6788 11.2244C18.6788 11.9505 18.9636 12.6476 19.4721 13.1659C19.9806 13.6841 20.6722 13.9822 21.3981 13.996H22.0901C22.4615 14.0155 22.8112 14.1768 23.0672 14.4466C23.3232 14.7163 23.4659 15.074 23.4659 15.4459C23.4659 15.8179 23.3232 16.1756 23.0672 16.4454C22.8112 16.7152 22.4615 16.8764 22.0901 16.896H19.3291C19.1541 16.896 18.9862 16.9655 18.8624 17.0893C18.7387 17.213 18.6691 17.3809 18.6691 17.556C18.6691 17.731 18.7387 17.8989 18.8624 18.0227C18.9862 18.1464 19.1541 18.216 19.3291 18.216H21.4481V18.962C21.4481 19.1344 21.5166 19.2997 21.6385 19.4216C21.7604 19.5435 21.9257 19.612 22.0981 19.612C22.2705 19.612 22.4358 19.5435 22.5577 19.4216C22.6796 19.2997 22.7481 19.1344 22.7481 18.962V18.135C23.3969 17.9651 23.9624 17.5662 24.34 17.0119C24.7175 16.4576 24.8818 15.7854 24.8023 15.1194C24.7228 14.4534 24.405 13.8387 23.9076 13.3889C23.4101 12.939 22.7667 12.6843 22.0961 12.672H22.1011Z" fill="white"></path></g><defs><clipPath id="clip0_234_519"><rect width="44.125" height="45" fill="white"></rect></clipPath></defs></svg>