<svg xmlns="http://www.w3.org/2000/svg" width="55" height="35" viewBox="0 0 55 35" fill="none"><path fill-rule="evenodd" clip-rule="evenodd" d="M52.4282 21.3561C52.2439 21.3534 52.066 21.4235 51.933 21.5512C51.8001 21.6788 51.7229 21.8538 51.7182 22.038V28.4481H49.8481L49.8282 28.2681C49.6247 26.819 48.8593 25.5081 47.6973 24.6185C46.5354 23.729 45.0702 23.3323 43.6182 23.5141C42.3646 23.6456 41.1901 24.189 40.2782 25.0591C39.3845 25.9089 38.8151 27.0437 38.6682 28.2681L38.6482 28.4481H19.0172V2.35609H51.7172V5.34505C51.7269 5.52683 51.8058 5.69799 51.9379 5.82326C52.07 5.94852 52.2451 6.01839 52.4272 6.01839C52.6092 6.01839 52.7844 5.94852 52.9164 5.82326C53.0485 5.69799 53.1275 5.52683 53.1371 5.34505V1.67305C53.1324 1.48879 53.0552 1.31386 52.9223 1.18617C52.7894 1.05849 52.6115 0.988348 52.4272 0.991042H18.3062C18.1219 0.988348 17.944 1.05849 17.811 1.18617C17.6781 1.31386 17.6009 1.48879 17.5962 1.67305V2.7621H6.82214C5.78774 2.74492 4.78854 3.13755 4.04254 3.85432C3.29654 4.5711 2.8643 5.55382 2.84015 6.58809V7.87306C2.84487 8.05732 2.92207 8.23231 3.05499 8.36C3.18792 8.48768 3.36587 8.55776 3.55017 8.55507H4.85016L4.11517 17.0371L3.96918 17.0731C3.1337 17.2689 2.38732 17.7376 1.84814 18.4052C1.30897 19.0728 1.0078 19.9011 0.992188 20.759V28.2451C0.996908 28.4295 1.07425 28.6046 1.2074 28.7323C1.34054 28.86 1.51872 28.93 1.70319 28.9271H3.76617L3.78815 29.1191C3.84771 29.8529 4.05574 30.5669 4.39954 31.2178C4.74333 31.8688 5.21572 32.4432 5.78815 32.9061C6.9081 33.8186 8.32173 34.2925 9.76538 34.2395C11.209 34.1865 12.5841 33.6102 13.6342 32.6181C14.6026 31.6961 15.1986 30.4506 15.3091 29.1181L15.3242 28.9301H15.5242C15.5398 28.9289 15.5555 28.9289 15.5712 28.9301H17.6042V29.1301C17.6086 29.3145 17.6857 29.4897 17.8187 29.6176C17.9516 29.7455 18.1297 29.8158 18.3141 29.8131H38.7262L38.7562 29.975C38.9117 30.6764 39.2059 31.3395 39.6215 31.9255C40.0371 32.5114 40.5657 33.0084 41.1761 33.3871C42.4349 34.1775 43.9498 34.4529 45.4062 34.1561C46.4594 33.9579 47.4319 33.4568 48.2046 32.7142C48.9772 31.9715 49.5164 31.0196 49.7562 29.975L49.7961 29.8131H52.4362C52.6207 29.8158 52.7987 29.7455 52.9317 29.6176C53.0647 29.4897 53.1417 29.3145 53.1462 29.1301V22.03C53.1394 21.8458 53.0602 21.6717 52.9257 21.5455C52.7913 21.4193 52.6125 21.3512 52.4282 21.3561ZM9.54517 32.8771C8.72371 32.844 7.93015 32.57 7.26312 32.0894C6.59609 31.6088 6.08506 30.9428 5.79358 30.1741C5.5021 29.4054 5.44302 28.5679 5.62372 27.7659C5.80441 26.9639 6.21691 26.2327 6.80988 25.6632C7.40285 25.0938 8.15013 24.7112 8.9588 24.5631C9.76748 24.415 10.6019 24.5079 11.3582 24.8302C12.1145 25.1525 12.7593 25.6901 13.2125 26.376C13.6657 27.0619 13.9073 27.8659 13.9072 28.6881C13.8827 29.8215 13.4098 30.899 12.5921 31.6843C11.7744 32.4696 10.6787 32.8985 9.54517 32.8771ZM17.5962 27.5621H15.5511C15.5143 27.5668 15.478 27.5741 15.4422 27.5841L15.2242 27.6481L15.1732 27.4351C14.9989 26.7166 14.6822 26.0404 14.2418 25.4465C13.8013 24.8527 13.2462 24.3533 12.6092 23.978C11.3001 23.1934 9.73915 22.9427 8.25018 23.2781C7.21393 23.4913 6.25864 23.9919 5.49359 24.7226C4.72855 25.4533 4.18467 26.3847 3.92419 27.41L3.88617 27.5661H2.4162V20.7661C2.43195 20.1008 2.71015 19.4689 3.19012 19.008C3.6701 18.5471 4.31283 18.2948 4.97815 18.306H17.5962V27.5701V27.5621ZM17.5962 16.9341H5.55219L6.27917 8.55507H17.5962V16.9341ZM17.5962 7.19105H4.26019V6.59108C4.27568 5.92568 4.55375 5.29343 5.03375 4.83235C5.51376 4.37127 6.15666 4.11881 6.82214 4.13008H17.5962V7.19404V7.19105ZM48.4382 29.1061C48.3575 30.1531 47.8797 31.1297 47.1027 31.8361C46.3257 32.5425 45.3081 32.9253 44.2582 32.9061H44.2482C43.2777 32.9194 42.3333 32.5924 41.5789 31.9819C40.8244 31.3714 40.3076 30.5159 40.1182 29.564L40.1082 29.491L40.1482 29.4281C40.2082 29.3299 40.2365 29.2156 40.2293 29.1008C40.2222 28.9859 40.1799 28.8761 40.1082 28.7861L40.0682 28.7271V28.6561C40.102 28.123 40.2435 27.6022 40.4841 27.1253C40.7247 26.6483 41.0595 26.2251 41.4682 25.8811C42.3073 25.1685 43.3875 24.8045 44.4867 24.8638C45.5859 24.9232 46.6206 25.4014 47.3782 26.2001C47.7437 26.5866 48.0263 27.0437 48.2086 27.5435C48.3909 28.0432 48.469 28.575 48.4382 29.1061ZM51.5081 8.07704H38.5981C38.5063 8.07352 38.4147 8.08858 38.3289 8.12129C38.243 8.15401 38.1646 8.20375 38.0984 8.26747C38.0322 8.33119 37.9795 8.40764 37.9435 8.4922C37.9076 8.57676 37.889 8.6677 37.889 8.7596C37.889 8.85149 37.9076 8.94243 37.9435 9.02699C37.9795 9.11155 38.0322 9.18794 38.0984 9.25166C38.1646 9.31538 38.243 9.36513 38.3289 9.39784C38.4147 9.43056 38.5063 9.44561 38.5981 9.44209H51.5081C51.5999 9.44561 51.6915 9.43056 51.7774 9.39784C51.8633 9.36513 51.9417 9.31538 52.0079 9.25166C52.0741 9.18794 52.1268 9.11155 52.1628 9.02699C52.1988 8.94243 52.2173 8.85149 52.2173 8.7596C52.2173 8.6677 52.1988 8.57676 52.1628 8.4922C52.1268 8.40764 52.0741 8.33119 52.0079 8.26747C51.9417 8.20375 51.8633 8.15401 51.7774 8.12129C51.6915 8.08858 51.5999 8.07352 51.5081 8.07704ZM53.3482 17.8201H33.0582C32.9655 17.8151 32.8728 17.829 32.7856 17.861C32.6985 17.893 32.6189 17.9424 32.5515 18.0062C32.4841 18.0701 32.4305 18.1469 32.3938 18.2322C32.3571 18.3174 32.3382 18.4093 32.3382 18.5021C32.3382 18.5949 32.3571 18.6867 32.3938 18.7719C32.4305 18.8572 32.4841 18.9341 32.5515 18.9979C32.6189 19.0618 32.6985 19.1111 32.7856 19.1431C32.8728 19.1751 32.9655 19.1891 33.0582 19.1841H53.3482C53.44 19.1876 53.5316 19.1726 53.6175 19.1398C53.7034 19.1071 53.7818 19.0574 53.848 18.9937C53.9142 18.9299 53.9668 18.8536 54.0027 18.769C54.0387 18.6844 54.0573 18.5934 54.0573 18.5015C54.0573 18.4096 54.0387 18.3187 54.0027 18.2341C53.9668 18.1496 53.9142 18.0732 53.848 18.0095C53.7818 17.9458 53.7034 17.896 53.6175 17.8633C53.5316 17.8306 53.44 17.8155 53.3482 17.819V17.8201ZM51.5081 12.5051H41.3582C41.2663 12.5016 41.1747 12.5166 41.0889 12.5493C41.003 12.582 40.9246 12.6317 40.8584 12.6954C40.7922 12.7592 40.7395 12.8356 40.7036 12.9202C40.6676 13.0047 40.649 13.0957 40.649 13.1876C40.649 13.2795 40.6676 13.3704 40.7036 13.455C40.7395 13.5395 40.7922 13.616 40.8584 13.6797C40.9246 13.7434 41.003 13.7931 41.0889 13.8258C41.1747 13.8585 41.2663 13.8736 41.3582 13.8701H51.5081C51.5999 13.8736 51.6915 13.8585 51.7774 13.8258C51.8633 13.7931 51.9417 13.7434 52.0079 13.6797C52.0741 13.616 52.1268 13.5395 52.1628 13.455C52.1988 13.3704 52.2173 13.2795 52.2173 13.1876C52.2173 13.0957 52.1988 13.0047 52.1628 12.9202C52.1268 12.8356 52.0741 12.7592 52.0079 12.6954C51.9417 12.6317 51.8633 12.582 51.7774 12.5493C51.6915 12.5166 51.5999 12.5016 51.5081 12.5051ZM36.1182 12.9881H37.2182C37.3259 12.9881 37.4291 12.9453 37.5052 12.8692C37.5814 12.793 37.6241 12.6897 37.6241 12.582C37.6241 12.4744 37.5814 12.3711 37.5052 12.295C37.4291 12.2189 37.3259 12.176 37.2182 12.176H36.1182C36.0625 12.1721 36.0065 12.1797 35.9539 12.1984C35.9012 12.217 35.853 12.2463 35.8121 12.2844C35.7713 12.3225 35.7387 12.3685 35.7164 12.4198C35.6942 12.471 35.6827 12.5262 35.6827 12.582C35.6827 12.6379 35.6942 12.6932 35.7164 12.7444C35.7387 12.7956 35.7713 12.8417 35.8121 12.8798C35.853 12.9179 35.9012 12.9471 35.9539 12.9658C36.0065 12.9844 36.0625 12.992 36.1182 12.9881ZM37.7582 17.9771H36.6682C36.6131 17.9743 36.558 17.9828 36.5063 18.002C36.4547 18.0212 36.4074 18.0507 36.3674 18.0888C36.3275 18.1268 36.2957 18.1725 36.2739 18.2232C36.2522 18.2738 36.241 18.3284 36.241 18.3836C36.241 18.4387 36.2522 18.4933 36.2739 18.544C36.2957 18.5946 36.3275 18.6404 36.3674 18.6784C36.4074 18.7164 36.4547 18.7459 36.5063 18.7651C36.558 18.7843 36.6131 18.7928 36.6682 18.7901H37.7582C37.8133 18.7928 37.8683 18.7843 37.92 18.7651C37.9717 18.7459 38.019 18.7164 38.0589 18.6784C38.0988 18.6404 38.1307 18.5946 38.1524 18.544C38.1741 18.4933 38.1854 18.4387 38.1854 18.3836C38.1854 18.3284 38.1741 18.2738 38.1524 18.2232C38.1307 18.1725 38.0988 18.1268 38.0589 18.0888C38.019 18.0507 37.9717 18.0212 37.92 18.002C37.8683 17.9828 37.8133 17.9743 37.7582 17.9771ZM38.3082 14.8131H36.1182C36.0625 14.8091 36.0065 14.8168 35.9539 14.8354C35.9012 14.854 35.853 14.8833 35.8121 14.9213C35.7713 14.9594 35.7387 15.0056 35.7164 15.0568C35.6942 15.108 35.6827 15.1632 35.6827 15.2191C35.6827 15.2749 35.6942 15.3301 35.7164 15.3814C35.7387 15.4326 35.7713 15.4787 35.8121 15.5168C35.853 15.5549 35.9012 15.5841 35.9539 15.6027C36.0065 15.6214 36.0625 15.629 36.1182 15.6251H38.3082C38.3639 15.629 38.4198 15.6214 38.4725 15.6027C38.5251 15.5841 38.5733 15.5549 38.6142 15.5168C38.655 15.4787 38.6876 15.4326 38.7099 15.3814C38.7322 15.3301 38.7437 15.2749 38.7437 15.2191C38.7437 15.1632 38.7322 15.108 38.7099 15.0568C38.6876 15.0056 38.655 14.9594 38.6142 14.9213C38.5733 14.8833 38.5251 14.854 38.4725 14.8354C38.4198 14.8168 38.3639 14.8091 38.3082 14.8131Z" fill="white"></path></svg>