<svg xmlns="http://www.w3.org/2000/svg" width="44" height="46" viewBox="0 0 44 46" fill="none"><path fill-rule="evenodd" clip-rule="evenodd" d="M42.9002 10.9089L22.4202 1.04791C22.3304 1.00496 22.2322 0.982666 22.1327 0.982666C22.0332 0.982666 21.9349 1.00496 21.8452 1.04791L1.36517 10.9089C1.25346 10.9626 1.15919 11.0468 1.0932 11.1517C1.02721 11.2566 0.992202 11.378 0.992188 11.502V35.447C0.99225 35.571 1.02729 35.6925 1.09326 35.7976C1.15924 35.9027 1.25346 35.987 1.36517 36.041L21.8452 45.9C21.9348 45.9434 22.0331 45.9659 22.1327 45.9659C22.2323 45.9659 22.3306 45.9434 22.4202 45.9L42.9002 36.041C43.0122 35.9872 43.1067 35.9029 43.1729 35.7979C43.239 35.6928 43.2741 35.5712 43.2742 35.447V11.502C43.2739 11.3779 43.2388 11.2565 43.1726 11.1516C43.1064 11.0466 43.012 10.9626 42.9002 10.9089ZM22.1332 2.37396L41.0932 11.502L35.5932 14.1469C35.558 14.1207 35.5205 14.0976 35.4812 14.0779L16.6502 5.01196L22.1332 2.37396ZM15.1612 5.75696L34.0942 14.8719L30.2162 16.7379L11.2912 7.62793L15.1612 5.75696ZM34.5372 16.1209V23.0209L30.9152 24.765V17.8649L34.5372 16.1209ZM41.9522 35.0339L22.7942 44.257V21.775L27.3632 19.575C27.4432 19.5386 27.5152 19.4866 27.5748 19.4221C27.6345 19.3575 27.6806 19.2816 27.7105 19.199C27.7404 19.1163 27.7535 19.0285 27.7489 18.9407C27.7443 18.8529 27.7223 18.7669 27.684 18.6878C27.6457 18.6087 27.5919 18.538 27.5259 18.4799C27.4599 18.4219 27.3829 18.3776 27.2996 18.3498C27.2162 18.3219 27.1281 18.3111 27.0404 18.3178C26.9528 18.3245 26.8673 18.3487 26.7892 18.3889L22.1332 20.6299L20.3012 19.7479C20.1438 19.6717 19.9625 19.6611 19.7973 19.7184C19.6321 19.7758 19.4964 19.8965 19.4202 20.054C19.3439 20.2114 19.3334 20.3926 19.3907 20.5578C19.4481 20.723 19.5688 20.8587 19.7262 20.9349L21.4722 21.775V44.257L2.31317 35.0339V12.5519L16.9022 19.575C16.98 19.6127 17.0646 19.6348 17.151 19.6398C17.2374 19.6449 17.3239 19.6329 17.4057 19.6046C17.4875 19.5762 17.5628 19.532 17.6275 19.4745C17.6922 19.417 17.7449 19.3473 17.7827 19.2694C17.8204 19.1915 17.8425 19.107 17.8476 19.0206C17.8527 18.9342 17.8407 18.8477 17.8123 18.7659C17.7839 18.6842 17.7397 18.6087 17.6823 18.5441C17.6248 18.4794 17.555 18.4267 17.4772 18.3889L3.17719 11.502L9.74121 8.34296L29.5892 17.8969L29.5982 17.9089V25.8159C29.5987 25.9276 29.6274 26.0373 29.6817 26.1348C29.736 26.2324 29.8141 26.3146 29.9087 26.3739C30.0033 26.4332 30.1113 26.4676 30.2228 26.4739C30.3342 26.4802 30.4455 26.4581 30.5462 26.4099L35.4902 24.0289C35.602 23.9753 35.6963 23.8912 35.7623 23.7863C35.8283 23.6814 35.8633 23.5599 35.8632 23.4359V15.4849L41.9572 12.5519V35.0339H41.9522Z" fill="white"></path></svg>