<svg xmlns="http://www.w3.org/2000/svg" width="45" height="45" viewBox="0 0 45 45" fill="none"><path fill-rule="evenodd" clip-rule="evenodd" d="M32.3099 30.028H36.8199V31.534H32.3099V30.028ZM26.2999 30.028H30.8099V31.534H26.2999V30.028ZM20.2899 30.028H24.7999V31.534H20.2899V30.028ZM44.3199 15.567L29.46 0.661012C29.2504 0.449873 29.0012 0.282255 28.7266 0.167787C28.452 0.0533179 28.1575 -0.00573549 27.86 -0.00598049H27.85C27.5554 -0.00625552 27.2637 0.0525999 26.9923 0.167176C26.7209 0.281753 26.4753 0.449708 26.27 0.661012L10.49 16.469H2.26001C1.96319 16.4689 1.66915 16.5272 1.3949 16.6407C1.12064 16.7543 0.871508 16.9207 0.661621 17.1306C0.451735 17.3405 0.285282 17.5897 0.171753 17.864C0.0582241 18.1382 -0.000131204 18.4322 2.21499e-07 18.729V39.82C-0.000131204 40.1168 0.0582241 40.4107 0.171753 40.685C0.285282 40.9593 0.451735 41.2084 0.661621 41.4183C0.871508 41.6282 1.12064 41.7947 1.3949 41.9083C1.66915 42.0218 1.96319 42.0801 2.26001 42.08H13.39L15.63 44.33C15.8393 44.5416 16.0884 44.7094 16.363 44.8239C16.6377 44.9384 16.9324 44.9973 17.23 44.997C17.526 44.9969 17.8191 44.9379 18.092 44.8234C18.365 44.7088 18.6125 44.5412 18.8199 44.33L21.0699 42.08H38.3199C38.6168 42.0801 38.9107 42.0218 39.1849 41.9083C39.4592 41.7947 39.7084 41.6282 39.9183 41.4183C40.1282 41.2084 40.2947 40.9593 40.4082 40.685C40.5217 40.4107 40.5801 40.1168 40.58 39.82V22.52L44.3199 18.767C44.5322 18.5598 44.701 18.3122 44.816 18.0388C44.9311 17.7653 44.9902 17.4716 44.99 17.175C44.9902 16.876 44.9312 16.5799 44.8162 16.3038C44.7012 16.0278 44.5324 15.7774 44.3199 15.567ZM34.76 8.11499L26.4299 16.469H20.0499L31.5699 4.91699L34.76 8.11499ZM27.33 1.72302C27.398 1.65316 27.4792 1.59737 27.5688 1.5589C27.6585 1.52043 27.7548 1.50005 27.8523 1.49884C27.9498 1.49763 28.0465 1.51565 28.1371 1.55188C28.2276 1.58812 28.3102 1.64187 28.38 1.71002C28.38 1.71002 28.39 1.71902 28.39 1.72302L30.51 3.85199L17.9299 16.469H12.62L27.33 1.72302ZM17.75 43.268C17.6836 43.3395 17.6032 43.3965 17.5137 43.4354C17.4242 43.4743 17.3276 43.4943 17.23 43.494C17.0272 43.4927 16.8332 43.4115 16.6899 43.268L15.51 42.08H18.9399L17.75 43.268ZM39.0699 39.82C39.0706 39.9188 39.0517 40.0168 39.0143 40.1083C38.9769 40.1997 38.9217 40.2828 38.8519 40.3528C38.7822 40.4229 38.6993 40.4784 38.608 40.5162C38.5167 40.554 38.4188 40.5733 38.3199 40.573H2.26001C2.16065 40.5735 2.06208 40.5545 1.97009 40.5169C1.8781 40.4793 1.79446 40.424 1.72388 40.3541C1.65329 40.2841 1.59713 40.201 1.55872 40.1093C1.5203 40.0177 1.50039 39.9194 1.5 39.82V29.275H39.0699V39.82ZM39.0699 27.768H1.5V23.248H39.0699V27.768ZM39.0699 21.742H1.5V18.729C1.50039 18.6296 1.52031 18.5312 1.55872 18.4395C1.59712 18.3478 1.65318 18.2646 1.72376 18.1946C1.79433 18.1246 1.8781 18.0692 1.97009 18.0315C2.06209 17.9938 2.1606 17.9746 2.26001 17.975H38.3199C38.4188 17.9748 38.5167 17.9943 38.608 18.0322C38.6993 18.0701 38.7823 18.1257 38.8521 18.1958C38.9218 18.2659 38.9769 18.3491 39.0143 18.4406C39.0517 18.5321 39.0706 18.6301 39.0699 18.729V21.742ZM43.26 17.699L40.58 20.39V18.729C40.5801 18.4322 40.5217 18.1382 40.4082 17.864C40.2947 17.5897 40.1282 17.3405 39.9183 17.1306C39.7084 16.9207 39.4592 16.7543 39.1849 16.6407C38.9107 16.5272 38.6168 16.4689 38.3199 16.469H28.5499L35.8199 9.18103L43.26 16.633C43.4013 16.7768 43.4803 16.9704 43.48 17.172C43.48 17.2702 43.4605 17.3674 43.4227 17.458C43.385 17.5486 43.3297 17.6309 43.26 17.7V17.699ZM7.20996 39.087C7.31944 38.9907 7.42302 38.8878 7.52002 38.779C7.99788 39.3388 8.66676 39.701 9.39673 39.7953C10.1267 39.8895 10.8656 39.7091 11.47 39.289C11.9998 38.925 12.3994 38.4011 12.6105 37.7939C12.8215 37.1867 12.833 36.5278 12.6432 35.9136C12.4533 35.2994 12.0722 34.762 11.5553 34.3798C11.0384 33.9975 10.4129 33.7906 9.77002 33.789C9.61918 33.7869 9.46842 33.7993 9.31995 33.826L9.29993 33.832H9.27991C8.59319 33.946 7.96948 34.3004 7.52002 34.832C7.13013 34.3828 6.61585 34.0593 6.04224 33.9022C5.46862 33.745 4.86135 33.7613 4.297 33.949C3.73264 34.1367 3.23656 34.4874 2.87134 34.9568C2.50612 35.4262 2.28809 35.9933 2.24487 36.5865C2.20166 37.1797 2.33521 37.7724 2.62854 38.2897C2.92187 38.8071 3.36188 39.226 3.89307 39.4935C4.42425 39.761 5.02283 39.8652 5.61316 39.7928C6.20349 39.7205 6.7591 39.4748 7.20996 39.087ZM9.57996 35.316C9.64258 35.3042 9.70631 35.2989 9.77002 35.3C9.96759 35.3 10.1631 35.339 10.3456 35.4149C10.528 35.4907 10.6938 35.6018 10.8331 35.7418C10.9725 35.8819 11.0829 36.048 11.1578 36.2308C11.2328 36.4136 11.2709 36.6094 11.27 36.807C11.2711 37.1249 11.1693 37.4346 10.98 37.69C10.95 37.727 10.93 37.766 10.9 37.804C10.8915 37.8065 10.8843 37.8123 10.88 37.82C10.7399 37.9755 10.5687 38.0997 10.3774 38.1846C10.1862 38.2696 9.97927 38.3133 9.77002 38.313C9.39076 38.3077 9.02743 38.1595 8.75269 37.898C8.47794 37.6365 8.31196 37.2809 8.28796 36.9024C8.26397 36.5239 8.38365 36.1502 8.62317 35.8561C8.86269 35.562 9.2044 35.3691 9.57996 35.316ZM5.26001 35.3C5.55836 35.2986 5.85038 35.3858 6.09912 35.5505C6.34787 35.7153 6.54209 35.9502 6.65723 36.2254C6.77236 36.5006 6.8032 36.8039 6.74585 37.0967C6.68849 37.3895 6.54556 37.6587 6.33508 37.8701C6.12461 38.0816 5.85612 38.2258 5.5636 38.2845C5.27108 38.3432 4.96767 38.3138 4.69189 38.2C4.41612 38.0861 4.18031 37.8929 4.0144 37.645C3.8485 37.397 3.76001 37.1054 3.76001 36.807C3.75909 36.6094 3.7971 36.4136 3.87207 36.2308C3.94704 36.048 4.0574 35.8819 4.19678 35.7418C4.33616 35.6018 4.50188 35.4907 4.68433 35.4149C4.86677 35.339 5.06244 35.3 5.26001 35.3Z" fill="white"></path></svg>